<?xml version="1.0" encoding="UTF-8" standalone="no"?>
<svg
   version="1.1"
   width="11.6929in"
   height="8.2677002in"
   viewBox="0 0 841.8898 595.2756"
   id="svg5"
   sodipodi:docname="Clinia Repouso Santa Alice.cdr"
   inkscape:export-filename="Clinia Repouso Santa Alice.cdr.svg"
   inkscape:export-xdpi="96"
   inkscape:export-ydpi="96"
   inkscape:version="1.4 (e7c3feb100, 2024-10-09)"
   inkscape:dataloss="true"
   xmlns:inkscape="http://www.inkscape.org/namespaces/inkscape"
   xmlns:sodipodi="http://sodipodi.sourceforge.net/DTD/sodipodi-0.dtd"
   xmlns:xlink="http://www.w3.org/1999/xlink"
   xmlns="http://www.w3.org/2000/svg"
   xmlns:svg="http://www.w3.org/2000/svg">
  <defs
     id="defs5">
    <linearGradient
       id="swatch14"
       inkscape:swatch="solid">
      <stop
         style="stop-color:#005e29;stop-opacity:1;"
         offset="0"
         id="stop14" />
    </linearGradient>
    <linearGradient
       id="swatch9"
       inkscape:swatch="solid">
      <stop
         style="stop-color:#005e29;stop-opacity:1;"
         offset="0"
         id="stop9" />
    </linearGradient>
    <linearGradient
       id="swatch8"
       inkscape:swatch="solid">
      <stop
         style="stop-color:#005e29;stop-opacity:1;"
         offset="0"
         id="stop8" />
    </linearGradient>
    <linearGradient
       id="swatch7"
       inkscape:swatch="solid">
      <stop
         style="stop-color:#005e29;stop-opacity:1;"
         offset="0"
         id="stop7" />
    </linearGradient>
    <linearGradient
       id="swatch6"
       inkscape:swatch="solid">
      <stop
         style="stop-color:#005e29;stop-opacity:1;"
         offset="0"
         id="stop6" />
    </linearGradient>
    <linearGradient
       id="swatch5"
       inkscape:swatch="solid">
      <stop
         style="stop-color:#2c6b6f;stop-opacity:1;"
         offset="0"
         id="stop5" />
    </linearGradient>
    <linearGradient
       inkscape:collect="always"
       xlink:href="#swatch5"
       id="linearGradient5"
       x1="239.8187"
       y1="225.9666"
       x2="758.04828"
       y2="225.9666"
       gradientUnits="userSpaceOnUse" />
    <linearGradient
       inkscape:collect="always"
       xlink:href="#swatch5"
       id="linearGradient6"
       x1="239.3804"
       y1="304.20679"
       x2="778.703"
       y2="304.20679"
       gradientUnits="userSpaceOnUse" />
    <linearGradient
       inkscape:collect="always"
       xlink:href="#swatch5"
       id="linearGradient7"
       x1="241.91631"
       y1="379.53241"
       x2="534.82794"
       y2="379.53241"
       gradientUnits="userSpaceOnUse" />
    <linearGradient
       inkscape:collect="always"
       xlink:href="#swatch5"
       id="linearGradient8"
       x1="415.20529"
       y1="379.17834"
       x2="774.8186"
       y2="379.17834"
       gradientUnits="userSpaceOnUse" />
    <linearGradient
       inkscape:collect="always"
       xlink:href="#swatch5"
       id="linearGradient14"
       x1="62.781502"
       y1="297.65302"
       x2="206.136"
       y2="297.65302"
       gradientUnits="userSpaceOnUse" />
  </defs>
  <sodipodi:namedview
     id="namedview5"
     pagecolor="#ffffff"
     bordercolor="#000000"
     borderopacity="0.25"
     inkscape:showpageshadow="2"
     inkscape:pageopacity="0.0"
     inkscape:pagecheckerboard="0"
     inkscape:deskcolor="#d1d1d1"
     inkscape:document-units="in"
     inkscape:zoom="1.0079385"
     inkscape:cx="561.04614"
     inkscape:cy="396.84961"
     inkscape:window-width="1920"
     inkscape:window-height="1011"
     inkscape:window-x="0"
     inkscape:window-y="0"
     inkscape:window-maximized="1"
     inkscape:current-layer="Layer1000">
    <inkscape:page
       x="0"
       y="0"
       width="841.88983"
       height="595.27557"
       id="page2"
       margin="0"
       bleed="0" />
  </sodipodi:namedview>
  <g
     id="Layer1000">
    <path
       d="m 272.0574,229.843 c -0.2098,1.169 -0.4652,2.8097 -0.7662,4.9019 -0.292,2.1022 -0.4927,3.7327 -0.6021,4.8813 -3.8132,0.6562 -7.2068,0.9845 -10.1991,0.9845 -2.8828,0 -5.5737,-0.4102 -8.0549,-1.2203 -2.4814,-0.8102 -4.7619,-2.1433 -6.8329,-3.9892 -2.0798,-1.8562 -3.5578,-4.0405 -4.4518,-6.5427 -0.8847,-2.5021 -1.3317,-5.3019 -1.3317,-8.409 0,-3.6303 0.6021,-6.8913 1.8062,-9.7832 1.1948,-2.8919 2.9282,-5.3121 5.1815,-7.2399 2.2535,-1.9381 4.7253,-3.3123 7.4075,-4.1432 2.6912,-0.8305 5.4737,-1.2509 8.3378,-1.2509 2.6365,0 5.8932,0.3898 9.7795,1.169 l 0.0547,2.5124 c 0.0275,1.0973 0.0822,2.2972 0.146,3.6201 l 0.1823,3.4047 c -2.0798,-0.5539 -3.7676,-0.923 -5.063,-1.118 -1.2954,-0.1947 -2.4902,-0.2974 -3.594,-0.2974 -2.3993,0 -4.5706,0.5437 -6.4956,1.6203 -1.9157,1.0871 -3.4299,2.6561 -4.5335,4.7175 -1.1041,2.061 -1.6605,4.348 -1.6605,6.8502 0,2.2765 0.4652,4.2352 1.3867,5.8759 0.9303,1.6305 2.1804,2.8919 3.7494,3.7842 1.5783,0.8921 3.5212,1.3332 5.8382,1.3332 1.2592,0 2.6365,-0.1128 4.1233,-0.3385 1.4871,-0.2256 3.348,-0.6667 5.5922,-1.3229 z m 4.7803,9.9677 0.4743,-6.4709 1.0309,-22.4787 0.2917,-12.0904 c 2.4724,0.0409 4.3336,0.0616 5.5831,0.0616 1.6237,0 3.4118,-0.0207 5.3731,-0.0616 l -0.6021,9.2294 -0.9762,22.735 -0.2098,9.0756 c -1.9156,-0.0204 -3.6306,-0.0309 -5.1633,-0.0309 z m 16.831,0 c 0.2464,-2.4508 0.4289,-4.4608 0.5474,-6.04 0.1278,-1.5897 0.2463,-3.6099 0.3557,-6.0812 0.1185,-2.4613 0.2189,-5.1891 0.3011,-8.1731 0.0913,-2.9945 0.1641,-6.4607 0.2097,-10.4088 2.3174,0.0411 4.1692,0.0615 5.5557,0.0615 1.2679,0 3.0835,-0.0204 5.4552,-0.0615 -0.2919,3.7839 -0.5017,7.1169 -0.6202,9.9881 -0.1278,2.8613 -0.21,5.8966 -0.2463,9.1066 -0.0641,5.6914 -0.1004,9.5678 -0.1004,11.6084 -2.1254,-0.0411 -3.95,-0.0615 -5.4918,-0.0615 -1.5143,0 -3.5031,0.0204 -5.9661,0.0615 z m 2.5178,-34.9486 0.9853,-2.4817 c 0.2463,-0.5845 0.5201,-1.2716 0.8209,-2.0716 l 0.8209,-2.0919 c 1.8156,0.0411 3.5943,0.0615 5.3277,0.0615 1.4414,0 3.2386,-0.0204 5.4003,-0.0615 l -2.3167,2.9021 c -0.1826,0.2256 -0.584,0.7486 -1.2045,1.5896 -0.6202,0.8408 -1.1582,1.5588 -1.6237,2.1535 -1.7149,-0.0411 -3.1198,-0.0615 -4.2236,-0.0615 -0.8575,0 -2.1895,0.0204 -3.9866,0.0615 z m 14.4498,34.9486 c 0.5199,-4.5533 0.9125,-9.5779 1.1861,-15.0848 0.2738,-5.4967 0.447,-10.7062 0.4926,-15.6183 2.1439,0.0411 3.9955,0.0615 5.5466,0.0615 1.8062,0 3.5393,-0.0204 5.1996,-0.0615 l -0.237,4.0918 c 0.5836,-0.7385 1.0854,-1.323 1.5143,-1.7433 0.4288,-0.4309 0.9578,-0.8513 1.5874,-1.2512 0.6383,-0.4102 1.3042,-0.7385 2.016,-1.0049 0.7115,-0.2566 1.487,-0.4615 2.3351,-0.6052 0.8484,-0.1537 1.7334,-0.2257 2.6547,-0.2257 1.2773,0 2.5271,0.154 3.7497,0.4615 1.2129,0.3079 2.2348,0.7486 3.0557,1.3229 0.8121,0.5641 1.4961,1.2717 2.0526,2.1229 0.5473,0.851 0.9124,1.7637 1.0947,2.738 0.1732,0.9743 0.2645,1.9893 0.2645,3.0251 0,0.7589 -0.0729,2.41 -0.2189,4.9326 l -0.447,10.8805 c -0.0913,2.1535 -0.1366,4.1326 -0.1366,5.9581 -1.8062,-0.0411 -3.4849,-0.0615 -5.0539,-0.0615 -2.1257,0 -4.0595,0.0204 -5.8019,0.0615 0.1641,-1.8255 0.3466,-4.5326 0.5289,-8.132 0.1825,-3.5994 0.2829,-6.1325 0.2829,-7.5991 0,-2.2558 -0.3923,-3.8251 -1.1676,-4.7171 -0.7756,-0.8921 -1.7609,-1.3332 -2.9375,-1.3332 -1.0401,0 -2.016,0.3796 -2.9376,1.1384 -0.9212,0.7691 -1.6237,1.8663 -2.1254,3.3225 -0.5017,1.4562 -0.8575,3.8455 -1.0585,7.1683 -0.2097,3.3224 -0.3464,6.7067 -0.4195,10.1522 -1.7787,-0.0411 -3.5212,-0.0615 -5.218,-0.0615 -1.779,0 -3.7128,0.0204 -5.802,0.0615 z m 39.0079,-34.518 c 0.1097,-2.3791 0.1644,-4.2557 0.1644,-5.6401 0,-0.4 -0.009,-0.9434 -0.0275,-1.6203 2.1529,0.0411 3.9501,0.0615 5.4096,0.0615 2.007,0 3.7676,-0.0204 5.2821,-0.0615 -0.055,0.6154 -0.0913,1.1384 -0.1097,1.5588 l -0.155,3.7224 c -0.0363,0.5539 -0.0547,1.2204 -0.0547,1.9792 -1.7606,-0.0408 -3.4484,-0.0615 -5.0721,-0.0615 -1.6693,0 -3.4849,0.0207 -5.4371,0.0615 z m -1.6968,34.518 c 0.2463,-2.4508 0.4289,-4.4608 0.5473,-6.04 0.1279,-1.5897 0.2464,-3.6099 0.3558,-6.0812 0.1185,-2.4613 0.2191,-5.1891 0.3013,-8.1731 0.0913,-2.9945 0.1641,-6.4607 0.2098,-10.4088 2.317,0.0411 4.1689,0.0615 5.5556,0.0615 1.2679,0 3.0832,-0.0204 5.4553,-0.0615 -0.292,3.7839 -0.5018,7.1169 -0.6205,9.9881 -0.1279,2.8613 -0.2101,5.8966 -0.2464,9.1066 -0.064,5.6914 -0.1003,9.5678 -0.1003,11.6084 -2.1254,-0.0411 -3.9501,-0.0615 -5.4919,-0.0615 -1.5142,0 -3.503,0.0204 -5.966,0.0615 z m 40.011,-9.5986 c -0.091,0.7999 -0.3008,2.2768 -0.6293,4.42 l -0.684,4.8096 c -2.8006,0.7792 -5.5468,1.169 -8.2196,1.169 -1.9429,0 -3.6488,-0.2257 -5.1177,-0.6565 -1.724,-0.523 -3.2842,-1.4457 -4.6525,-2.7686 -1.4139,-1.3641 -2.4355,-2.9741 -3.0832,-4.8405 -0.7665,-2.1843 -1.1495,-4.625 -1.1495,-7.3321 0,-2.4817 0.3739,-4.871 1.1223,-7.1784 0.7477,-2.3074 1.8609,-4.2046 3.3205,-5.6917 1.4592,-1.497 3.0832,-2.4919 4.8713,-3.0044 1.7787,-0.5128 3.7491,-0.7694 5.9114,-0.7694 1.2588,0 2.5358,0.072 3.8222,0.2257 1.2864,0.1539 2.8735,0.4923 4.7619,1.0051 l 0.0547,0.6869 c 0.0457,0.718 0.0913,1.4564 0.1188,2.2048 0.0181,0.7486 0.0822,1.9281 0.1641,3.5484 l 0.1551,2.6662 c -2.5452,-0.9844 -4.7985,-1.4768 -6.7598,-1.4768 -1.4048,0 -2.6456,0.3078 -3.7037,0.9127 -1.0582,0.605 -1.8426,1.4871 -2.3537,2.6354 -0.5017,1.1486 -0.7571,2.4817 -0.7571,3.9997 0,1.5381 0.2279,2.8199 0.6843,3.8557 0.4561,1.046 1.1767,1.8255 2.1804,2.338 0.9941,0.523 2.0889,0.7795 3.2839,0.7795 0.6112,0 1.3227,-0.0717 2.153,-0.2154 0.8299,-0.1332 1.5508,-0.2974 2.171,-0.4615 0.6112,-0.1743 1.3867,-0.4615 2.3352,-0.8614 z m 7.435,-12.3673 c 0.3376,-1.969 0.5474,-3.3225 0.6386,-4.0711 0.0913,-0.7385 0.2373,-1.9075 0.4286,-3.4971 5.1271,-1.2717 9.5329,-1.9075 13.2095,-1.9075 2.0982,0 4.0232,0.2668 5.7654,0.8 1.7424,0.523 3.1016,1.3844 4.0779,2.5636 0.976,1.1795 1.4686,2.8715 1.4686,5.0763 0,1.1177 -0.1369,3.6405 -0.4014,7.5682 -0.2647,3.9172 -0.4654,9.0652 -0.602,15.4335 -1.7516,-0.0411 -3.494,-0.0615 -5.2183,-0.0615 -1.6784,0 -3.4665,0.0204 -5.355,0.0615 0.2464,-2.2047 0.5111,-6.758 0.8121,-13.6596 -0.6752,0.3694 -1.2041,0.6359 -1.5874,0.7898 -0.3829,0.1641 -1.0491,0.4102 -2.0069,0.7384 -0.9669,0.328 -1.7149,0.5947 -2.2532,0.8204 -0.5383,0.2256 -1.0126,0.5127 -1.414,0.8614 -0.4016,0.3382 -0.6842,0.6973 -0.8484,1.0664 -0.1735,0.3589 -0.2554,0.769 -0.2554,1.2203 0,0.6871 0.2464,1.2818 0.7297,1.7742 0.4836,0.4819 1.2498,0.728 2.3082,0.728 0.3739,0 0.7753,-0.0307 1.213,-0.1024 0.4291,-0.072 1.0219,-0.2361 1.7699,-0.5128 -0.5199,1.5177 -1.1401,3.7327 -1.8609,6.645 -1.5327,0.2872 -2.9829,0.4309 -4.3515,0.4309 -2.2076,0 -4.0501,-0.3487 -5.5191,-1.0358 -1.4686,-0.6973 -2.5999,-1.815 -3.3936,-3.3534 -0.7937,-1.5486 -1.186,-3.0866 -1.186,-4.6352 0,-0.9434 0.146,-1.8663 0.4382,-2.7689 0.2917,-0.9023 0.7478,-1.7844 1.3771,-2.6456 0.6205,-0.8614 1.3504,-1.5998 2.1804,-2.2047 0.8394,-0.6154 1.9797,-1.1897 3.4209,-1.7331 1.4505,-0.5437 3.2842,-1.046 5.5102,-1.5282 0.9213,-0.2049 1.7697,-0.4204 2.545,-0.646 0.7662,-0.2359 1.3229,-0.4306 1.6512,-0.6049 0.3285,-0.1744 0.593,-0.3694 0.7937,-0.595 0.2097,-0.2359 0.3557,-0.4717 0.4379,-0.7178 0.0913,-0.2562 0.1369,-0.5127 0.1369,-0.7897 0,-0.769 -0.2829,-1.3637 -0.8487,-1.7739 -0.5652,-0.4207 -1.4048,-0.6256 -2.4993,-0.6256 -3.056,0 -6.8235,0.964 -11.3119,2.8919 z m 106.9064,12.9212 c -0.2282,1.1999 -0.6659,4.0918 -1.3139,8.6757 -2.0707,0.4717 -3.8131,0.7792 -5.2271,0.9331 -1.4139,0.1537 -2.8369,0.2359 -4.2874,0.2359 -2.1257,0 -4.087,-0.1641 -5.8657,-0.4924 -1.7881,-0.328 -3.3299,-0.923 -4.6253,-1.7637 -1.2951,-0.8306 -2.3808,-1.8768 -3.2567,-3.1278 -0.8756,-1.2512 -1.5415,-2.7379 -1.9979,-4.4608 -0.4561,-1.7229 -0.684,-3.4969 -0.684,-5.3122 0,-2.5636 0.4561,-5.076 1.3683,-7.5271 0.9031,-2.4508 2.0801,-4.3685 3.5121,-5.7427 1.4415,-1.3844 3.0924,-2.3689 4.9627,-2.9432 1.87,-0.5845 3.795,-0.8717 5.7563,-0.8717 2.0253,0 3.9682,0.2668 5.811,0.8 1.8519,0.523 3.4118,1.4561 4.6981,2.7689 1.2861,1.3229 2.1986,2.8097 2.746,4.471 0.538,1.6614 0.8118,3.456 0.8118,5.3737 0,1.1486 -0.1097,2.4097 -0.3285,3.8148 l -18.8014,0.0307 c -0.0181,0.318 -0.0272,0.6052 -0.0272,0.8716 0,2.1535 0.6931,3.7432 2.0707,4.7687 1.3776,1.0151 3.056,1.5279 5.0448,1.5279 1.1767,0 2.5268,-0.1539 4.0411,-0.4615 1.5052,-0.3075 3.3755,-0.8305 5.5922,-1.5689 z m -16.5118,-9.7217 h 8.8489 c 0.0181,-0.3385 0.0275,-0.6257 0.0275,-0.8717 0,-1.0358 -0.1644,-1.9278 -0.4927,-2.6663 -0.3379,-0.7384 -0.8121,-1.2716 -1.4233,-1.61 -0.6202,-0.3385 -1.3135,-0.5128 -2.0797,-0.5128 -0.5383,0 -1.0491,0.0924 -1.5509,0.2871 -0.5017,0.1848 -0.9581,0.4717 -1.3592,0.8411 -0.4014,0.369 -0.739,0.7894 -1.0037,1.2716 -0.2645,0.4717 -0.4652,0.9433 -0.5928,1.3844 -0.1187,0.451 -0.2463,1.0766 -0.3741,1.8766 z m 36.3713,18.7664 c 0.3467,-3.5277 0.6205,-6.7067 0.8212,-9.5266 0.2007,-2.8304 0.3739,-6.1121 0.5199,-9.8346 0.155,-3.7329 0.2645,-7.6603 0.3376,-11.8034 0.0728,-4.1429 0.1094,-7.4347 0.1094,-9.8754 2.2258,0.0616 4.0229,0.0922 5.3912,0.0922 1.4233,0 3.1657,-0.0513 5.209,-0.1333 2.0525,-0.0924 4.0413,-0.1437 5.9845,-0.1437 2.2807,0 4.3058,0.1026 6.0939,0.3079 1.332,0.1332 2.5449,0.4305 3.6397,0.8716 1.095,0.4408 2.016,0.9743 2.7643,1.5996 0.7478,0.6358 1.3774,1.3436 1.87,2.1229 0.5018,0.7795 0.8847,1.692 1.1676,2.7484 0.2736,1.046 0.4105,2.1739 0.4105,3.3738 0,1.3434 -0.1551,2.6048 -0.4561,3.7738 -0.3011,1.169 -0.7753,2.2765 -1.4324,3.3021 -0.6474,1.0358 -1.4683,1.9278 -2.4536,2.6765 -0.9947,0.7486 -2.3811,1.5176 -4.1599,2.2972 l 1.3865,3.825 c 0.3923,1.0562 0.8121,2.1433 1.2588,3.2508 l 3.5762,8.8191 c 0.1641,0.3796 0.4467,1.1282 0.8575,2.2561 -2.9466,-0.0411 -4.9261,-0.0615 -5.9389,-0.0615 -1.2861,0 -3.3845,0.0204 -6.3125,0.0615 -0.2828,-1.0459 -0.803,-2.9843 -1.5511,-5.8144 -0.3007,-1.1795 -0.5561,-2.1024 -0.7752,-2.7383 -0.4199,-1.4252 -1.0582,-3.4251 -1.8885,-5.9989 l -2.755,-8.5218 c 0.9669,0.2049 1.9066,0.3076 2.8372,0.3076 1.2952,0 2.4721,-0.2155 3.5303,-0.6563 1.0582,-0.441 1.8612,-1.118 2.4086,-2.0406 0.538,-0.9128 0.8115,-1.8769 0.8115,-2.9024 0,-0.851 -0.2006,-1.6098 -0.6111,-2.2561 -0.4102,-0.646 -1.0582,-1.1279 -1.9338,-1.4457 -0.885,-0.318 -2.2442,-0.4822 -4.0776,-0.4822 -0.6205,0 -1.2683,0.0102 -1.9341,0.0411 -0.6662,0.0307 -1.4414,0.0616 -2.3355,0.082 -0.2372,4.102 -0.4379,9.1167 -0.6202,15.0236 -0.1826,5.9068 -0.301,11.711 -0.3558,17.4024 -2.9741,-0.0411 -4.9079,-0.0615 -5.8022,-0.0615 -1.0307,0 -2.9007,0.0204 -5.5919,0.0615 z m 64.569,-9.0447 c -0.2282,1.1999 -0.6659,4.0918 -1.3136,8.6757 -2.071,0.4717 -3.8132,0.7792 -5.2271,0.9331 -1.4142,0.1537 -2.8372,0.2359 -4.2877,0.2359 -2.1257,0 -4.087,-0.1641 -5.8657,-0.4924 -1.7881,-0.328 -3.3299,-0.923 -4.6253,-1.7637 -1.2951,-0.8306 -2.3808,-1.8768 -3.2564,-3.1278 -0.8759,-1.2512 -1.5418,-2.7379 -1.9979,-4.4608 -0.4564,-1.7229 -0.6843,-3.4969 -0.6843,-5.3122 0,-2.5636 0.4561,-5.076 1.3683,-7.5271 0.9031,-2.4508 2.0801,-4.3685 3.5121,-5.7427 1.4415,-1.3844 3.0926,-2.3689 4.9629,-2.9432 1.8701,-0.5845 3.7948,-0.8717 5.7561,-0.8717 2.0253,0 3.9682,0.2668 5.811,0.8 1.8519,0.523 3.4118,1.4561 4.6981,2.7689 1.2861,1.3229 2.1986,2.8097 2.746,4.471 0.5383,1.6614 0.8118,3.456 0.8118,5.3737 0,1.1486 -0.1094,2.4097 -0.3283,3.8148 l -18.8016,0.0307 c -0.0181,0.318 -0.0272,0.6052 -0.0272,0.8716 0,2.1535 0.6931,3.7432 2.0707,4.7687 1.3776,1.0151 3.056,1.5279 5.0448,1.5279 1.177,0 2.5268,-0.1539 4.0411,-0.4615 1.5052,-0.3075 3.3755,-0.8305 5.5922,-1.5689 z m -16.5118,-9.7217 h 8.8489 c 0.0181,-0.3385 0.0275,-0.6257 0.0275,-0.8717 0,-1.0358 -0.1644,-1.9278 -0.4927,-2.6663 -0.3376,-0.7384 -0.8121,-1.2716 -1.4233,-1.61 -0.6202,-0.3385 -1.3135,-0.5128 -2.0797,-0.5128 -0.5381,0 -1.0491,0.0924 -1.5509,0.2871 -0.5017,0.1848 -0.9581,0.4717 -1.3592,0.8411 -0.4014,0.369 -0.739,0.7894 -1.0034,1.2716 -0.2645,0.4717 -0.4655,0.9433 -0.5931,1.3844 -0.1187,0.451 -0.2463,1.0766 -0.3741,1.8766 z m 21.5932,32.8566 c 0.3282,-4.1122 0.6111,-8.2142 0.8393,-12.2955 0.4014,-7.0042 0.6749,-12.8699 0.83,-17.6077 0.146,-4.7481 0.2188,-9.4346 0.2188,-14.0902 3.6309,-0.6154 6.4681,-1.0256 8.5207,-1.2305 2.0616,-0.2053 4.1142,-0.3079 6.1665,-0.3079 2.5727,0 4.9354,0.2974 7.0974,0.9026 2.1622,0.5947 3.9047,1.6614 5.218,3.179 1.3138,1.5279 2.2992,3.3429 2.9559,5.4454 0.6659,2.1022 0.9942,4.307 0.9942,6.6042 0,2.1123 -0.2645,4.1428 -0.8028,6.1219 -0.538,1.969 -1.3592,3.7432 -2.4721,5.3326 -1.1038,1.5794 -2.3811,2.7484 -3.8222,3.5175 -1.4415,0.7588 -3.047,1.1384 -4.8167,1.1384 -0.8759,0 -1.779,-0.0924 -2.7187,-0.2872 -0.9394,-0.1845 -1.8337,-0.4615 -2.6728,-0.8203 -0.8393,-0.3694 -1.5417,-0.7282 -2.1072,-1.0973 -0.5658,-0.3694 -1.268,-0.9128 -2.1073,-1.6101 l -0.2829,8.3886 c -0.1279,3.8455 -0.1826,6.7476 -0.1826,8.7165 -2.0616,-0.0411 -3.8313,-0.0615 -5.3093,-0.0615 -1.277,0 -3.1288,0.0204 -5.5462,0.0615 z m 12.3154,-36.2304 c -0.146,0.892 -0.2464,1.6202 -0.3011,2.1843 -0.0547,0.5638 -0.1003,1.3332 -0.155,2.2867 -0.0547,0.9641 -0.0822,1.7331 -0.0822,2.3074 0,1.6203 0.2282,2.9841 0.6843,4.0814 0.4558,1.1075 1.0947,1.9587 1.9065,2.5639 0.8119,0.6049 1.6875,0.9023 2.6181,0.9023 0.9851,0 1.8885,-0.3076 2.7094,-0.9332 0.8302,-0.6256 1.487,-1.569 1.9703,-2.8097 0.4836,-1.2512 0.7209,-2.6561 0.7209,-4.225 0,-2.1229 -0.502,-3.8251 -1.5143,-5.1174 -1.0128,-1.2818 -2.4908,-1.9279 -4.4246,-1.9279 -1.2132,0 -2.5906,0.2257 -4.1323,0.6872 z m 40.3486,-9.3014 c 2.2167,0 4.3421,0.3796 6.3856,1.1384 2.0435,0.7691 3.7675,1.8562 5.1724,3.2919 1.4142,1.4357 2.4539,3.1071 3.1201,5.025 0.6658,1.9071 1.0032,3.9685 1.0032,6.1733 0,2.1432 -0.3008,4.1737 -0.8938,6.112 -0.6021,1.9279 -1.6146,3.7429 -3.0379,5.4349 -1.4323,1.6923 -3.2476,2.9639 -5.4462,3.8047 -2.1983,0.841 -4.5334,1.2614 -6.9968,1.2614 -2.2623,0 -4.4424,-0.3694 -6.5315,-1.1075 -2.0801,-0.7486 -3.8316,-1.8255 -5.2271,-3.2508 -1.4052,-1.4255 -2.4543,-3.1277 -3.1567,-5.1072 -0.7024,-1.9791 -1.0582,-4.0711 -1.0582,-6.245 0,-2.1844 0.3467,-4.2763 1.031,-6.2555 0.684,-1.9791 1.7697,-3.7635 3.2658,-5.343 1.487,-1.5894 3.3298,-2.7995 5.519,-3.6507 2.1986,-0.851 4.4791,-1.2819 6.8511,-1.2819 z m -0.1826,8.8603 c -1.14,0 -2.1619,0.3282 -3.056,0.9845 -0.885,0.6667 -1.5599,1.6304 -2.016,2.8919 -0.4564,1.2716 -0.6843,2.656 -0.6843,4.1533 0,2.1946 0.493,3.8764 1.4687,5.0454 0.9856,1.169 2.2167,1.7535 3.6946,1.7535 1.1223,0 2.1348,-0.3385 3.0289,-1.0049 0.8847,-0.6667 1.5599,-1.6614 2.016,-2.9636 0.4561,-1.3127 0.684,-2.7074 0.684,-4.2149 0,-1.2305 -0.1823,-2.3485 -0.5381,-3.3533 -0.3557,-0.9947 -0.9394,-1.7947 -1.7515,-2.3894 -0.8118,-0.6052 -1.7606,-0.9025 -2.8463,-0.9025 z m 49.6993,22.5813 c -2.0344,-0.0411 -3.7312,-0.0615 -5.0814,-0.0615 -1.6784,0 -3.3567,0.0204 -5.0536,0.0615 l -0.0365,-4.1224 c -0.6478,0.9128 -1.186,1.5894 -1.6328,2.0407 -0.4473,0.4513 -0.9306,0.8512 -1.4598,1.1897 -0.5199,0.3486 -1.1129,0.646 -1.7606,0.892 -0.6475,0.2563 -1.3958,0.4513 -2.2439,0.5845 -0.8487,0.1438 -1.7059,0.2155 -2.5728,0.2155 -1.4142,0 -2.7459,-0.1846 -3.9957,-0.5539 -1.2588,-0.3793 -2.3627,-1.0049 -3.3114,-1.8868 -0.9578,-0.8821 -1.6056,-1.887 -1.9522,-3.0149 -0.3467,-1.1282 -0.5199,-2.4304 -0.5199,-3.9175 0,-0.3588 0.0275,-0.9229 0.0822,-1.6818 l 0.4195,-6.8298 c 0.1276,-2.5021 0.2461,-5.2812 0.3464,-8.327 0.0732,-1.8663 0.1097,-3.6301 0.1097,-5.2914 2.2076,0.0411 4.087,0.0615 5.6285,0.0615 1.569,0 3.2933,-0.0204 5.1814,-0.0615 l -0.8299,11.4548 c -0.1276,1.7433 -0.1917,2.9327 -0.2007,3.5685 -0.009,0.6256 -0.0182,1.0565 -0.0182,1.2716 0,2.1229 0.3739,3.5586 1.131,4.3073 0.7481,0.7486 1.6512,1.1177 2.7003,1.1177 0.4196,0 0.8484,-0.0718 1.2683,-0.2155 0.4286,-0.1332 0.839,-0.3384 1.2223,-0.6049 0.3373,-0.2358 0.6477,-0.5437 0.9306,-0.9025 0.301,-0.3793 0.5655,-0.8408 0.8025,-1.3845 0.2829,-0.6664 0.4926,-1.3844 0.6389,-2.1432 0.1913,-1.0664 0.3373,-2.42 0.4467,-4.0508 0.0732,-1.1792 0.1826,-3.23 0.3101,-6.1321 l 0.2282,-6.2864 c 2.308,0.0411 4.1964,0.0615 5.6832,0.0615 1.6603,0 3.3299,-0.0204 5.0083,-0.0615 -0.4014,5.0967 -0.7206,9.9371 -0.9485,14.521 -0.2282,4.5941 -0.4017,9.9882 -0.5202,16.1821 z m 5.8292,-0.5538 c -0.0729,-0.8819 -0.1369,-1.8151 -0.2098,-2.7893 -0.0731,-0.9743 -0.1825,-2.3176 -0.3467,-4.0199 l -0.2097,-2.1741 c 1.724,0.7693 3.202,1.3436 4.4427,1.7127 1.2405,0.3792 2.3899,0.5641 3.4299,0.5641 0.8757,0 1.5781,-0.0924 2.1164,-0.2668 0.5474,-0.1845 0.9397,-0.441 1.1857,-0.7792 0.2466,-0.3385 0.3745,-0.6871 0.3745,-1.046 0,-0.3283 -0.0913,-0.6358 -0.2832,-0.9539 -0.1823,-0.3075 -0.6021,-0.7279 -1.2586,-1.2716 -1.4505,-1.1999 -2.7278,-2.2969 -3.8316,-3.2814 -1.1038,-0.9742 -1.9338,-1.8459 -2.4905,-2.6152 -0.5564,-0.7589 -0.985,-1.5792 -1.277,-2.4611 -0.292,-0.8818 -0.438,-1.7946 -0.438,-2.7277 0,-1.6716 0.4196,-3.2202 1.268,-4.6661 0.8393,-1.4355 2.0891,-2.4818 3.7312,-3.138 1.6421,-0.646 3.6491,-0.9743 6.0115,-0.9743 2.4723,0 5.6196,0.3694 9.4603,1.1075 l 0.4377,8.3682 c -2.1436,-0.9434 -4.2052,-1.4154 -6.194,-1.4154 -1.3958,0 -2.4177,0.1642 -3.047,0.4822 -0.6295,0.328 -0.9397,0.8204 -0.9397,1.4973 0,0.2151 0.0366,0.4306 0.1095,0.6253 0.0637,0.2052 0.2007,0.4102 0.3832,0.6358 0.1826,0.2154 0.4198,0.4411 0.6934,0.6769 0.2735,0.2257 0.9394,0.7589 2.0069,1.5999 1.0675,0.8408 1.8975,1.5381 2.4993,2.0818 0.9947,0.8818 1.7515,1.692 2.281,2.4406 0.5199,0.7588 0.9213,1.5588 1.1948,2.4097 0.2739,0.8513 0.4108,1.7433 0.4108,2.687 0,1.4252 -0.3104,2.7278 -0.9216,3.9172 -0.6111,1.1999 -1.5417,2.1946 -2.7822,2.9945 -1.2316,0.7999 -2.5727,1.3535 -4.0232,1.6716 -1.4414,0.3076 -2.9282,0.4615 -4.4609,0.4615 -1.0309,0 -2.3261,-0.1026 -3.886,-0.2974 -1.5599,-0.2052 -3.3661,-0.5539 -5.4371,-1.0564 z m 42.5472,-30.8878 c 2.2169,0 4.3424,0.3796 6.3859,1.1384 2.0435,0.7691 3.7675,1.8562 5.1723,3.2919 1.4142,1.4357 2.454,3.1071 3.1201,5.025 0.6659,1.9071 1.0032,3.9685 1.0032,6.1733 0,2.1432 -0.3007,4.1737 -0.8937,6.112 -0.6024,1.9279 -1.6147,3.7429 -3.0379,5.4349 -1.4324,1.6923 -3.2477,2.9639 -5.4462,3.8047 -2.1983,0.841 -4.5338,1.2614 -6.9968,1.2614 -2.2623,0 -4.4427,-0.3694 -6.5319,-1.1075 -2.0798,-0.7486 -3.8313,-1.8255 -5.2271,-3.2508 -1.4048,-1.4255 -2.4539,-3.1277 -3.1563,-5.1072 -0.7025,-1.9791 -1.0582,-4.0711 -1.0582,-6.245 0,-2.1844 0.3467,-4.2763 1.0309,-6.2555 0.684,-1.9791 1.7697,-3.7635 3.2656,-5.343 1.487,-1.5894 3.3298,-2.7995 5.5193,-3.6507 2.1986,-0.851 4.479,-1.2819 6.8508,-1.2819 z m -0.1823,8.8603 c -1.1401,0 -2.162,0.3282 -3.056,0.9845 -0.885,0.6667 -1.5599,1.6304 -2.0163,2.8919 -0.4561,1.2716 -0.684,2.656 -0.684,4.1533 0,2.1946 0.4927,3.8764 1.4686,5.0454 0.9853,1.169 2.2167,1.7535 3.6947,1.7535 1.1222,0 2.1348,-0.3385 3.0288,-1.0049 0.8847,-0.6667 1.5596,-1.6614 2.016,-2.9636 0.4561,-1.3127 0.684,-2.7074 0.684,-4.2149 0,-1.2305 -0.1823,-2.3485 -0.538,-3.3533 -0.3557,-0.9947 -0.9397,-1.7947 -1.7515,-2.3894 -0.8122,-0.6052 -1.7606,-0.9025 -2.8463,-0.9025 z m -272.3791,22.5813 c -1.9066,-0.0411 -3.494,-0.0615 -4.7622,-0.0615 -1.4318,0 -3.1652,0.0204 -5.1996,0.0615 l 0.155,-3.7941 c -0.6933,0.7588 -1.3045,1.3739 -1.8153,1.8456 -0.5201,0.472 -1.186,0.923 -1.9978,1.364 -0.8119,0.4411 -1.6784,0.7793 -2.6181,1.0256 -0.9306,0.2359 -1.8975,0.3589 -2.9013,0.3589 -1.7058,0 -3.3111,-0.3487 -4.7982,-1.0562 -1.487,-0.6973 -2.755,-1.6923 -3.8038,-2.9843 -1.0494,-1.2921 -1.8337,-2.8304 -2.3539,-4.5941 -0.5198,-1.7742 -0.7752,-3.6202 -0.7752,-5.5171 0,-2.7074 0.4742,-5.3532 1.423,-7.9373 0.9396,-2.5843 2.1804,-4.6148 3.7037,-6.0917 1.5327,-1.4867 3.2567,-2.5327 5.1727,-3.1481 1.9156,-0.6049 3.9954,-0.9128 6.2305,-0.9128 1.4777,0 3.2111,0.1438 5.1905,0.4309 0.1369,-2.3893 0.2189,-5.7325 0.2645,-10.0293 2.1895,0.0409 3.9776,0.0616 5.364,0.0616 1.7972,0 3.6034,-0.0207 5.4371,-0.0616 -0.5017,5.9477 -0.9484,13.2186 -1.332,21.8019 -0.3829,8.5731 -0.5836,14.9927 -0.5836,19.2381 z m -9.5148,-23.1964 c -0.9487,-0.2464 -1.8428,-0.3694 -2.6821,-0.3694 -1.7425,0 -3.2202,0.3796 -4.4334,1.1282 -1.2132,0.7486 -2.1529,1.9176 -2.8097,3.5172 -0.6477,1.5897 -0.976,3.1587 -0.976,4.697 0,1.169 0.1823,2.215 0.5471,3.138 0.3742,0.9332 0.9306,1.6716 1.6968,2.215 0.7572,0.5434 1.6056,0.8101 2.5359,0.8101 0.9856,0 1.8794,-0.3075 2.7006,-0.9331 0.8118,-0.6154 1.4686,-1.5282 1.9794,-2.7278 0.5108,-1.1999 0.8665,-2.6357 1.0491,-4.2866 0.1916,-1.6512 0.3195,-4.0507 0.3923,-7.1886 z"
       style="fill:url(#linearGradient5);fill-opacity:1;fill-rule:evenodd"
       id="path1" />
    <path
       d="m 240.7921,339.1537 c -0.4008,-7.4834 -0.8821,-13.4702 -1.4117,-17.9603 3.5292,1.7493 6.6895,2.9574 9.4485,3.6244 2.7589,0.6854 5.1814,1.0278 7.2504,1.0278 2.7593,0 4.9408,-0.4507 6.5611,-1.3524 1.6203,-0.9014 2.4381,-2.2178 2.4381,-3.9849 0,-0.5953 -0.0799,-1.1721 -0.2404,-1.7133 -0.1604,-0.559 -0.449,-1.1721 -0.8986,-1.8572 -0.449,-0.6855 -1.0746,-1.4247 -1.8927,-2.236 l -8.9189,-8.6737 c -2.0854,-1.9656 -3.5453,-3.3903 -4.3631,-4.2738 -1.6685,-1.8032 -2.9837,-3.4801 -3.9141,-5.031 -0.9306,-1.5508 -1.6044,-3.1198 -2.0372,-4.7245 -0.4332,-1.6049 -0.6418,-3.3001 -0.6418,-5.1032 0,-2.1458 0.3368,-4.2556 1.0106,-6.3113 0.6738,-2.0557 1.6843,-3.9852 3.0481,-5.7886 1.3473,-1.785 3.128,-3.3359 5.3736,-4.6344 2.2297,-1.3161 4.6037,-2.2 7.1544,-2.6688 2.5506,-0.4867 5.1653,-0.7212 7.8763,-0.7212 5.3096,0 11.0843,0.6852 17.3404,2.0557 0.0802,2.4344 0.1925,4.6522 0.3209,6.6719 0.1284,2.0197 0.4331,5.5721 0.8983,10.6393 -2.9033,-1.2983 -5.5503,-2.2 -7.9563,-2.7048 -2.3905,-0.5049 -4.4595,-0.7574 -6.192,-0.7574 -2.4543,0 -4.5077,0.5048 -6.1277,1.5327 -1.6203,1.0278 -2.4383,2.2901 -2.4383,3.8049 0,0.7033 0.1281,1.3884 0.3849,2.0557 0.2407,0.6673 0.722,1.4607 1.4117,2.3624 0.6899,0.8835 1.6041,1.8751 2.7431,2.9571 1.1389,1.0641 2.9194,2.6688 5.3577,4.7786 l 3.4007,3.0116 c 1.0106,0.9195 2.1014,2.0196 3.2724,3.3179 1.1551,1.3164 2.1656,2.5965 3.0157,3.8588 0.8663,1.2804 1.5081,2.4344 1.9732,3.4985 0.4493,1.0457 0.802,2.1099 1.0106,3.1918 0.2245,1.0817 0.3367,2.236 0.3367,3.4623 0,3.1737 -0.6738,6.1849 -2.0211,9.0521 -1.3476,2.8851 -3.2726,5.2475 -5.7427,7.0869 -2.4865,1.8573 -5.2135,3.1377 -8.181,3.877 -2.9679,0.7393 -6.0957,1.118 -9.3841,1.118 -5.0851,0 -11.5178,-0.8294 -19.2657,-2.4886 z M 298.4443,301.61 c 0.5935,-3.4623 0.9626,-5.8425 1.1228,-7.1589 0.1604,-1.2983 0.4172,-3.354 0.754,-6.1489 9.0153,-2.236 16.7629,-3.3543 23.2276,-3.3543 3.6899,0 7.0742,0.4689 10.1384,1.4066 3.0637,0.9198 5.4539,2.4344 7.1703,4.5082 1.7163,2.0738 2.5826,5.0491 2.5826,8.926 0,1.9656 -0.2407,6.4018 -0.7058,13.3081 -0.4652,6.8885 -0.8181,15.9406 -1.0588,27.1389 -3.0798,-0.072 -6.1438,-0.1083 -9.1754,-0.1083 -2.9517,0 -6.0957,0.0363 -9.4164,0.1083 0.4331,-3.8769 0.8985,-11.8834 1.4278,-24.0194 -1.1869,0.6492 -2.1175,1.118 -2.7913,1.3887 -0.6738,0.2883 -1.8448,0.7212 -3.5289,1.2983 -1.7005,0.5771 -3.016,1.0457 -3.9622,1.4426 -0.9465,0.3968 -1.7807,0.9017 -2.4866,1.5148 -0.7055,0.595 -1.203,1.226 -1.4916,1.8754 -0.305,0.631 -0.4493,1.3524 -0.4493,2.1458 0,1.2081 0.4332,2.2541 1.2833,3.1195 0.8501,0.8476 2.1977,1.2805 4.0583,1.2805 0.6577,0 1.3635,-0.0542 2.1337,-0.1803 0.754,-0.1265 1.7966,-0.415 3.1119,-0.9017 -0.9142,2.6688 -2.0053,6.5639 -3.2724,11.685 -2.6951,0.5048 -5.2455,0.7574 -7.6515,0.7574 -3.8821,0 -7.1223,-0.6132 -9.705,-1.8213 -2.5826,-1.2263 -4.572,-3.1918 -5.9675,-5.8966 -1.3955,-2.723 -2.0854,-5.4278 -2.0854,-8.1508 0,-1.6591 0.2568,-3.2819 0.7701,-4.8687 0.5131,-1.5869 1.3153,-3.1377 2.4222,-4.6526 1.0908,-1.5145 2.3741,-2.8128 3.8339,-3.8769 1.4757,-1.082 3.4809,-2.0917 6.0154,-3.0475 2.5506,-0.9556 5.7747,-1.8391 9.6888,-2.6867 1.6203,-0.3606 3.1122,-0.7393 4.4756,-1.1361 1.3474,-0.4147 2.3262,-0.7574 2.9036,-1.0639 0.5774,-0.3067 1.0426,-0.6491 1.3955,-1.046 0.3688,-0.4147 0.6256,-0.8294 0.7701,-1.2622 0.1602,-0.4507 0.2404,-0.9017 0.2404,-1.3884 0,-1.3524 -0.4972,-2.3984 -1.4916,-3.1196 -0.9946,-0.7395 -2.4706,-1.1001 -4.3957,-1.1001 -5.3733,0 -11.9984,1.6951 -19.8909,5.0851 z m 53.3692,38.6257 c 0.9142,-8.0064 1.6042,-16.8423 2.0852,-26.5257 0.4813,-9.6656 0.7861,-18.8261 0.8663,-27.4635 3.7698,0.072 7.0259,0.108 9.7531,0.108 3.1763,0 6.2241,-0.036 9.1435,-0.108 l -0.417,7.1949 c 1.0267,-1.2983 1.9088,-2.3261 2.6629,-3.0657 0.7537,-0.7571 1.6843,-1.4967 2.791,-2.2 1.123,-0.7211 2.294,-1.2982 3.5452,-1.7671 1.2513,-0.4507 2.6147,-0.8112 4.1066,-1.0638 1.4919,-0.2704 3.0478,-0.3969 4.6678,-0.3969 2.2459,0 4.4436,0.2707 6.5931,0.8116 2.1337,0.5411 3.9302,1.3164 5.3739,2.3261 1.4276,0.9918 2.6309,2.2363 3.6091,3.733 0.9627,1.4966 1.6044,3.1013 1.925,4.8146 0.305,1.713 0.4652,3.4982 0.4652,5.3195 0,1.3345 -0.1281,4.2378 -0.385,8.6737 l -0.786,19.1325 c -0.1602,3.7868 -0.2404,7.2671 -0.2404,10.4768 -3.1762,-0.072 -6.1279,-0.1083 -8.8872,-0.1083 -3.7375,0 -7.1382,0.0363 -10.2021,0.1083 0.2888,-3.2097 0.6097,-7.9704 0.9306,-14.2996 0.3206,-6.3295 0.4972,-10.7836 0.4972,-13.3623 0,-3.9671 -0.6897,-6.726 -2.0535,-8.295 -1.3634,-1.5687 -3.0957,-2.3442 -5.1652,-2.3442 -1.8287,0 -3.5451,0.6672 -5.1653,2.0018 -1.62,1.3524 -2.8554,3.2819 -3.7375,5.8425 -0.8824,2.5605 -1.508,6.762 -1.8607,12.6045 -0.369,5.8428 -0.6094,11.7933 -0.7378,17.8523 -3.1281,-0.072 -6.1923,-0.1083 -9.1758,-0.1083 -3.128,0 -6.5287,0.0363 -10.2022,0.1083 z m 100.9316,-15.4718 c -0.5613,2.9571 -1.0588,5.8604 -1.4599,8.6916 l -1.0426,6.4556 c -3.1118,0.7393 -5.5343,1.2263 -7.2666,1.4245 -1.7484,0.1984 -3.433,0.3067 -5.0692,0.3067 -2.6628,0 -5.0368,-0.2526 -7.1061,-0.7753 -2.0693,-0.5051 -3.8019,-1.4428 -5.1812,-2.7953 -1.3796,-1.3524 -2.3264,-2.9211 -2.8236,-4.6703 -0.4972,-1.7671 -0.7537,-3.6425 -0.7537,-5.6081 0,-0.3605 0.0158,-0.9737 0.0479,-1.8754 0.0323,-0.9017 0.1445,-2.9032 0.3211,-6.0049 l 1.0265,-18.303 h -7.363 c 0.1604,-2.4344 0.305,-5.6259 0.4172,-9.5933 l 0.1443,-4.9048 h 7.8123 c 0.1922,-1.6228 0.4329,-5.1573 0.7055,-10.603 l 8.0527,-1.8754 c 1.476,-0.3246 4.6199,-1.1361 9.4323,-2.4525 -0.2245,4.6165 -0.385,9.5933 -0.4652,14.9309 h 10.6676 c -0.2568,7.3032 -0.369,12.136 -0.369,14.4981 h -10.7796 l -0.5616,13.2361 c -0.064,1.9655 -0.0963,3.2278 -0.0963,3.8046 0,1.6952 0.1604,3.1017 0.4972,4.2378 0.3211,1.118 0.9144,1.9293 1.7487,2.4344 0.8339,0.4867 1.7484,0.7393 2.7589,0.7393 0.754,0 1.5401,-0.0541 2.3582,-0.1803 0.818,-0.1264 2.2617,-0.487 4.3472,-1.118 z M 463.1236,301.61 c 0.5935,-3.4623 0.9623,-5.8425 1.1228,-7.1589 0.1604,-1.2983 0.4172,-3.354 0.754,-6.1489 9.0153,-2.236 16.7629,-3.3543 23.2276,-3.3543 3.6896,0 7.0742,0.4689 10.1384,1.4066 3.0637,0.9198 5.4539,2.4344 7.1703,4.5082 1.7163,2.0738 2.5826,5.0491 2.5826,8.926 0,1.9656 -0.2407,6.4018 -0.7058,13.3081 -0.4652,6.8885 -0.8181,15.9406 -1.0588,27.1389 -3.0798,-0.072 -6.1438,-0.1083 -9.1757,-0.1083 -2.9514,0 -6.0953,0.0363 -9.4161,0.1083 0.4331,-3.8769 0.8985,-11.8834 1.4278,-24.0194 -1.1869,0.6492 -2.1175,1.118 -2.7913,1.3887 -0.6738,0.2883 -1.8448,0.7212 -3.5291,1.2983 -1.7003,0.5771 -3.0158,1.0457 -3.962,1.4426 -0.9465,0.3968 -1.7807,0.9017 -2.4866,1.5148 -0.7058,0.595 -1.203,1.226 -1.4916,1.8754 -0.305,0.631 -0.4495,1.3524 -0.4495,2.1458 0,1.2081 0.4334,2.2541 1.2835,3.1195 0.8501,0.8476 2.1977,1.2805 4.0584,1.2805 0.6576,0 1.3634,-0.0542 2.1336,-0.1803 0.754,-0.1265 1.7966,-0.415 3.1119,-0.9017 -0.9142,2.6688 -2.0053,6.5639 -3.2723,11.685 -2.6952,0.5048 -5.2456,0.7574 -7.6516,0.7574 -3.8821,0 -7.1223,-0.6132 -9.705,-1.8213 -2.5826,-1.2263 -4.572,-3.1918 -5.9675,-5.8966 -1.3955,-2.723 -2.0854,-5.4278 -2.0854,-8.1508 0,-1.6591 0.2568,-3.2819 0.7701,-4.8687 0.5131,-1.5869 1.3153,-3.1377 2.422,-4.6526 1.091,-1.5145 2.3743,-2.8128 3.8341,-3.8769 1.4757,-1.082 3.481,-2.0917 6.0154,-3.0475 2.5506,-0.9556 5.7748,-1.8391 9.6888,-2.6867 1.6203,-0.3606 3.1122,-0.7393 4.4757,-1.1361 1.3473,-0.4147 2.3261,-0.7574 2.9035,-1.0639 0.5774,-0.3067 1.0426,-0.6491 1.3955,-1.046 0.3688,-0.4147 0.6256,-0.8294 0.7701,-1.2622 0.1602,-0.4507 0.2404,-0.9017 0.2404,-1.3884 0,-1.3524 -0.4972,-2.3984 -1.4918,-3.1196 -0.9944,-0.7395 -2.4704,-1.1001 -4.3954,-1.1001 -5.3734,0 -11.9985,1.6951 -19.891,5.0851 z m 70.02,38.6257 3.8982,-7.6096 24.2861,-51.501 2.5826,-5.7523 c 0.754,-1.6951 1.7969,-4.1295 3.1445,-7.3032 5.5179,0.0723 9.5442,0.1083 12.0787,0.1083 4.4113,0 8.502,-0.036 12.2717,-0.1083 l 6.8494,22.0538 13.972,42.3944 2.7272,7.7179 c -5.4221,-0.072 -8.7106,-0.1083 -9.8654,-0.1083 -2.6309,0 -6.5129,0.0363 -11.6139,0.1083 -1.3796,-5.8246 -3.3687,-12.6768 -5.9833,-20.5571 h -23.6608 c -2.7111,6.2212 -5.5182,13.0737 -8.4217,20.5571 -5.8389,-0.072 -9.4162,-0.1083 -10.7317,-0.1083 -2.3899,0 -6.2238,0.0363 -11.5336,0.1083 z m 36.3656,-35.9206 h 14.5973 c -3.6414,-12.4245 -5.6304,-19.277 -5.9834,-20.5393 -2.0531,5.1755 -3.8018,9.413 -5.2452,12.731 z m 49.7758,35.9206 0.8343,-11.3785 1.8124,-39.5272 0.5134,-21.2604 c 4.3472,0.0723 7.6195,0.1083 9.8172,0.1083 2.8557,0 5.9996,-0.036 9.4482,-0.1083 l -1.0585,16.2292 -1.7163,39.9781 -0.3691,15.9588 c -3.3687,-0.036 -6.3845,-0.0541 -9.0794,-0.0541 z m 32.5798,-60.6974 c 0.1924,-4.1837 0.2885,-7.4835 0.2885,-9.9179 0,-0.7032 -0.0161,-1.6591 -0.0482,-2.8491 3.786,0.072 6.946,0.1083 9.5128,0.1083 3.5289,0 6.6249,-0.0363 9.2875,-0.1083 -0.0959,1.082 -0.1602,2.0016 -0.1922,2.7409 l -0.2727,6.5457 c -0.0644,0.974 -0.0964,2.1461 -0.0964,3.4804 -3.096,-0.072 -6.0633,-0.1083 -8.9189,-0.1083 -2.9353,0 -6.1277,0.0363 -9.5604,0.1083 z m -2.9838,60.6974 c 0.4331,-4.3098 0.7537,-7.844 0.9624,-10.6211 0.2248,-2.795 0.4331,-6.3474 0.6256,-10.6934 0.2086,-4.3277 0.3849,-9.1245 0.5295,-14.3717 0.1604,-5.2656 0.2888,-11.3607 0.3691,-18.303 4.0742,0.072 7.3306,0.108 9.7687,0.108 2.23,0 5.4221,-0.036 9.593,-0.108 -0.5136,6.6538 -0.8824,12.5144 -1.091,17.5635 -0.2245,5.0312 -0.3688,10.3688 -0.4332,16.0129 -0.1122,10.008 -0.1763,16.8244 -0.1763,20.4128 -3.7377,-0.072 -6.946,-0.1083 -9.6568,-0.1083 -2.6631,0 -6.1599,0.0363 -10.491,0.1083 z m 70.357,-16.8783 c -0.1604,1.4065 -0.5292,4.0031 -1.1069,7.772 l -1.2033,8.4572 c -4.9243,1.3705 -9.7529,2.0557 -14.453,2.0557 -3.4166,0 -6.4162,-0.3969 -8.9989,-1.154 -3.0322,-0.9199 -5.7753,-2.5427 -8.1813,-4.8688 -2.4863,-2.3984 -4.2829,-5.2296 -5.4218,-8.5113 -1.3474,-3.841 -2.0211,-8.1329 -2.0211,-12.8934 0,-4.3639 0.6576,-8.5654 1.9732,-12.6227 1.3152,-4.0575 3.2723,-7.3933 5.8388,-10.008 2.5667,-2.6328 5.4218,-4.3821 8.566,-5.2835 3.128,-0.9017 6.5928,-1.3527 10.3946,-1.3527 2.2139,0 4.4595,0.1265 6.7212,0.3969 2.2618,0.2704 5.0531,0.8654 8.3736,1.7671 l 0.0964,1.2081 c 0.0802,1.2623 0.1604,2.5609 0.2086,3.8773 0.032,1.3161 0.144,3.3899 0.2886,6.239 l 0.2727,4.6885 c -4.4754,-1.7311 -8.4377,-2.5968 -11.8866,-2.5968 -2.4704,0 -4.6519,0.5411 -6.5128,1.605 -1.8607,1.0638 -3.2403,2.6147 -4.1386,4.6343 -0.8822,2.0197 -1.3312,4.364 -1.3312,7.0328 0,2.7048 0.4008,4.9589 1.203,6.7802 0.802,1.8394 2.0693,3.2097 3.8339,4.1114 1.7484,0.9198 3.6734,1.3705 5.7747,1.3705 1.0747,0 2.3259,-0.1261 3.7857,-0.3787 1.4599,-0.2344 2.7272,-0.523 3.8177,-0.8116 1.0749,-0.3064 2.4384,-0.8112 4.1068,-1.5145 z m 55.23,0.9737 c -0.4011,2.1098 -1.171,7.1949 -2.31,15.2555 -3.6411,0.8294 -6.7053,1.3705 -9.1916,1.641 -2.4862,0.2704 -4.9887,0.4147 -7.5393,0.4147 -3.7375,0 -7.1864,-0.2886 -10.3144,-0.8657 -3.1442,-0.5769 -5.8553,-1.6229 -8.1332,-3.1014 -2.2776,-1.4607 -4.1865,-3.3001 -5.7265,-5.5001 -1.5398,-2.2 -2.7111,-4.8146 -3.513,-7.844 -0.8022,-3.0294 -1.2033,-6.1492 -1.2033,-9.341 0,-4.508 0.8022,-8.926 2.4063,-13.2358 1.588,-4.3098 3.6573,-7.6819 6.1759,-10.0982 2.5344,-2.4344 5.438,-4.1655 8.7264,-5.1752 3.2885,-1.0278 6.6731,-1.533 10.122,-1.533 3.5611,0 6.9777,0.4689 10.2183,1.4066 3.2562,0.9198 5.9993,2.5608 8.2613,4.8688 2.2618,2.3264 3.8659,4.941 4.8282,7.8621 0.9465,2.9214 1.4279,6.077 1.4279,9.4491 0,2.0196 -0.1928,4.2378 -0.5775,6.7081 l -33.061,0.0542 c -0.032,0.559 -0.0482,1.0638 -0.0482,1.5327 0,3.7868 1.2192,6.582 3.6414,8.3851 2.4222,1.7853 5.3736,2.687 8.8707,2.687 2.0693,0 4.4436,-0.2707 7.1065,-0.8116 2.6467,-0.5411 5.9352,-1.4606 9.8331,-2.7589 z m -29.0347,-17.0949 h 15.5599 c 0.0321,-0.595 0.0482,-1.0999 0.0482,-1.5327 0,-1.8213 -0.2885,-3.3902 -0.866,-4.6885 -0.5935,-1.2983 -1.4278,-2.236 -2.5027,-2.831 -1.0907,-0.5952 -2.3096,-0.9017 -3.6572,-0.9017 -0.9465,0 -1.8448,0.1622 -2.7272,0.5049 -0.8819,0.3245 -1.6841,0.8294 -2.3899,1.4785 -0.7059,0.6494 -1.2994,1.3887 -1.7646,2.2363 -0.4655,0.8294 -0.8181,1.6588 -1.0429,2.4344 -0.2083,0.7934 -0.4328,1.8932 -0.6576,3.2998 z"
       style="opacity:1;fill:url(#linearGradient6);fill-rule:evenodd"
       id="path2" />
    <g
       id="Layer1001">
      <path
         d="m 249.8939,366.5871 -2.3094,19.0812 c -0.0559,0.4929 -0.0836,0.8886 -0.0836,1.2007 0,1.2218 0.7273,1.9576 2.1829,2.2006 0.896,0.1525 1.3439,0.333 1.3439,0.5482 0,0.2985 -0.3501,0.4513 -1.0499,0.4513 -0.1888,0 -0.4128,-0.0139 -0.6577,-0.0349 -0.917,-0.1179 -1.9244,-0.1735 -3.0231,-0.1735 -0.8887,0 -1.6725,0.0349 -2.3443,0.0973 l -0.6159,0.0555 c -0.3428,0.0346 -0.5667,0.0556 -0.6577,0.0556 -0.5108,0 -0.7628,-0.1389 -0.7628,-0.4235 0,-0.2152 0.2381,-0.3957 0.7206,-0.5344 1.0919,-0.2707 1.7008,-0.9093 1.8405,-1.9088 l 0.1191,-1.0551 2.4213,-19.7197 c 0.07,-0.5137 0.1049,-0.9162 0.1049,-1.2147 0,-1.2078 -0.6437,-1.9295 -1.9315,-2.1725 -0.7838,-0.1527 -1.1755,-0.3401 -1.1755,-0.5692 0,-0.2846 0.21,-0.4303 0.6369,-0.4303 0.3427,0 0.8745,0.0485 1.6024,0.1457 0.686,0.0973 1.4695,0.1457 2.3443,0.1457 1.0148,0 2.1761,-0.0484 3.492,-0.1457 1.1545,-0.0972 2.0154,-0.1457 2.5891,-0.1457 2.0855,0 3.7579,0.6038 5.0245,1.8117 1.2665,1.2007 1.9034,2.7901 1.9034,4.7684 0,1.777 -0.525,3.4149 -1.5814,4.9212 -1.0568,1.4993 -2.4143,2.5404 -4.0729,3.1096 -0.8886,0.3124 -2.0154,0.4652 -3.3729,0.4652 -0.5737,0 -0.9587,-0.0139 -1.1477,-0.0417 l -0.7628,-0.1043 c -0.6999,-0.083 -1.0426,-0.2497 -1.0285,-0.4997 0.0136,-0.1803 0.1817,-0.2707 0.5179,-0.2707 h 0.3286 l 1.6027,0.0416 c 1.7076,0 3.1909,-0.7149 4.4645,-2.1379 1.2666,-1.4227 1.9035,-3.0886 1.9035,-4.9974 0,-1.6311 -0.6157,-3.0124 -1.8402,-4.1508 -1.232,-1.1384 -2.7224,-1.7076 -4.493,-1.7076 -0.7976,0 -1.3226,0.1874 -1.5814,0.5692 -0.252,0.3818 -0.4689,1.3051 -0.6508,2.7694 z m 17.0328,12.0569 2.9041,3.1164 c 0.9167,0.9927 1.3714,2.1728 1.3714,3.547 0,1.3675 -0.5457,2.5336 -1.6444,3.4915 -1.0916,0.9578 -2.4211,1.4366 -3.9957,1.4366 -1.19,0 -2.2045,-0.243 -3.0512,-0.7288 -0.8397,-0.4788 -1.2598,-1.0619 -1.2598,-1.749 0,-0.847 0.4201,-1.2702 1.253,-1.2702 0.4827,0 0.9377,0.3399 1.3504,1.0202 l 0.4269,0.7497 c 0.3778,0.6523 0.9306,0.9786 1.6585,0.9786 0.7977,0 1.4837,-0.2569 2.0716,-0.7705 0.5873,-0.5136 0.8816,-1.1174 0.8816,-1.8116 0,-1.1106 -0.546,-2.228 -1.6376,-3.3664 l -2.2884,-2.3599 c -1.0497,-1.0899 -1.5747,-2.249 -1.5747,-3.4843 0,-1.319 0.4482,-2.3463 1.3507,-3.0889 0.8961,-0.7427 2.1345,-1.1107 3.7089,-1.1107 2.1974,0 3.2961,0.6387 3.2961,1.9228 0,0.8538 -0.4269,1.2841 -1.2807,1.2841 -0.4266,0 -0.7837,-0.2084 -1.0706,-0.6316 l -0.4479,-0.6386 c -0.4269,-0.6248 -0.9867,-0.9372 -1.7002,-0.9372 -1.169,0 -1.7569,0.6316 -1.7569,1.895 0,0.6455 0.4759,1.4854 1.4349,2.5058 z m 9.8039,2.9707 0.8538,-5.0252 c 0.07,-0.368 0.1049,-0.6942 0.1049,-0.9927 0,-0.5414 -0.3989,-0.8121 -1.2036,-0.8121 h -1.1055 c -0.6021,0 -0.8961,-0.1389 -0.8822,-0.4235 0.0142,-0.326 0.3081,-0.4927 0.8748,-0.4927 1.2458,0 2.4565,-0.1111 3.6249,-0.3402 0.4479,-0.0762 0.7909,-0.1179 1.0358,-0.1179 0.2869,0 0.4269,0.1596 0.4269,0.4859 l -0.021,0.2219 -1.1128,5.6087 c -0.5599,2.7762 -0.8397,4.8863 -0.8397,6.3371 0,0.8121 0.2098,1.2285 0.637,1.2563 0.6225,0.0417 1.2316,-0.5275 1.8402,-1.6937 0.1471,-0.3124 0.315,-0.472 0.4899,-0.472 0.2171,0 0.322,0.1457 0.3081,0.4303 -0.0559,0.8816 -0.5808,1.8533 -1.5886,2.9016 -1.0009,1.055 -1.8966,1.5826 -2.6801,1.5826 -0.413,0 -0.7486,-0.2985 -1.0077,-0.9026 -0.2588,-0.6038 -0.3921,-1.3742 -0.3921,-2.3182 0,-1.0689 0.2101,-2.8111 0.637,-5.2336 z m 3.5059,-16.5336 c 0.1258,0.0139 0.2378,0.1386 0.3501,0.3679 0.2168,0.4233 0.3568,0.6662 0.4124,0.7356 l 0.4481,0.6733 c 0.1259,0.1737 0.1891,0.3123 0.1891,0.4096 0,0.1179 -0.1051,0.2778 -0.3081,0.4651 -0.301,0.3053 -0.6647,0.7149 -1.0916,1.2493 -0.1678,0.2012 -0.3147,0.3055 -0.455,0.3055 -0.1607,0 -0.3078,-0.1321 -0.4337,-0.3889 -0.2869,-0.5967 -0.5389,-1.0411 -0.756,-1.3257 -0.1258,-0.1803 -0.1888,-0.3192 -0.1888,-0.4303 0,-0.1457 0.07,-0.2985 0.203,-0.451 l 0.5805,-0.5902 c 0.07,-0.0695 0.2449,-0.2914 0.5321,-0.6732 0.21,-0.243 0.3781,-0.3609 0.5179,-0.347 z m 15.7521,19.7821 c -1.1965,1.8117 -2.393,3.1165 -3.5688,3.9218 -1.1826,0.7982 -2.4911,1.2007 -3.9257,1.2007 -1.2178,0 -2.1906,-0.4096 -2.9322,-1.2285 -0.7347,-0.8192 -1.1058,-1.9159 -1.1058,-3.2831 0,-2.8182 1.1339,-5.5599 3.4013,-8.2253 2.2743,-2.6722 4.6043,-4.0051 6.9976,-4.0051 0.9236,0 1.6934,0.1457 2.2955,0.4442 0.2308,0.1112 0.4057,0.1735 0.5318,0.1874 0.2588,0.0278 0.5037,-0.2081 0.7347,-0.6939 l 0.9029,-1.7422 c 0.2168,-0.4096 0.4337,-0.6109 0.6366,-0.6109 0.2449,0 0.3711,0.1248 0.3711,0.368 0,0.1596 -0.0493,0.3608 -0.14,0.6038 -0.1681,0.4442 -0.3011,1.1245 -0.413,2.0267 l -0.1611,1.3604 -0.2029,1.4369 -2.1274,17.2485 c -0.042,0.3263 -0.0627,0.5692 -0.0627,0.7359 0,0.4997 0.0975,0.8328 0.2869,1.0134 0.1888,0.1734 0.5737,0.2846 1.1614,0.3401 l 0.5669,0.0624 c 0.4759,0.0416 0.7137,0.2083 0.7137,0.4929 0,0.3053 -0.1958,0.4649 -0.5947,0.4649 -0.0841,0 -0.259,-0.0136 -0.532,-0.0346 -0.9026,-0.0901 -1.8751,-0.1318 -2.9109,-0.1318 -0.9306,0 -1.7147,0.0278 -2.3443,0.0833 l -0.595,0.0485 -0.3078,0.021 c -0.133,0.007 -0.2381,0.0136 -0.3081,0.0136 -0.3147,0 -0.4686,-0.1318 -0.4686,-0.3886 0,-0.2152 0.3711,-0.4164 1.1126,-0.6109 0.6718,-0.1803 1.1336,-0.4232 1.3997,-0.7427 0.2588,-0.3191 0.4267,-0.8399 0.5108,-1.5616 z m 0.6579,-5.2129 0.224,-1.8184 0.0978,-1.0205 c 0.028,-0.3123 0.0422,-0.5204 0.0422,-0.6315 0,-0.5276 -0.2659,-0.9856 -0.8048,-1.3675 -0.5388,-0.3818 -1.1758,-0.5692 -1.9105,-0.5692 -1.4976,0 -2.939,0.8261 -4.3107,2.4849 -0.8047,0.9856 -1.4765,2.2005 -2.0222,3.651 -0.546,1.4579 -0.8189,2.7766 -0.8189,3.9634 0,1.1801 0.2659,2.1101 0.8047,2.7904 0.5389,0.6804 1.2807,1.0202 2.2184,1.0202 1.4834,0 2.9322,-0.9022 4.3316,-2.7139 1.1336,-1.4507 1.8477,-3.3871 2.1484,-5.7889 z m 17.621,1.9437 c -1.7356,2.6513 -3.0931,4.4839 -4.0799,5.5112 -0.7415,0.7565 -1.5675,1.423 -2.4913,1.9851 -0.9236,0.5692 -1.6373,0.8538 -2.1413,0.8538 -0.4405,0 -0.7906,-0.2291 -1.0636,-0.6804 -0.273,-0.458 -0.413,-1.0411 -0.413,-1.7628 0,-1.0829 0.1681,-2.4781 0.4969,-4.1857 l 0.8328,-4.2063 c 0.203,-1.0341 0.3079,-1.7629 0.3079,-2.2002 0,-0.5137 -0.1469,-0.7773 -0.434,-0.7912 -0.2588,-0.0139 -0.5737,0.1735 -0.9448,0.555 -0.3705,0.3819 -0.6715,0.847 -0.8884,1.3814 -0.2029,0.458 -0.4269,0.6874 -0.6579,0.6874 -0.2588,0 -0.3918,-0.1599 -0.3918,-0.4862 0,-1.0686 0.4686,-2.1515 1.4066,-3.2482 0.9377,-1.0899 1.8754,-1.6381 2.806,-1.6381 1.0846,0 1.6237,0.8538 1.6237,2.5543 0,0.4373 -0.042,0.8954 -0.1193,1.3813 l -1.1546,7.0035 c -0.0207,0.2291 -0.07,0.5621 -0.14,1.0134 l -0.0978,0.8884 c -0.0281,0.2222 -0.042,0.4164 -0.042,0.5902 0,0.5689 0.203,0.8535 0.6089,0.8535 0.4547,0 1.1336,-0.451 2.0503,-1.3536 0.9167,-0.909 1.8544,-2.0545 2.8063,-3.4426 1.7283,-2.5127 2.967,-5.2198 3.7298,-8.121 0.1401,-0.4998 0.2798,-0.826 0.4337,-0.9788 0.154,-0.1457 0.413,-0.222 0.7838,-0.222 0.7277,0 1.0919,0.2775 1.0919,0.8329 0,0.1527 -0.0212,0.3262 -0.0632,0.5136 l -1.0287,4.7338 c -0.6718,3.0541 -1.0074,5.3516 -1.0074,6.8718 0,0.6661 0.2727,0.9995 0.8186,0.9995 0.8048,0 1.6093,-0.7498 2.414,-2.2419 0.1752,-0.3402 0.3643,-0.5069 0.5669,-0.5069 0.2659,0 0.3992,0.1457 0.3992,0.4442 0,0.9788 -0.6299,2.0339 -1.8825,3.1791 -1.2527,1.1384 -2.4285,1.7076 -3.5201,1.7076 -0.9306,0 -1.3995,-0.7081 -1.3995,-2.124 0,-1.069 0.133,-2.3531 0.3918,-3.8455 l 0.2171,-1.1591 c 0.042,-0.229 0.0978,-0.6803 0.1749,-1.3465 z m 10.3779,0.0207 0.8536,-5.0252 c 0.07,-0.368 0.1048,-0.6942 0.1048,-0.9927 0,-0.5414 -0.3985,-0.8121 -1.2033,-0.8121 h -1.1058 c -0.6018,0 -0.896,-0.1389 -0.8818,-0.4235 0.0139,-0.326 0.3081,-0.4927 0.8748,-0.4927 1.2455,0 2.4562,-0.1111 3.6246,-0.3402 0.4479,-0.0762 0.7909,-0.1179 1.0358,-0.1179 0.2869,0 0.4269,0.1596 0.4269,0.4859 l -0.0207,0.2219 -1.1129,5.6087 c -0.5598,2.7762 -0.8396,4.8863 -0.8396,6.3371 0,0.8121 0.2098,1.2285 0.6367,1.2563 0.6227,0.0417 1.2316,-0.5275 1.8405,-1.6937 0.1468,-0.3124 0.3149,-0.472 0.4898,-0.472 0.2169,0 0.3218,0.1457 0.3081,0.4303 -0.0561,0.8816 -0.5811,1.8533 -1.5888,2.9016 -1.0009,1.055 -1.8964,1.5826 -2.6801,1.5826 -0.4128,0 -0.7487,-0.2985 -1.0075,-0.9026 -0.2591,-0.6038 -0.3923,-1.3742 -0.3923,-2.3182 0,-1.0689 0.2101,-2.8111 0.6372,-5.2336 z m 3.5057,-16.5336 c 0.1261,0.0139 0.2381,0.1386 0.35,0.3679 0.2169,0.4233 0.3569,0.6662 0.4128,0.7356 l 0.4481,0.6733 c 0.1256,0.1737 0.1888,0.3123 0.1888,0.4096 0,0.1179 -0.1052,0.2778 -0.3081,0.4651 -0.3008,0.3053 -0.6647,0.7149 -1.0916,1.2493 -0.1679,0.2012 -0.3147,0.3055 -0.4547,0.3055 -0.161,0 -0.3081,-0.1321 -0.434,-0.3889 -0.2869,-0.5967 -0.5389,-1.0411 -0.7557,-1.3257 -0.1262,-0.1803 -0.1891,-0.3192 -0.1891,-0.4303 0,-0.1457 0.07,-0.2985 0.203,-0.451 l 0.5808,-0.5902 c 0.07,-0.0695 0.2449,-0.2914 0.5318,-0.6732 0.21,-0.243 0.3781,-0.3609 0.5179,-0.347 z m 14.8427,20.5316 c -2.3723,3.0819 -4.8078,4.6228 -7.3057,4.6228 -1.0009,0 -1.8125,-0.3816 -2.4494,-1.1381 -0.637,-0.7566 -0.9519,-1.7425 -0.9519,-2.9433 0,-1.6032 0.3849,-3.3037 1.1478,-5.1154 0.7628,-1.8048 1.7563,-3.3664 2.9741,-4.6783 1.8124,-1.9366 3.7159,-2.9083 5.6962,-2.9083 0.6928,0 1.4627,0.1318 2.2955,0.3954 0.301,0.0973 0.5459,0.146 0.7347,0.146 0.3986,0 0.8884,-0.472 1.4695,-1.4091 0.301,-0.4652 0.5389,-0.6871 0.7067,-0.6732 0.1749,0.0139 0.2591,0.1457 0.2591,0.3886 0,0.104 -0.021,0.222 -0.063,0.347 -0.028,0.0904 -0.1119,0.4719 -0.2661,1.1384 l -0.4757,2.2212 c -0.2871,1.2702 -0.5669,2.9083 -0.8396,4.9073 -0.273,1.9922 -0.413,3.3594 -0.413,4.0882 0,1.6869 0.2656,2.5268 0.7976,2.5268 0.2801,0 0.6299,-0.2223 1.0636,-0.6736 0.4269,-0.4441 0.7628,-0.93 0.9941,-1.4436 0.1888,-0.451 0.3986,-0.6733 0.6154,-0.6733 0.231,0 0.3501,0.1389 0.3501,0.4235 0,0.8677 -0.5457,1.9018 -1.6305,3.1026 -1.0919,1.2007 -2.0154,1.8048 -2.7782,1.8048 -0.5386,0 -0.9309,-0.3056 -1.1897,-0.9162 -0.2659,-0.6109 -0.5108,-1.7909 -0.7416,-3.5402 z m -0.8679,-11.2861 c -1.4415,0 -2.8131,0.8121 -4.1148,2.4364 -0.8606,1.0689 -1.5883,2.4224 -2.1833,4.0535 -0.5947,1.6311 -0.8957,3.0818 -0.8957,4.352 0,2.02 0.9028,3.0263 2.7153,3.0263 1.1477,0 2.3162,-0.6106 3.5059,-1.8394 1.1897,-1.2285 1.8754,-2.5265 2.0503,-3.894 0.0981,-0.7565 0.203,-1.3949 0.3149,-1.9085 l 0.3782,-1.8255 c 0.2236,-1.0137 0.3846,-1.6937 0.4824,-2.0478 0.0981,-0.3818 0.1471,-0.7149 0.1471,-1.0134 0,-0.3401 -0.252,-0.6454 -0.7557,-0.9232 -0.5037,-0.2775 -1.0496,-0.4164 -1.6446,-0.4164 z m 14.8776,1.6449 -1.0706,8.2253 c -0.042,0.3748 -0.0633,0.7844 -0.0633,1.2147 0,0.6525 0.1613,1.2007 0.4899,1.6313 0.3291,0.4371 0.7421,0.6523 1.2319,0.6523 0.8748,0 1.7844,-0.4998 2.7292,-1.5061 0.2588,-0.2707 0.4757,-0.4096 0.6647,-0.4096 0.2308,0 0.343,0.1111 0.343,0.3263 0,0.7426 -0.6369,1.5826 -1.9034,2.5336 -1.2666,0.9507 -2.3933,1.4298 -3.3801,1.4298 -0.7838,0 -1.4136,-0.3612 -1.8896,-1.0761 -0.4827,-0.7217 -0.7205,-1.652 -0.7205,-2.804 0,-0.5275 0.0487,-1.2007 0.14,-2.0129 l 0.9584,-7.7604 c 0.0352,-0.3121 0.0771,-0.5621 0.1191,-0.7566 0.0141,-0.104 0.0209,-0.1941 0.0209,-0.2636 -0.0139,-0.2985 -0.2449,-0.4442 -0.6998,-0.4442 h -1.1546 c -0.3149,0 -0.4759,-0.1179 -0.4759,-0.3472 0,-0.2707 0.2871,-0.5621 0.8677,-0.8606 1.4978,-0.805 2.6872,-1.9018 3.5832,-3.3041 0.2169,-0.3537 0.4479,-0.5275 0.6786,-0.5275 0.3011,0 0.4547,0.1321 0.4547,0.3889 0,0.1318 -0.0416,0.3263 -0.1187,0.5692 -0.0281,0.097 -0.0981,0.3538 -0.203,0.7705 l -0.14,0.6732 -0.1188,0.5343 c -0.0281,0.1182 -0.0422,0.2152 -0.0422,0.2846 0,0.3263 0.2729,0.4859 0.826,0.4859 h 0.1817 l 2.8202,-0.0831 c 0.4688,0 0.6998,0.1803 0.6998,0.5344 0,0.5899 -0.3498,0.8815 -1.0496,0.8815 L 358.34,374.847 h -0.2868 c -0.385,0 -0.6441,0.0695 -0.7696,0.2084 -0.1333,0.1318 -0.2243,0.4374 -0.2801,0.9161 z m 11.4766,1.6104 c 1.4976,-2.7833 3.079,-4.1715 4.7447,-4.1715 0.9515,0 1.4275,0.3263 1.4275,0.9717 0,0.1667 -0.042,0.3748 -0.1262,0.6316 -0.098,0.2985 -0.1536,0.4859 -0.1678,0.5624 l -0.252,0.9785 c -0.098,0.4442 -0.3007,0.6732 -0.6157,0.6871 -0.1678,0.0139 -0.3078,-0.1386 -0.4339,-0.451 -0.3079,-0.7843 -0.7906,-1.1729 -1.4415,-1.1729 -0.6366,0 -1.1826,0.6939 -1.6446,2.0752 -0.4618,1.3881 -0.8745,3.5816 -1.2314,6.594 l -0.574,4.7616 -0.021,0.229 c -0.0558,0.5276 -0.4898,0.7915 -1.3016,0.7915 -0.7277,0 -1.0917,-0.2152 -1.0917,-0.6526 0,-0.0972 0.007,-0.2151 0.021,-0.3679 l 0.9867,-7.9546 c 0.0562,-0.451 0.084,-0.9924 0.084,-1.631 0,-2.0061 -0.4689,-3.0124 -1.3995,-3.0124 -0.413,0 -0.7906,0.229 -1.1336,0.6803 -0.343,0.451 -0.5598,1.0063 -0.6579,1.6588 -0.07,0.5205 -0.231,0.7844 -0.4898,0.7844 -0.315,0 -0.476,-0.3263 -0.476,-0.9788 0,-1.3813 0.3498,-2.5195 1.0497,-3.4149 0.3291,-0.4164 0.7276,-0.7983 1.2107,-1.1384 0.4759,-0.3402 0.8609,-0.5066 1.1477,-0.5066 0.8958,0 1.6864,1.3465 2.3862,4.0465 z m 9.4544,4.0328 0.8535,-5.0252 c 0.07,-0.368 0.1049,-0.6942 0.1049,-0.9927 0,-0.5414 -0.3985,-0.8121 -1.2033,-0.8121 h -1.1058 c -0.6018,0 -0.8957,-0.1389 -0.8818,-0.4235 0.0138,-0.326 0.3081,-0.4927 0.8747,-0.4927 1.2459,0 2.4562,-0.1111 3.625,-0.3402 0.4478,-0.0762 0.7906,-0.1179 1.0355,-0.1179 0.2871,0 0.4271,0.1596 0.4271,0.4859 l -0.0209,0.2219 -1.1129,5.6087 c -0.5599,2.7762 -0.8396,4.8863 -0.8396,6.3371 0,0.8121 0.2097,1.2285 0.6366,1.2563 0.6228,0.0417 1.232,-0.5275 1.8406,-1.6937 0.1468,-0.3124 0.3149,-0.472 0.4898,-0.472 0.2168,0 0.3217,0.1457 0.3081,0.4303 -0.0561,0.8816 -0.5811,1.8533 -1.5888,2.9016 -1.0006,1.055 -1.8964,1.5826 -2.6799,1.5826 -0.413,0 -0.7489,-0.2985 -1.0077,-0.9026 -0.2591,-0.6038 -0.392,-1.3742 -0.392,-2.3182 0,-1.0689 0.21,-2.8111 0.6369,-5.2336 z m 3.5056,-16.5336 c 0.1262,0.0139 0.2381,0.1386 0.3501,0.3679 0.2169,0.4233 0.3569,0.6662 0.4127,0.7356 l 0.4482,0.6733 c 0.1256,0.1737 0.1888,0.3123 0.1888,0.4096 0,0.1179 -0.1052,0.2778 -0.3082,0.4651 -0.3007,0.3053 -0.6647,0.7149 -1.0916,1.2493 -0.1678,0.2012 -0.3146,0.3055 -0.4547,0.3055 -0.1607,0 -0.3081,-0.1321 -0.4337,-0.3889 -0.2868,-0.5967 -0.5391,-1.0411 -0.756,-1.3257 -0.1261,-0.1803 -0.1887,-0.3192 -0.1887,-0.4303 0,-0.1457 0.07,-0.2985 0.2026,-0.451 l 0.5809,-0.5902 c 0.07,-0.0695 0.2449,-0.2914 0.5317,-0.6732 0.2101,-0.243 0.3782,-0.3609 0.5179,-0.347 z m 14.8428,20.5316 c -2.3723,3.0819 -4.8078,4.6228 -7.3057,4.6228 -1.0009,0 -1.8125,-0.3816 -2.4495,-1.1381 -0.6366,-0.7566 -0.9515,-1.7425 -0.9515,-2.9433 0,-1.6032 0.3849,-3.3037 1.1474,-5.1154 0.7628,-1.8048 1.7567,-3.3664 2.9744,-4.6783 1.8122,-1.9366 3.7157,-2.9083 5.6962,-2.9083 0.6925,0 1.4624,0.1318 2.2952,0.3954 0.3011,0.0973 0.546,0.146 0.7348,0.146 0.3988,0 0.8887,-0.472 1.4695,-1.4091 0.301,-0.4652 0.5388,-0.6871 0.7069,-0.6732 0.1749,0.0139 0.2588,0.1457 0.2588,0.3886 0,0.104 -0.0209,0.222 -0.0629,0.347 -0.0281,0.0904 -0.112,0.4719 -0.2659,1.1384 l -0.4759,2.2212 c -0.2869,1.2702 -0.5667,2.9083 -0.8396,4.9073 -0.273,1.9922 -0.4131,3.3594 -0.4131,4.0882 0,1.6869 0.2659,2.5268 0.7977,2.5268 0.2801,0 0.6299,-0.2223 1.0636,-0.6736 0.4272,-0.4441 0.7628,-0.93 0.9941,-1.4436 0.1888,-0.451 0.3985,-0.6733 0.6154,-0.6733 0.231,0 0.3501,0.1389 0.3501,0.4235 0,0.8677 -0.5457,1.9018 -1.6305,3.1026 -1.0916,1.2007 -2.0155,1.8048 -2.7783,1.8048 -0.5385,0 -0.9306,-0.3056 -1.1897,-0.9162 -0.2656,-0.6109 -0.5105,-1.7909 -0.7415,-3.5402 z m -0.868,-11.2861 c -1.4414,0 -2.8128,0.8121 -4.1147,2.4364 -0.8606,1.0689 -1.5883,2.4224 -2.1833,4.0535 -0.5947,1.6311 -0.8957,3.0818 -0.8957,4.352 0,2.02 0.9028,3.0263 2.7153,3.0263 1.1477,0 2.3162,-0.6106 3.5059,-1.8394 1.1897,-1.2285 1.8754,-2.5265 2.0503,-3.894 0.098,-0.7565 0.2029,-1.3949 0.3149,-1.9085 l 0.3781,-1.8255 c 0.2237,-1.0137 0.3847,-1.6937 0.4828,-2.0478 0.0978,-0.3818 0.1468,-0.7149 0.1468,-1.0134 0,-0.3401 -0.2517,-0.6454 -0.7557,-0.9232 -0.5037,-0.2775 -1.0497,-0.4164 -1.6447,-0.4164 z m 48.4467,11.8624 2.421,-19.7544 c 0.0701,-0.5136 0.1049,-0.9232 0.1049,-1.2217 0,-1.2007 -0.6434,-1.9295 -1.9312,-2.1725 -0.7841,-0.1527 -1.1758,-0.3401 -1.1758,-0.5692 0,-0.2846 0.21,-0.4303 0.6369,-0.4303 0.3147,0 0.8538,0.0553 1.6166,0.1735 0.5806,0.0763 1.1123,0.1179 1.6024,0.1179 0.5318,0 1.5673,-0.0484 3.1,-0.1527 1.5188,-0.0902 2.9883,-0.1387 4.4087,-0.1387 4.2268,0 7.4458,1.0619 9.6642,3.1927 2.1061,2.0271 3.1558,4.6091 3.1558,7.7604 0,2.8735 -0.6786,5.6152 -2.0293,8.2111 -1.3504,2.596 -3.1978,4.7061 -5.5352,6.3236 -1.3646,0.9161 -2.8341,1.5825 -4.4088,1.978 -1.5743,0.4028 -3.5197,0.604 -5.8433,0.604 -1.1475,0 -2.2881,-0.0555 -3.422,-0.1666 -0.8748,-0.0834 -1.4553,-0.125 -1.7422,-0.125 -0.371,0 -0.8047,0.0416 -1.2945,0.125 -0.6299,0.1111 -1.0429,0.1666 -1.2527,0.1666 -0.504,0 -0.756,-0.1389 -0.756,-0.4235 0,-0.2151 0.2381,-0.3957 0.7209,-0.5343 1.0916,-0.2707 1.7005,-0.9093 1.8402,-1.9088 z m 5.4232,-20.2124 -2.4636,20.3442 c -0.0626,0.5137 -0.0975,0.8884 -0.0975,1.1174 0,0.6109 0.1817,1.0066 0.5386,1.1872 0.364,0.1874 1.1268,0.2775 2.2955,0.2775 2.1903,0 3.9606,-0.1945 5.3184,-0.5899 1.3507,-0.3957 2.624,-1.0899 3.8066,-2.0755 1.5885,-1.3187 2.9041,-3.2346 3.947,-5.7402 1.0425,-2.5129 1.5604,-5.0255 1.5604,-7.5382 0,-3.3732 -1.2594,-5.9901 -3.7859,-7.8363 -1.7002,-1.2495 -4.0587,-1.8743 -7.0676,-1.8743 -1.6657,0 -2.7224,0.1528 -3.1632,0.4513 -0.4408,0.2985 -0.7418,1.0618 -0.8887,2.2768 z m 22.4422,15.8882 c -0.07,0.5898 -0.1052,1.0618 -0.1052,1.4159 0,1.3881 0.4621,2.575 1.3859,3.5399 0.9306,0.9717 2.0574,1.4575 3.3939,1.4575 1.6863,0 3.03,-0.5204 4.038,-1.5616 0.3217,-0.3194 0.5317,-0.479 0.6295,-0.479 0.1959,0 0.294,0.1318 0.294,0.3886 0,0.4445 -0.483,1.0551 -1.4556,1.8116 -1.5605,1.2011 -3.2961,1.7978 -5.2067,1.7978 -1.6651,0 -2.9877,-0.5205 -3.9674,-1.5616 -0.9728,-1.0344 -1.4626,-2.4503 -1.4626,-4.248 0,-2.7417 0.9167,-5.2892 2.7572,-7.649 1.8406,-2.3531 3.8206,-3.5332 5.9551,-3.5332 1.0425,0 1.8892,0.2778 2.5543,0.8329 0.665,0.5624 0.9935,1.2773 0.9935,2.1656 0,1.6175 -1.0706,3.0266 -3.2119,4.2341 -1.6376,0.9233 -3.835,1.3885 -6.592,1.3885 z m 0.1049,-0.7498 c 2.0574,0 3.793,-0.472 5.1996,-1.4159 1.4062,-0.9442 2.1061,-2.1172 2.1061,-3.5192 0,-1.2634 -0.6437,-1.895 -1.9244,-1.895 -1.1197,0 -2.2394,0.6732 -3.352,2.02 -0.9726,1.1798 -1.6444,2.7833 -2.0293,4.8101 z m 18.2576,-7.3783 c 1.2946,-0.2152 2.3091,-0.3263 3.0439,-0.3263 2.1206,0 3.7859,0.4998 5.0176,1.4922 1.2246,0.9927 1.8402,2.3391 1.8402,4.0328 0,1.4993 -0.3707,3.0473 -1.1126,4.6299 -0.7486,1.5825 -1.7143,2.8873 -2.897,3.9217 -1.7773,1.5548 -3.7159,2.3321 -5.8152,2.3321 -0.4411,0 -0.7628,-0.0207 -0.9868,-0.0624 -0.2868,-0.0417 -0.4827,-0.0627 -0.5947,-0.0627 -0.3078,0 -0.4898,0.1738 -0.5318,0.5069 l -0.0771,0.4651 -0.3707,3.0541 c -0.0281,0.1596 -0.042,0.3886 -0.042,0.6871 0,0.5275 0.1259,0.8816 0.3708,1.069 0.2449,0.1944 0.7838,0.3401 1.6163,0.4441 l 0.6301,0.1041 c 0.4128,0.0555 0.6157,0.2012 0.6157,0.4374 0,0.3747 -0.2659,0.5621 -0.8047,0.5621 -0.343,0 -0.6648,-0.0207 -0.9658,-0.0553 l -0.3501,-0.0556 c -0.4547,-0.0626 -1.0845,-0.0972 -1.8964,-0.0972 -0.8115,0 -1.4414,0.0278 -1.8963,0.0833 l -0.4547,0.0485 c -0.2449,0.021 -0.4479,0.0346 -0.595,0.0346 -0.5666,0 -0.8464,-0.1803 -0.8464,-0.5482 0,-0.2223 0.1888,-0.3748 0.5598,-0.4513 0.6435,-0.1386 1.0497,-0.3331 1.2246,-0.5899 0.1675,-0.2568 0.3149,-0.8884 0.4405,-1.8879 l 2.2535,-18.1649 c -0.5598,0.1596 -1.0216,0.3123 -1.3926,0.4512 l -0.5667,0.243 -0.2662,0.0833 c -0.1255,0.0553 -0.2236,0.0831 -0.3078,0.0831 -0.1329,0 -0.21,-0.0692 -0.2239,-0.2081 l 0.0209,-0.1596 0.1049,-0.3056 c 0.0491,-0.1527 0.2449,-0.2707 0.5672,-0.3679 0.0978,-0.0417 0.3986,-0.1664 0.9026,-0.3747 0.2027,-0.0763 0.4688,-0.1735 0.7906,-0.2846 l 0.4898,-0.1874 0.1052,-0.8121 c 0.2517,-2.0339 0.574,-3.401 0.9725,-4.0884 0.3921,-0.694 1.0497,-1.0412 1.9664,-1.0412 0.3079,0 0.4621,0.125 0.4621,0.3679 0,0.1457 -0.0842,0.4652 -0.252,0.9511 -0.2659,0.7772 -0.4479,1.5199 -0.5457,2.2419 z m -0.1471,1.0896 -1.5185,12.2233 c -0.0281,0.2429 -0.0419,0.4859 -0.0419,0.7359 0,0.6871 0.5879,1.0341 1.7705,1.0341 1.9451,0 3.6107,-0.9023 4.9895,-2.7139 1.3853,-1.8117 2.0781,-3.9773 2.0781,-6.5109 0,-1.5894 -0.4827,-2.8179 -1.4414,-3.6788 -0.9587,-0.8674 -2.3233,-1.298 -4.0867,-1.298 -0.4831,0 -1.0639,0.0694 -1.7496,0.2083 z m 14.7728,7.0385 c -0.07,0.5898 -0.1052,1.0618 -0.1052,1.4159 0,1.3881 0.4618,2.575 1.3856,3.5399 0.9306,0.9717 2.0574,1.4575 3.3939,1.4575 1.6866,0 3.03,-0.5204 4.038,-1.5616 0.3217,-0.3194 0.5317,-0.479 0.6295,-0.479 0.1962,0 0.294,0.1318 0.294,0.3886 0,0.4445 -0.4827,1.0551 -1.4553,1.8116 -1.5608,1.2011 -3.2964,1.7978 -5.2067,1.7978 -1.6653,0 -2.988,-0.5205 -3.9676,-1.5616 -0.9729,-1.0344 -1.4627,-2.4503 -1.4627,-4.248 0,-2.7417 0.9167,-5.2892 2.7572,-7.649 1.8406,-2.3531 3.8206,-3.5332 5.9553,-3.5332 1.0423,0 1.8893,0.2778 2.5541,0.8329 0.665,0.5624 0.9935,1.2773 0.9935,2.1656 0,1.6175 -1.0706,3.0266 -3.2119,4.2341 -1.6376,0.9233 -3.835,1.3885 -6.5917,1.3885 z m 0.1049,-0.7498 c 2.0571,0 3.7927,-0.472 5.1993,-1.4159 1.4065,-0.9442 2.1064,-2.1172 2.1064,-3.5192 0,-1.2634 -0.644,-1.895 -1.9244,-1.895 -1.1197,0 -2.2397,0.6732 -3.352,2.02 -0.9729,1.1798 -1.6444,2.7833 -2.0293,4.8101 z m 17.4875,-3.6442 c 0.9309,-1.2563 1.9805,-2.2488 3.1561,-2.9707 1.1687,-0.7288 2.2884,-1.0897 3.359,-1.0897 0.8467,0 1.5605,0.4371 2.1271,1.3048 0.567,0.8677 0.8538,1.9644 0.8538,3.2763 0,0.7634 -0.049,1.7354 -0.1539,2.9151 l -0.455,5.3031 c -0.0138,0.1318 -0.0207,0.2639 -0.0207,0.3818 0,0.7081 0.1956,1.0619 0.5948,1.0619 0.6857,0 1.3365,-0.451 1.9663,-1.3536 0.273,-0.4025 0.5247,-0.6037 0.7416,-0.6037 0.2449,0 0.3642,0.1318 0.3501,0.4025 -0.042,0.7288 -0.6157,1.5758 -1.7286,2.5475 -1.1194,0.9788 -2.0713,1.4646 -2.8621,1.4646 -0.9726,0 -1.4556,-0.8954 -1.4556,-2.6793 0,-0.4025 0.028,-0.9578 0.0842,-1.6588 l 0.5037,-6.2334 c 0.028,-0.2704 0.0419,-0.576 0.0419,-0.9091 0,-1.055 -0.2026,-1.902 -0.6018,-2.5265 -0.4056,-0.6318 -0.9377,-0.9442 -1.6095,-0.9442 -1.1616,0 -2.1622,0.7013 -3.016,2.0962 -0.8538,1.3952 -1.4276,3.2834 -1.7144,5.6639 l -0.7838,6.1362 c -0.042,0.4025 -0.1607,0.6732 -0.3501,0.8121 -0.1956,0.1318 -0.5527,0.2013 -1.0704,0.2013 -0.7069,0 -1.0428,-0.2152 -1.0148,-0.6526 l 0.042,-0.3679 0.6579,-5.2821 c 0.0978,-0.8192 0.2027,-1.6242 0.3149,-2.4293 0.1888,-1.3952 0.2869,-2.4573 0.2869,-3.179 0,-1.3329 -0.3081,-1.9993 -0.9309,-1.9993 -0.2307,0 -0.5105,0.1667 -0.8328,0.5 -0.3217,0.3331 -0.5598,0.7078 -0.7135,1.1174 -0.1752,0.5066 -0.3642,0.7566 -0.5669,0.7566 -0.2659,0 -0.3991,-0.1874 -0.3991,-0.5692 0,-0.9161 0.4062,-1.8949 1.2248,-2.9429 0.8119,-1.0483 1.5818,-1.5687 2.3091,-1.5687 0.4898,0 0.889,0.2985 1.1968,0.8884 0.3079,0.5899 0.4689,1.3603 0.4689,2.3045 z"
         style="fill:url(#linearGradient7);fill-rule:evenodd"
         id="path3" />
      <path
         d="m 546.5903,386.0016 c -1.5186,2.825 -3.464,4.2339 -5.8295,4.2339 -1.3085,0 -2.3442,-0.4649 -3.0858,-1.4021 -0.7489,-0.9371 -1.1197,-2.228 -1.1197,-3.8661 0,-2.8874 0.9307,-5.5321 2.7993,-7.9268 1.8683,-2.3947 3.9186,-3.5884 6.1508,-3.5884 0.728,0 1.5886,0.2358 2.5753,0.7149 l 1.2597,-9.9468 c 0.0701,-0.5414 0.1049,-0.9091 0.1049,-1.1174 0,-0.4581 -0.3639,-0.6871 -1.0987,-0.6871 h -1.0006 c -0.546,0 -0.8119,-0.1318 -0.7977,-0.3957 0.0139,-0.2914 0.2798,-0.451 0.7977,-0.4788 1.5605,-0.0904 2.6731,-0.2083 3.3381,-0.3402 0.3917,-0.0765 0.7066,-0.1182 0.9377,-0.1182 0.2588,0 0.3846,0.1528 0.3846,0.4652 0,0.0972 -0.007,0.1806 -0.021,0.25 l -2.7498,22.1976 c -0.0842,0.826 -0.1262,1.4992 -0.1262,2.0128 0,1.2079 0.3291,1.8117 0.9868,1.8117 0.7347,0 1.4624,-0.576 2.1693,-1.7283 l 0.3708,-0.6109 c 0.1542,-0.2151 0.301,-0.3263 0.4411,-0.3263 0.21,0 0.3149,0.1112 0.3149,0.3263 0,0.6177 -0.3779,1.4298 -1.1407,2.4432 -1.036,1.4023 -2.1413,2.1033 -3.3171,2.1033 -0.7347,0 -1.2526,-0.2151 -1.5534,-0.6386 -0.3081,-0.4235 -0.532,-1.2357 -0.686,-2.4364 -0.028,-0.2152 -0.0629,-0.5344 -0.1048,-0.9508 z m 0.5386,-4.3035 0.6579,-5.2129 c 0.028,-0.2291 0.0422,-0.4164 0.0422,-0.5483 0,-1.1035 -0.8189,-1.652 -2.4633,-1.652 -1.2946,0 -2.5123,0.6803 -3.6601,2.0339 -0.7835,0.9368 -1.4346,2.1518 -1.9664,3.6371 -0.5247,1.4922 -0.7909,2.9013 -0.7909,4.2131 0,1.2357 0.2801,2.2213 0.8329,2.9569 0.553,0.7426 1.2945,1.1106 2.2113,1.1106 1.3019,0 2.4565,-0.6109 3.471,-1.8323 0.8538,-1.0483 1.4065,-2.617 1.6654,-4.7061 z m 10.0491,0.1667 c -0.0701,0.5898 -0.1052,1.0618 -0.1052,1.4159 0,1.3881 0.4618,2.575 1.3858,3.5399 0.9304,0.9717 2.0574,1.4575 3.394,1.4575 1.6863,0 3.0299,-0.5204 4.0376,-1.5616 0.3221,-0.3194 0.5321,-0.479 0.6296,-0.479 0.1962,0 0.2942,0.1318 0.2942,0.3886 0,0.4445 -0.483,1.0551 -1.4555,1.8116 -1.5605,1.2011 -3.2962,1.7978 -5.2067,1.7978 -1.6651,0 -2.9877,-0.5205 -3.9674,-1.5616 -0.9728,-1.0344 -1.4627,-2.4503 -1.4627,-4.248 0,-2.7417 0.9168,-5.2892 2.7573,-7.649 1.8402,-2.3531 3.8205,-3.5332 5.955,-3.5332 1.0426,0 1.8893,0.2778 2.554,0.8329 0.665,0.5624 0.9939,1.2773 0.9939,2.1656 0,1.6175 -1.0707,3.0266 -3.212,4.2341 -1.6376,0.9233 -3.835,1.3885 -6.5919,1.3885 z m 0.1048,-0.7498 c 2.0574,0 3.7931,-0.472 5.1996,-1.4159 1.4063,-0.9442 2.1062,-2.1172 2.1062,-3.5192 0,-1.2634 -0.6438,-1.895 -1.9245,-1.895 -1.1197,0 -2.2393,0.6732 -3.3519,2.02 -0.9729,1.1798 -1.6444,2.7833 -2.0294,4.8101 z m 8.1947,-15.9922 2.6873,5.2404 0.1607,0.3886 c 0.028,0.1877 -0.0839,0.2846 -0.3288,0.2846 -0.133,0 -0.2518,-0.0417 -0.3498,-0.1247 l -2.6805,-2.7904 -4.4297,2.7694 c -0.1468,0.0972 -0.3007,0.1457 -0.4478,0.1457 -0.2869,0 -0.4269,-0.1108 -0.4128,-0.3263 0.0139,-0.1108 0.133,-0.2636 0.3501,-0.4648 z m 9.2931,12.348 c 0.9306,-1.2563 1.9803,-2.2488 3.1561,-2.9707 1.1684,-0.7288 2.2881,-1.0897 3.3588,-1.0897 0.8467,0 1.5607,0.4371 2.1274,1.3048 0.5666,0.8677 0.8535,1.9644 0.8535,3.2763 0,0.7634 -0.0488,1.7354 -0.1536,2.9151 l -0.455,5.3031 c -0.0139,0.1318 -0.021,0.2639 -0.021,0.3818 0,0.7081 0.1959,1.0619 0.5947,1.0619 0.686,0 1.3368,-0.451 1.9667,-1.3536 0.273,-0.4025 0.5247,-0.6037 0.7415,-0.6037 0.245,0 0.364,0.1318 0.3501,0.4025 -0.0419,0.7288 -0.6159,1.5758 -1.7288,2.5475 -1.1194,0.9788 -2.0713,1.4646 -2.8619,1.4646 -0.9725,0 -1.4556,-0.8954 -1.4556,-2.6793 0,-0.4025 0.0281,-0.9578 0.0839,-1.6588 l 0.504,-6.2334 c 0.0281,-0.2704 0.042,-0.576 0.042,-0.9091 0,-1.055 -0.203,-1.902 -0.6018,-2.5265 -0.4059,-0.6318 -0.9377,-0.9442 -1.6095,-0.9442 -1.1619,0 -2.1623,0.7013 -3.0164,2.0962 -0.8535,1.3952 -1.4275,3.2834 -1.7144,5.6639 l -0.7835,6.1362 c -0.0419,0.4025 -0.161,0.6732 -0.35,0.8121 -0.1959,0.1318 -0.5528,0.2013 -1.0707,0.2013 -0.7067,0 -1.0428,-0.2152 -1.0148,-0.6526 l 0.042,-0.3679 0.6579,-5.2821 c 0.0981,-0.8192 0.2029,-1.6242 0.3149,-2.4293 0.1891,-1.3952 0.2869,-2.4573 0.2869,-3.179 0,-1.3329 -0.3079,-1.9993 -0.9306,-1.9993 -0.2311,0 -0.5108,0.1667 -0.8328,0.5 -0.3218,0.3331 -0.5599,0.7078 -0.7138,1.1174 -0.1752,0.5066 -0.364,0.7566 -0.5669,0.7566 -0.2656,0 -0.3989,-0.1874 -0.3989,-0.5692 0,-0.9161 0.4059,-1.8949 1.2249,-2.9429 0.8115,-1.0483 1.5814,-1.5687 2.3091,-1.5687 0.4898,0 0.8886,0.2985 1.1965,0.8884 0.3081,0.5899 0.4691,1.3603 0.4691,2.3045 z m 25.2063,-0.7844 -1.1966,-1.2353 c -0.6508,-0.6664 -1.3439,-0.9995 -2.0925,-0.9995 -1.4482,0 -2.6521,0.7634 -3.6178,2.2975 -0.9655,1.5338 -1.4486,3.4358 -1.4486,5.7055 0,1.8256 0.3989,3.2415 1.2036,4.241 0.8048,0.9995 1.9384,1.4992 3.401,1.4992 1.4554,0 2.7151,-0.4649 3.7857,-1.3949 l 0.7631,-0.6526 c 0.1049,-0.1043 0.2237,-0.1596 0.3427,-0.1596 0.161,-0.0138 0.2449,0.0692 0.2449,0.243 0,0.3262 -0.301,0.8121 -0.9025,1.4782 -1.5466,1.6869 -3.5133,2.5266 -5.9063,2.5266 -1.6937,0 -3.009,-0.5483 -3.9538,-1.6379 -0.9447,-1.0967 -1.4136,-2.6237 -1.4136,-4.5952 0,-2.7973 0.8745,-5.2889 2.624,-7.4756 1.7567,-2.1863 3.744,-3.2831 5.9763,-3.2831 1.1058,0 2.0784,0.243 2.9112,0.7288 0.8328,0.4859 1.2526,1.0483 1.2526,1.6866 0,0.3751 -0.119,0.7081 -0.3639,0.9927 -0.2381,0.2846 -0.5318,0.4235 -0.8606,0.4235 -0.2591,0 -0.504,-0.1321 -0.7489,-0.3889 z m 6.0811,4.9283 0.8538,-5.0252 c 0.07,-0.368 0.1049,-0.6942 0.1049,-0.9927 0,-0.5414 -0.3988,-0.8121 -1.2036,-0.8121 h -1.1058 c -0.6018,0 -0.8957,-0.1389 -0.8819,-0.4235 0.0142,-0.326 0.3082,-0.4927 0.8748,-0.4927 1.2458,0 2.4565,-0.1111 3.625,-0.3402 0.4478,-0.0762 0.7908,-0.1179 1.0357,-0.1179 0.2869,0 0.4269,0.1596 0.4269,0.4859 l -0.0209,0.2219 -1.1129,5.6087 c -0.5599,2.7762 -0.8396,4.8863 -0.8396,6.3371 0,0.8121 0.2097,1.2285 0.6369,1.2563 0.6225,0.0417 1.2317,-0.5275 1.8403,-1.6937 0.1471,-0.3124 0.3149,-0.472 0.4898,-0.472 0.2171,0 0.322,0.1457 0.3081,0.4303 -0.0558,0.8816 -0.5808,1.8533 -1.5885,2.9016 -1.0009,1.055 -1.8967,1.5826 -2.6802,1.5826 -0.413,0 -0.7486,-0.2985 -1.0077,-0.9026 -0.2588,-0.6038 -0.392,-1.3742 -0.392,-2.3182 0,-1.0689 0.21,-2.8111 0.6369,-5.2336 z m 3.5056,-16.5336 c 0.1262,0.0139 0.2381,0.1386 0.3504,0.3679 0.2168,0.4233 0.3569,0.6662 0.4124,0.7356 l 0.4482,0.6733 c 0.1258,0.1737 0.1891,0.3123 0.1891,0.4096 0,0.1179 -0.1052,0.2778 -0.3082,0.4651 -0.301,0.3053 -0.6647,0.7149 -1.0919,1.2493 -0.1675,0.2012 -0.3146,0.3055 -0.4547,0.3055 -0.1607,0 -0.3078,-0.1321 -0.4337,-0.3889 -0.2868,-0.5967 -0.5388,-1.0411 -0.756,-1.3257 -0.1258,-0.1803 -0.1887,-0.3192 -0.1887,-0.4303 0,-0.1457 0.07,-0.2985 0.2029,-0.451 l 0.5806,-0.5902 c 0.07,-0.0695 0.2449,-0.2914 0.532,-0.6732 0.2101,-0.243 0.3779,-0.3609 0.5176,-0.347 z m 14.8428,20.5316 c -2.3723,3.0819 -4.8076,4.6228 -7.3057,4.6228 -1.0007,0 -1.8125,-0.3816 -2.4495,-1.1381 -0.6366,-0.7566 -0.9515,-1.7425 -0.9515,-2.9433 0,-1.6032 0.3849,-3.3037 1.1477,-5.1154 0.7628,-1.8048 1.7563,-3.3664 2.9741,-4.6783 1.8125,-1.9366 3.7157,-2.9083 5.6962,-2.9083 0.6928,0 1.4627,0.1318 2.2955,0.3954 0.3008,0.0973 0.5457,0.146 0.7348,0.146 0.3985,0 0.8883,-0.472 1.4694,-1.4091 0.3008,-0.4652 0.5386,-0.6871 0.7067,-0.6732 0.1749,0.0139 0.2588,0.1457 0.2588,0.3886 0,0.104 -0.0207,0.222 -0.0626,0.347 -0.0281,0.0904 -0.1123,0.4719 -0.2662,1.1384 l -0.4759,2.2212 c -0.2869,1.2702 -0.5667,2.9083 -0.8396,4.9073 -0.273,1.9922 -0.4131,3.3594 -0.4131,4.0882 0,1.6869 0.2659,2.5268 0.7977,2.5268 0.2801,0 0.6299,-0.2223 1.0639,-0.6736 0.4269,-0.4441 0.7628,-0.93 0.9938,-1.4436 0.1891,-0.451 0.3988,-0.6733 0.6157,-0.6733 0.2307,0 0.35,0.1389 0.35,0.4235 0,0.8677 -0.5459,1.9018 -1.6307,3.1026 -1.0916,1.2007 -2.0155,1.8048 -2.778,1.8048 -0.5388,0 -0.9309,-0.3056 -1.1897,-0.9162 -0.2659,-0.6109 -0.5108,-1.7909 -0.7418,-3.5402 z m -0.868,-11.2861 c -1.4414,0 -2.8128,0.8121 -4.1145,2.4364 -0.8608,1.0689 -1.5885,2.4224 -2.1835,4.0535 -0.5947,1.6311 -0.8955,3.0818 -0.8955,4.352 0,2.02 0.9026,3.0263 2.7151,3.0263 1.1477,0 2.3164,-0.6106 3.5061,-1.8394 1.1897,-1.2285 1.8752,-2.5265 2.0501,-3.894 0.098,-0.7565 0.2029,-1.3949 0.3149,-1.9085 l 0.3781,-1.8255 c 0.224,-1.0137 0.3847,-1.6937 0.4828,-2.0478 0.098,-0.3818 0.1468,-0.7149 0.1468,-1.0134 0,-0.3401 -0.2517,-0.6454 -0.7554,-0.9232 -0.504,-0.2775 -1.0497,-0.4164 -1.645,-0.4164 z m 34.6748,15.9922 c 2.1481,1.4091 4.2197,2.5614 6.2073,3.4569 1.9871,0.8883 3.492,1.3325 4.5204,1.3325 1.0358,0 1.8754,-0.5065 2.5192,-1.527 0.1749,-0.2846 0.322,-0.4303 0.4269,-0.4303 0.161,0 0.2449,0.104 0.2449,0.3053 0,0.8053 -0.5528,1.6452 -1.6515,2.5126 -1.0984,0.8677 -2.1693,1.3051 -3.2051,1.3051 -1.2875,0 -2.9109,-0.4581 -4.8773,-1.3674 -1.9667,-0.9162 -4.6465,-2.4571 -8.0337,-4.6299 l -3.4429,-2.1515 c -0.8187,-0.5068 -1.5327,-0.7565 -2.1484,-0.7565 -0.8116,0 -1.5043,0.3398 -2.0922,1.0272 -0.5809,0.6872 -0.8748,1.5132 -0.8748,2.4778 0,0.7844 0.182,1.4786 0.553,2.0755 0.2449,0.4096 0.3705,0.7149 0.3705,0.9162 0,0.1874 -0.1468,0.2846 -0.4337,0.2846 -0.4059,0 -0.8047,-0.4303 -1.1826,-1.2841 -0.3779,-0.8538 -0.5666,-1.7354 -0.5666,-2.6444 0,-2.3463 1.0774,-3.9289 3.2326,-4.741 -1.2314,-1.5616 -2.0781,-2.9568 -2.5399,-4.1992 -0.462,-1.2357 -0.6927,-2.742 -0.6927,-4.4981 0,-5.2336 1.7424,-9.3704 5.227,-12.4174 2.7363,-2.3808 5.8924,-3.5748 9.4612,-3.5748 3.7718,0 6.8789,1.2634 9.3212,3.7968 2.4423,2.5336 3.6601,5.7611 3.6601,9.676 0,3.3594 -0.8748,6.3578 -2.6172,9.0026 -1.3366,1.999 -2.8763,3.4704 -4.6185,4.3937 -1.7428,0.93 -3.996,1.4853 -6.7672,1.6588 z m 0.3711,-27.4034 c -3.0444,0 -5.6055,1.2909 -7.67,3.8662 -2.0642,2.5753 -3.0932,5.7818 -3.0932,9.6066 0,3.7897 0.9377,6.8647 2.8202,9.2245 1.8757,2.3602 4.3387,3.5402 7.369,3.5402 1.6937,0 3.289,-0.4167 4.7795,-1.2566 1.4907,-0.8396 2.6943,-1.9919 3.6107,-3.4495 0.7212,-1.1661 1.3227,-2.6793 1.7918,-4.5397 0.4689,-1.86 0.7067,-3.6232 0.7067,-5.303 0,-3.4773 -0.9516,-6.2955 -2.8483,-8.4541 -1.9031,-2.1588 -4.3874,-3.2346 -7.4664,-3.2346 z m 28.0051,18.6786 c -1.7356,2.6513 -3.0928,4.4839 -4.0799,5.5112 -0.7415,0.7565 -1.5675,1.423 -2.491,1.9851 -0.9236,0.5692 -1.6376,0.8538 -2.1413,0.8538 -0.4408,0 -0.7909,-0.2291 -1.0639,-0.6804 -0.273,-0.458 -0.413,-1.0411 -0.413,-1.7628 0,-1.0829 0.1681,-2.4781 0.4972,-4.1857 l 0.8328,-4.2063 c 0.2027,-1.0341 0.3076,-1.7629 0.3076,-2.2002 0,-0.5137 -0.1468,-0.7773 -0.4337,-0.7912 -0.2588,-0.0139 -0.5737,0.1735 -0.9448,0.555 -0.3708,0.3819 -0.6715,0.847 -0.8887,1.3814 -0.2026,0.458 -0.4269,0.6874 -0.6576,0.6874 -0.2591,0 -0.392,-0.1599 -0.392,-0.4862 0,-1.0686 0.4688,-2.1515 1.4068,-3.2482 0.9377,-1.0899 1.8751,-1.6381 2.806,-1.6381 1.0846,0 1.6234,0.8538 1.6234,2.5543 0,0.4373 -0.0419,0.8954 -0.119,1.3813 l -1.1546,7.0035 c -0.021,0.2291 -0.07,0.5621 -0.14,1.0134 l -0.0981,0.8884 c -0.0281,0.2222 -0.0417,0.4164 -0.0417,0.5902 0,0.5689 0.203,0.8535 0.6086,0.8535 0.4547,0 1.1339,-0.451 2.0503,-1.3536 0.9168,-0.909 1.8545,-2.0545 2.8063,-3.4426 1.7286,-2.5127 2.9671,-5.2198 3.7299,-8.121 0.14,-0.4998 0.2797,-0.826 0.4339,-0.9788 0.154,-0.1457 0.4128,-0.222 0.7838,-0.222 0.7277,0 1.0916,0.2775 1.0916,0.8329 0,0.1527 -0.0209,0.3262 -0.0632,0.5136 l -1.0284,4.7338 c -0.6718,3.0541 -1.0077,5.3516 -1.0077,6.8718 0,0.6661 0.273,0.9995 0.8189,0.9995 0.8048,0 1.6093,-0.7498 2.414,-2.2419 0.1752,-0.3402 0.364,-0.5069 0.567,-0.5069 0.2658,0 0.3988,0.1457 0.3988,0.4442 0,0.9788 -0.6299,2.0339 -1.8825,3.1791 -1.2523,1.1384 -2.4282,1.7076 -3.5198,1.7076 -0.9309,0 -1.3994,-0.7081 -1.3994,-2.124 0,-1.069 0.1326,-2.3531 0.3917,-3.8455 l 0.2169,-1.1591 c 0.0419,-0.229 0.098,-0.6803 0.1748,-1.3465 z m 10.378,0.0207 0.8538,-5.0252 c 0.07,-0.368 0.1048,-0.6942 0.1048,-0.9927 0,-0.5414 -0.3988,-0.8121 -1.2035,-0.8121 h -1.1058 c -0.6018,0 -0.8958,-0.1389 -0.8819,-0.4235 0.0142,-0.326 0.3081,-0.4927 0.8748,-0.4927 1.2526,0 2.4704,-0.1111 3.6388,-0.3402 0.4479,-0.0762 0.798,-0.1179 1.0429,-0.1179 0.2871,0 0.4269,0.1596 0.4269,0.4859 l -0.021,0.2219 -1.1265,5.6087 c -0.5672,2.7762 -0.847,4.8863 -0.847,6.3371 0,0.8121 0.2098,1.2285 0.637,1.2563 0.6224,0.0417 1.2316,-0.5275 1.8402,-1.6937 0.1471,-0.3124 0.3149,-0.472 0.4898,-0.472 0.2172,0 0.3221,0.1457 0.3082,0.4303 -0.0559,0.8816 -0.5809,1.8533 -1.5886,2.9016 -1.0009,1.055 -1.8966,1.5826 -2.6801,1.5826 -0.413,0 -0.7487,-0.2985 -1.0077,-0.9026 -0.2588,-0.6038 -0.3921,-1.3742 -0.3921,-2.3182 0,-1.0689 0.2101,-2.8111 0.637,-5.2336 z m 1.2313,-11.9247 2.1206,-2.9084 c 0.6089,-0.7982 1.1827,-1.2007 1.7212,-1.2007 0.413,0 0.7699,0.1388 1.0639,0.4096 0.3007,0.2704 0.4481,0.5966 0.4481,0.9717 0,0.6106 -0.3923,1.152 -1.1829,1.631 l -3.3661,2.0129 c -0.3708,0.2152 -0.6506,0.3334 -0.8606,0.347 -0.2591,0.0139 -0.3847,-0.118 -0.3847,-0.3887 0,-0.1873 0.1469,-0.4787 0.4405,-0.8744 z m 11.9036,7.8851 c 0.9516,-1.319 2.0012,-2.3462 3.1561,-3.075 1.1545,-0.7288 2.3093,-1.0897 3.4568,-1.0897 1.7218,0 2.5753,1.1313 2.5753,3.3871 v 0.7776 c 0.8748,-1.2841 1.8337,-2.2975 2.8902,-3.0402 1.0567,-0.7497 2.0574,-1.1245 3.009,-1.1245 0.9518,0 1.7146,0.4025 2.2884,1.2076 0.5669,0.8121 0.8538,1.8881 0.8538,3.2485 0,0.4997 -0.021,0.9995 -0.0562,1.4853 l -0.4966,6.5109 -0.0771,0.8538 0.0839,0.3887 c 0.1191,0.3123 0.343,0.4651 0.6718,0.4651 0.6648,0 1.3369,-0.5275 2.0155,-1.5757 0.161,-0.2291 0.3291,-0.3402 0.5179,-0.3402 0.2729,0 0.4059,0.1596 0.4059,0.4859 0,0.4651 -0.413,1.1661 -1.2388,2.0962 -1.0845,1.2217 -2.1761,1.8326 -3.2609,1.8326 -1.0565,0 -1.5886,-0.944 -1.5886,-2.8389 0,-0.3263 0.021,-0.7844 0.063,-1.3813 l 0.483,-6.49 c 0.028,-0.3957 0.0419,-0.7358 0.0419,-1.0343 0,-2.1101 -0.7208,-3.1652 -2.1625,-3.1652 -1.0077,0 -1.9103,0.7081 -2.7012,2.1172 -0.7908,1.4159 -1.3294,3.2692 -1.6163,5.5738 l -0.784,6.2053 c -0.0556,0.4025 -0.1749,0.6732 -0.3637,0.8121 -0.182,0.1318 -0.5389,0.2013 -1.0565,0.2013 -0.6792,0 -1.0148,-0.2152 -1.0148,-0.6526 l 0.042,-0.3608 1.1126,-9.0303 c 0.07,-0.5276 0.1051,-1.1384 0.1051,-1.8465 0,-0.9301 -0.2242,-1.6728 -0.6721,-2.2281 -0.4476,-0.5553 -1.0426,-0.8331 -1.7983,-0.8331 -1.0638,0 -2.0293,0.6803 -2.9182,2.0478 -0.8887,1.3674 -1.4485,3.0401 -1.6864,5.0114 l -0.8186,6.8788 c -0.0561,0.4025 -0.1749,0.6732 -0.3643,0.8121 -0.1817,0.1318 -0.5385,0.2013 -1.0564,0.2013 -0.6787,0 -1.0148,-0.2152 -1.0148,-0.6526 0,-0.0694 0.0138,-0.1873 0.0419,-0.3608 l 1.1758,-9.7246 c 0.0559,-0.4025 0.0839,-0.7497 0.0839,-1.0343 0,-1.3326 -0.3007,-2.0129 -0.8886,-2.0546 -0.6089,-0.0416 -1.1758,0.5692 -1.7144,1.8394 -0.1191,0.3124 -0.252,0.4652 -0.385,0.4513 -0.2171,-0.0139 -0.3291,-0.2151 -0.3291,-0.6109 0,-0.9022 0.385,-1.8671 1.1619,-2.9083 0.7699,-1.0412 1.4973,-1.5616 2.1694,-1.5616 1.1055,0 1.6583,1.3742 1.6583,4.123 z m 25.5143,4.0396 0.8538,-5.0252 c 0.07,-0.368 0.1049,-0.6942 0.1049,-0.9927 0,-0.5414 -0.3988,-0.8121 -1.2036,-0.8121 h -1.1055 c -0.6021,0 -0.896,-0.1389 -0.8821,-0.4235 0.0141,-0.326 0.3081,-0.4927 0.875,-0.4927 1.2456,0 2.4562,-0.1111 3.6247,-0.3402 0.4479,-0.0762 0.7908,-0.1179 1.0358,-0.1179 0.2868,0 0.4269,0.1596 0.4269,0.4859 l -0.0207,0.2219 -1.1129,5.6087 c -0.5599,2.7762 -0.8396,4.8863 -0.8396,6.3371 0,0.8121 0.2097,1.2285 0.6366,1.2563 0.6228,0.0417 1.2317,-0.5275 1.8406,-1.6937 0.1468,-0.3124 0.3149,-0.472 0.4898,-0.472 0.2168,0 0.3217,0.1457 0.3078,0.4303 -0.0558,0.8816 -0.5808,1.8533 -1.5885,2.9016 -1.0009,1.055 -1.8964,1.5826 -2.6802,1.5826 -0.413,0 -0.7486,-0.2985 -1.0077,-0.9026 -0.2588,-0.6038 -0.392,-1.3742 -0.392,-2.3182 0,-1.0689 0.21,-2.8111 0.6369,-5.2336 z m 3.5059,-16.5336 c 0.1259,0.0139 0.2381,0.1386 0.3501,0.3679 0.2168,0.4233 0.3569,0.6662 0.4127,0.7356 l 0.4479,0.6733 c 0.1259,0.1737 0.1891,0.3123 0.1891,0.4096 0,0.1179 -0.1052,0.2778 -0.3082,0.4651 -0.301,0.3053 -0.6647,0.7149 -1.0916,1.2493 -0.1678,0.2012 -0.3146,0.3055 -0.4547,0.3055 -0.161,0 -0.3081,-0.1321 -0.4339,-0.3889 -0.2869,-0.5967 -0.5389,-1.0411 -0.7558,-1.3257 -0.1261,-0.1803 -0.189,-0.3192 -0.189,-0.4303 0,-0.1457 0.07,-0.2985 0.2029,-0.451 l 0.5809,-0.5902 c 0.07,-0.0695 0.2449,-0.2914 0.5317,-0.6732 0.2101,-0.243 0.3782,-0.3609 0.5179,-0.347 z m 15.2204,11.6053 -1.1965,-1.2353 c -0.6509,-0.6664 -1.3437,-0.9995 -2.0926,-0.9995 -1.4482,0 -2.6521,0.7634 -3.6175,2.2975 -0.9658,1.5338 -1.4488,3.4358 -1.4488,5.7055 0,1.8256 0.3991,3.2415 1.2038,4.241 0.8048,0.9995 1.9381,1.4992 3.4008,1.4992 1.4556,0 2.7153,-0.4649 3.7856,-1.3949 l 0.7631,-0.6526 c 0.1049,-0.1043 0.224,-0.1596 0.3427,-0.1596 0.1613,-0.0138 0.2449,0.0692 0.2449,0.243 0,0.3262 -0.301,0.8121 -0.9025,1.4782 -1.5466,1.6869 -3.513,2.5266 -5.9063,2.5266 -1.6934,0 -3.009,-0.5483 -3.9537,-1.6379 -0.9448,-1.0967 -1.4134,-2.6237 -1.4134,-4.5952 0,-2.7973 0.8745,-5.2889 2.624,-7.4756 1.7564,-2.1863 3.7438,-3.2831 5.9763,-3.2831 1.1055,0 2.0781,0.243 2.9109,0.7288 0.8328,0.4859 1.2526,1.0483 1.2526,1.6866 0,0.3751 -0.119,0.7081 -0.3639,0.9927 -0.2378,0.2846 -0.5318,0.4235 -0.8606,0.4235 -0.2591,0 -0.504,-0.1321 -0.7489,-0.3889 z m 14.1358,8.9263 c -2.3723,3.0819 -4.8079,4.6228 -7.3058,4.6228 -1.0009,0 -1.8124,-0.3816 -2.4494,-1.1381 -0.6366,-0.7566 -0.9518,-1.7425 -0.9518,-2.9433 0,-1.6032 0.3852,-3.3037 1.1477,-5.1154 0.7628,-1.8048 1.7566,-3.3664 2.9741,-4.6783 1.8125,-1.9366 3.7159,-2.9083 5.6965,-2.9083 0.6925,0 1.4624,0.1318 2.2952,0.3954 0.3011,0.0973 0.546,0.146 0.7348,0.146 0.3988,0 0.8886,-0.472 1.4694,-1.4091 0.3011,-0.4652 0.5389,-0.6871 0.707,-0.6732 0.1749,0.0139 0.2588,0.1457 0.2588,0.3886 0,0.104 -0.021,0.222 -0.0629,0.347 -0.0281,0.0904 -0.112,0.4719 -0.2659,1.1384 l -0.4759,2.2212 c -0.2869,1.2702 -0.5667,2.9083 -0.8397,4.9073 -0.2729,1.9922 -0.413,3.3594 -0.413,4.0882 0,1.6869 0.2659,2.5268 0.7977,2.5268 0.2801,0 0.6299,-0.2223 1.0636,-0.6736 0.4271,-0.4441 0.7628,-0.93 0.9941,-1.4436 0.1888,-0.451 0.3985,-0.6733 0.6154,-0.6733 0.231,0 0.35,0.1389 0.35,0.4235 0,0.8677 -0.5456,1.9018 -1.6304,3.1026 -1.0919,1.2007 -2.0155,1.8048 -2.7783,1.8048 -0.5386,0 -0.9306,-0.3056 -1.1897,-0.9162 -0.2656,-0.6109 -0.5105,-1.7909 -0.7415,-3.5402 z m -0.868,-11.2861 c -1.4414,0 -2.8128,0.8121 -4.1148,2.4364 -0.8606,1.0689 -1.5882,2.4224 -2.1832,4.0535 -0.5947,1.6311 -0.8958,3.0818 -0.8958,4.352 0,2.02 0.9029,3.0263 2.7154,3.0263 1.1477,0 2.3161,-0.6106 3.5058,-1.8394 1.1897,-1.2285 1.8754,-2.5265 2.0503,-3.894 0.0981,-0.7565 0.203,-1.3949 0.315,-1.9085 l 0.3781,-1.8255 c 0.2237,-1.0137 0.3847,-1.6937 0.4828,-2.0478 0.0977,-0.3818 0.1468,-0.7149 0.1468,-1.0134 0,-0.3401 -0.2517,-0.6454 -0.7557,-0.9232 -0.5037,-0.2775 -1.0497,-0.4164 -1.6447,-0.4164 z m -349.9492,7.5382 c -0.07,0.5898 -0.1052,1.0618 -0.1052,1.4159 0,1.3881 0.4618,2.575 1.3859,3.5399 0.9303,0.9717 2.0571,1.4575 3.3939,1.4575 1.6864,0 3.0297,-0.5204 4.0377,-1.5616 0.3217,-0.3194 0.5318,-0.479 0.6296,-0.479 0.1961,0 0.2942,0.1318 0.2942,0.3886 0,0.4445 -0.483,1.0551 -1.4556,1.8116 -1.5607,1.2011 -3.2961,1.7978 -5.2067,1.7978 -1.6653,0 -2.988,-0.5205 -3.9676,-1.5616 -0.9726,-1.0344 -1.4624,-2.4503 -1.4624,-4.248 0,-2.7417 0.9167,-5.2892 2.757,-7.649 1.8405,-2.3531 3.8208,-3.5332 5.9553,-3.5332 1.0426,0 1.8893,0.2778 2.554,0.8329 0.665,0.5624 0.9935,1.2773 0.9935,2.1656 0,1.6175 -1.0703,3.0266 -3.2116,4.2341 -1.6376,0.9233 -3.835,1.3885 -6.592,1.3885 z m 0.1049,-0.7498 c 2.0574,0 3.7927,-0.472 5.1996,-1.4159 1.4063,-0.9442 2.1061,-2.1172 2.1061,-3.5192 0,-1.2634 -0.6437,-1.895 -1.9244,-1.895 -1.1197,0 -2.2394,0.6732 -3.352,2.02 -0.9728,1.1798 -1.6444,2.7833 -2.0293,4.8101 z"
         style="fill:url(#linearGradient8);fill-rule:evenodd"
         id="path4" />
    </g>
    <path
       d="m 143.2296,196.0056 h 26.1476 l -4.7671,39.3703 h -45.2328 l -4.8017,39.6564 H 73.0578 l 2.2308,-18.4237 c 4.036,-33.3321 34.6094,-60.603 67.941,-60.603 z m 62.9064,39.3707 -4.8016,39.656 h -41.5183 l 4.8017,-39.656 z m -10.2795,84.8965 -2.231,18.4251 c -4.0358,33.3312 -34.6093,60.6025 -67.9409,60.6025 H 99.5288 l 4.7671,-39.3703 h 45.2405 l 4.8019,-39.6573 z m -133.075,39.6292 4.7984,-39.6292 h 41.5178 l -4.7984,39.6292 z"
       style="fill:url(#linearGradient14);fill-opacity:1;fill-rule:evenodd"
       id="path5" />
  </g>
</svg>
