<svg width="841.89" height="595.276" xmlns="http://www.w3.org/2000/svg" xmlns:xlink="http://www.w3.org/1999/xlink">
 <defs>
  <linearGradient id="a">
   <stop offset="0" stop-color="#2c6b6f"/>
  </linearGradient>
  <linearGradient xlink:href="#a" id="b" x1="0" x2="1" y1="0.5" y2="0.5"/>
  <linearGradient xlink:href="#a" id="c" x1="0" x2="1" y1="0.50001" y2="0.50001"/>
  <linearGradient xlink:href="#a" id="f" x1="0" x2="1" y1="0.5" y2="0.5"/>
 </defs>
 <g>
  <title>Layer 1</title>
  <path d="m272.05701,229.843c-0.20999,1.16899 -0.465,2.81 -0.76599,4.90199c-0.29199,2.10201 -0.49301,3.733 -0.60202,4.88101c-3.81299,0.65598 -7.20697,0.98499 -10.19897,0.98499c-2.883,0 -5.57401,-0.40999 -8.05501,-1.21999s-4.76201,-2.14401 -6.83301,-3.99002c-2.08,-1.856 -3.558,-4.04001 -4.452,-6.543c-0.884,-2.502 -1.33099,-5.30098 -1.33099,-8.409q0,-5.444 1.806,-9.783c1.19499,-2.892 2.92799,-5.312 5.181,-7.24001c2.254,-1.93799 4.726,-3.312 7.40799,-4.14299a28.1,28.1 0 0 1 8.338,-1.25c2.63602,0 5.89301,0.39 9.78,1.168l0.05402,2.513c0.02701,1.097 0.082,2.297 0.14603,3.62l0.18201,3.405c-2.08002,-0.55399 -3.767,-0.92299 -5.06302,-1.118s-2.48999,-0.298 -3.59399,-0.298c-2.39999,0 -4.57001,0.54402 -6.495,1.62001c-1.91602,1.08701 -3.43002,2.65601 -4.53401,4.718c-1.104,2.06 -1.66,4.34801 -1.66,6.85001c0,2.27699 0.465,4.235 1.386,5.87599q1.395,2.44501 3.74997,3.78401c1.578,0.892 3.52002,1.33298 5.83801,1.33298q1.89099,0 4.12299,-0.338c1.487,-0.226 3.34802,-0.66701 5.59201,-1.323m4.78,9.968l0.47504,-6.47101l1.03,-22.479l0.293,-12.09q3.70801,0.06 5.58301,0.061c1.62299,0 3.41098,-0.02 5.37299,-0.061l-0.60199,9.23001l-0.97601,22.73399l-0.20999,9.07599c-1.91599,-0.01999 -3.63,-0.03101 -5.164,-0.03101l-5.802,0.03101l-0.00003,0.00002zm16.832,0c0.246,-2.451 0.42905,-4.461 0.54703,-6.04001c0.12802,-1.59 0.24597,-3.61 0.35602,-6.08099a401,401 0 0 0 0.29999,-8.174c0.09201,-2.994 0.16501,-6.46001 0.20999,-10.408q3.47702,0.06 5.556,0.061c1.26801,0 3.08398,-0.02 5.45602,-0.061c-0.29202,3.783 -0.50201,7.116 -0.62006,9.98799a274,274 0 0 0 -0.24698,9.106c-0.064,5.692 -0.10001,9.56801 -0.10001,11.60901c-2.12601,-0.041 -3.95001,-0.06201 -5.492,-0.06201q-2.272,0 -5.966,0.06201m2.51804,-34.94901l0.98499,-2.48199c0.246,-0.584 0.52002,-1.27101 0.82001,-2.071l0.82199,-2.09201c1.815,0.041 3.59402,0.061 5.32703,0.061c1.44199,0 3.23898,-0.02 5.39999,-0.061l-2.31601,2.90201c-0.18298,0.226 -0.58398,0.74899 -1.20499,1.59c-0.62,0.84001 -1.15802,1.558 -1.62302,2.153c-1.71503,-0.041 -3.12003,-0.06099 -4.224,-0.06099c-0.85699,0 -2.19,0.01999 -3.98599,0.06099m14.45001,34.94902c0.51999,-4.554 0.91199,-9.578 1.185,-15.08502c0.27399,-5.49698 0.44699,-10.70598 0.49298,-15.618c2.14398,0.03999 3.996,0.061 5.547,0.061q2.70901,0 5.20001,-0.061l-0.23804,4.091c0.58401,-0.73801 1.08603,-1.323 1.51404,-1.74301c0.42996,-0.42999 0.95801,-0.851 1.58795,-1.25099c0.638,-0.41 1.30405,-0.739 2.01602,-1.00499a13.5,13.5 0 0 1 2.33499,-0.60501a15,15 0 0 1 2.655,-0.226q1.91605,0 3.75,0.46199c1.21204,0.30801 2.23401,0.748 3.05499,1.32301a7.65,7.65 0 0 1 3.147,4.86c0.17401,0.97499 0.26501,1.98999 0.26501,3.02499c0,0.75998 -0.073,2.40999 -0.21899,4.933l-0.44702,10.87999a141,141 0 0 0 -0.13699,5.959a223,223 0 0 0 -5.05399,-0.06201q-3.18802,0 -5.80103,0.06201c0.164,-1.82599 0.34601,-4.53299 0.52802,-8.13199c0.18298,-3.60002 0.28299,-6.13301 0.28299,-7.60002c0,-2.25499 -0.392,-3.82399 -1.16699,-4.71599c-0.776,-0.89301 -1.76099,-1.334 -2.93799,-1.334c-1.04001,0 -2.01602,0.37999 -2.93701,1.13899c-0.92099,0.769 -1.62399,1.866 -2.12601,3.32201s-0.85699,3.84599 -1.05798,7.16899c-0.21002,3.32202 -0.34702,6.70601 -0.42001,10.15201a226,226 0 0 0 -5.21799,-0.06201q-2.66901,0 -5.802,0.06201m39.00699,-34.51801c0.11005,-2.38 0.16504,-4.256 0.16504,-5.64c0,-0.39999 -0.01001,-0.944 -0.02805,-1.62c2.15305,0.03999 3.95001,0.06 5.41,0.06q3.01001,0 5.28201,-0.06a35,35 0 0 0 -0.11002,1.558l-0.155,3.72299c-0.03598,0.55301 -0.05499,1.22 -0.05499,1.97899a219,219 0 0 0 -5.07199,-0.062c-1.66901,0 -3.48502,0.02 -5.43701,0.062m-1.69699,34.51802c0.24701,-2.451 0.42999,-4.461 0.548,-6.04001c0.12799,-1.59001 0.246,-3.61 0.35599,-6.08099c0.11801,-2.46201 0.21899,-5.19 0.30002,-8.174c0.09198,-2.994 0.16498,-6.46002 0.20999,-10.408q3.47699,0.06 5.556,0.061c1.26801,0 3.08301,-0.02 5.45599,-0.061c-0.29199,3.783 -0.50201,7.116 -0.621,9.98799a274,274 0 0 0 -0.246,9.106c-0.064,5.692 -0.10001,9.56801 -0.10001,11.60901c-2.12598,-0.041 -3.94998,-0.06201 -5.49298,-0.06201q-2.271,0 -5.966,0.06201m40.01099,-9.599c-0.09,0.79999 -0.29999,2.27698 -0.629,4.42l-0.68399,4.81c-2.79999,0.77899 -5.547,1.16899 -8.22,1.16899c-1.94199,0 -3.64801,-0.226 -5.117,-0.657c-1.724,-0.52299 -3.284,-1.446 -4.65295,-2.76799a12.16,12.16 0 0 1 -3.08301,-4.84001c-0.76599,-2.185 -1.14999,-4.62599 -1.14999,-7.33299c0,-2.48199 0.375,-4.871 1.12299,-7.17799c0.74802,-2.308 1.86002,-4.205 3.32001,-5.692c1.45999,-1.49701 3.08398,-2.49199 4.87201,-3.00499q2.668,-0.76901 5.91098,-0.76901c1.259,0 2.53601,0.07199 3.82202,0.22601s2.87399,0.49199 4.76199,1.00499l0.05499,0.68701c0.04599,0.71799 0.091,1.45598 0.11899,2.20499c0.01801,0.748 0.082,1.92799 0.164,3.54799l0.155,2.666q-3.81799,-1.476 -6.75998,-1.47699c-1.405,0 -2.64502,0.30801 -3.70401,0.91299c-1.05801,0.605 -1.84201,1.487 -2.353,2.636q-0.755,1.722 -0.75699,4q0,2.304 0.68396,3.855c0.45599,1.04602 1.177,1.82501 2.17999,2.338c0.99399,0.52301 2.09003,0.78001 3.28403,0.78001c0.61096,0 1.323,-0.07201 2.15302,-0.216c0.82999,-0.133 1.55099,-0.297 2.17099,-0.461q0.91501,-0.26201 2.33499,-0.862m7.435,-12.36699c0.33801,-1.97 0.548,-3.32301 0.63901,-4.071c0.091,-0.73901 0.237,-1.908 0.42902,-3.49701c5.12698,-1.272 9.53299,-1.908 13.20999,-1.908c2.09698,0 4.02197,0.26701 5.76495,0.8c1.742,0.52299 3.10101,1.38499 4.07706,2.56401s1.46896,2.87099 1.46896,5.07599c0,1.11801 -0.13696,3.64 -0.401,7.56799c-0.26498,3.91701 -0.46597,9.065 -0.60202,15.43401a223,223 0 0 0 -5.21896,-0.06201c-1.67798,0 -3.466,0.02 -5.35498,0.06201c0.24698,-2.20499 0.51099,-6.75801 0.81198,-13.65999c-0.67499,0.37 -1.20398,0.636 -1.58701,0.78998q-0.573,0.246 -2.00699,0.73802c-0.96701,0.32799 -1.715,0.595 -2.25299,0.81998a5.2,5.2 0 0 0 -1.414,0.86201c-0.40201,0.338 -0.68402,0.69701 -0.84799,1.06699a2.8,2.8 0 0 0 -0.25601,1.22c0,0.68701 0.24701,1.28201 0.73001,1.774c0.48297,0.48201 1.25,0.728 2.30798,0.728c0.37399,0 0.77499,-0.03 1.21301,-0.10199c0.42999,-0.07201 1.022,-0.23601 1.76999,-0.513q-0.78,2.27699 -1.86099,6.645q-2.30002,0.43001 -4.35101,0.43001c-2.20801,0 -4.04999,-0.34802 -5.51999,-1.035q-2.203,-1.04599 -3.39301,-3.353c-0.79401,-1.55 -1.186,-3.08702 -1.186,-4.636q0,-1.41499 0.43802,-2.769a9.4,9.4 0 0 1 1.37698,-2.645c0.62,-0.862 1.35001,-1.59999 2.17999,-2.205q1.26001,-0.92 3.42102,-1.733c1.44998,-0.54399 3.285,-1.04599 5.50998,-1.528q1.38202,-0.30699 2.54602,-0.646c0.76599,-0.23599 1.323,-0.42999 1.64999,-0.605q0.49399,-0.25999 0.79495,-0.595a2.1,2.1 0 0 0 0.43701,-0.718c0.09201,-0.256 0.13699,-0.513 0.13699,-0.78999c0,-0.76901 -0.28299,-1.36301 -0.84799,-1.77301c-0.56601,-0.42099 -1.405,-0.62599 -2.5,-0.62599c-3.056,0 -6.823,0.964 -11.31201,2.892m106.90799,12.92102q-0.34201,1.79999 -1.314,8.67601c-2.07001,0.47098 -3.81299,0.77898 -5.22699,0.933a40,40 0 0 1 -4.28802,0.23598c-2.125,0 -4.08698,-0.16399 -5.86499,-0.493c-1.78799,-0.328 -3.32999,-0.92299 -4.62601,-1.763a11.6,11.6 0 0 1 -3.25598,-3.12801q-1.314,-1.87599 -1.99802,-4.461a20.7,20.7 0 0 1 -0.68399,-5.312c0,-2.56401 0.45599,-5.076 1.36801,-7.52699c0.90298,-2.451 2.07999,-4.369 3.51199,-5.74301c1.44199,-1.384 3.09299,-2.369 4.96298,-2.94299a19.2,19.2 0 0 1 5.75601,-0.87201c2.02499,0 3.96799,0.26701 5.81097,0.8c1.85199,0.52301 3.41202,1.45601 4.69803,2.769c1.28601,1.32301 2.19901,2.81001 2.74597,4.47101c0.53799,1.66101 0.81198,3.45599 0.81198,5.37399c0,1.14801 -0.10999,2.41 -0.32794,3.815l-18.802,0.03c-0.01804,0.31801 -0.02701,0.60501 -0.02701,0.87201c0,2.153 0.69296,3.743 2.07001,4.76799c1.37799,1.01601 3.05698,1.528 5.04498,1.528q1.76801,0 4.04196,-0.461c1.505,-0.308 3.375,-0.83 5.59201,-1.569m-16.51196,-9.722l8.849,0c0.01801,-0.338 0.02701,-0.625 0.02701,-0.871c0,-1.036 -0.164,-1.92799 -0.492,-2.66699c-0.33801,-0.73801 -0.81201,-1.271 -1.42401,-1.61a4.3,4.3 0 0 0 -2.07999,-0.513c-0.53799,0 -1.048,0.093 -1.55002,0.28799a4.1,4.1 0 0 0 -1.36002,0.84001c-0.39996,0.37 -0.73801,0.78999 -1.00296,1.27199a6.7,6.7 0 0 0 -0.59305,1.38501a20,20 0 0 0 -0.37396,1.87599m36.371,18.767c0.34698,-3.528 0.62,-6.707 0.82202,-9.52699c0.19995,-2.83 0.37299,-6.112 0.51996,-9.834c0.15399,-3.733 0.26404,-7.65999 0.33704,-11.80399q0.10999,-6.21501 0.10999,-9.875q3.33801,0.092 5.39001,0.092c1.42395,0 3.16595,-0.05098 5.20996,-0.133c2.052,-0.093 4.04004,-0.144 5.98401,-0.144c2.28003,0 4.30603,0.10199 6.09399,0.308c1.33203,0.133 2.54504,0.42999 3.64001,0.871q1.64203,0.662 2.76398,1.59999a9.4,9.4 0 0 1 1.87,2.12299c0.50201,0.78 0.88501,1.692 1.16803,2.748c0.27301,1.04602 0.40997,2.17401 0.40997,3.37402c0,1.34299 -0.15497,2.605 -0.45599,3.77399a11.3,11.3 0 0 1 -1.43201,3.302a10,10 0 0 1 -2.45398,2.67601q-1.492,1.12599 -4.15997,2.29799l1.38696,3.82501a126,126 0 0 0 1.258,3.25l3.57703,8.81998c0.164,0.38 0.44598,1.12802 0.85699,2.25601a525,525 0 0 0 -5.93903,-0.06201c-1.28595,0 -3.38397,0.02 -6.31195,0.06201c-0.28302,-1.04599 -0.80304,-2.985 -1.55103,-5.81499c-0.30103,-1.18002 -0.55701,-2.10202 -0.776,-2.73802c-0.41998,-1.425 -1.05798,-3.425 -1.888,-5.99901l-2.755,-8.52199c0.96698,0.205 1.90601,0.308 2.83704,0.308q1.94299,0.002 3.52997,-0.65601c1.05902,-0.44099 1.862,-1.118 2.409,-2.041c0.53802,-0.91299 0.81104,-1.877 0.81104,-2.90199c0,-0.851 -0.20001,-1.61 -0.61005,-2.257c-0.40997,-0.646 -1.05896,-1.127 -1.93396,-1.44501c-0.88501,-0.31799 -2.245,-0.48199 -4.078,-0.48199c-0.62,0 -1.26801,0.00999 -1.93402,0.04002c-0.66602,0.03098 -1.44202,0.062 -2.336,0.08298c-0.237,4.10202 -0.43799,9.11601 -0.62,15.02299a819,819 0 0 0 -0.35602,17.403a546,546 0 0 0 -5.802,-0.062c-1.02997,0 -2.89996,0.02 -5.59198,0.062m64.57001,-9.045q-0.34302,1.8 -1.31403,8.67601c-2.07098,0.47099 -3.81299,0.77899 -5.22699,0.933a40,40 0 0 1 -4.28802,0.23599c-2.12598,0 -4.08698,-0.164 -5.86597,-0.493c-1.78802,-0.328 -3.33002,-0.923 -4.625,-1.763a11.6,11.6 0 0 1 -3.25598,-3.12802q-1.31403,-1.87599 -1.99805,-4.461a20.7,20.7 0 0 1 -0.685,-5.312c0,-2.564 0.45599,-5.076 1.36902,-7.52699c0.90302,-2.451 2.08002,-4.369 3.51202,-5.74301c1.44098,-1.384 3.09198,-2.36899 4.96295,-2.94298a19.2,19.2 0 0 1 5.75604,-0.87202c2.02496,0 3.96796,0.26701 5.81,0.8c1.85297,0.52301 3.41296,1.45601 4.69897,2.769c1.28601,1.32301 2.198,2.81001 2.74603,4.47102c0.53796,1.661 0.81195,3.45598 0.81195,5.37398c0,1.14801 -0.10999,2.41 -0.32898,3.815l-18.80096,0.03c-0.01801,0.31801 -0.02704,0.60501 -0.02704,0.87201c0,2.153 0.69299,3.74301 2.07001,4.76799c1.37799,1.01602 3.05603,1.528 5.04498,1.528c1.177,0 2.52704,-0.15399 4.04102,-0.461c1.505,-0.308 3.37598,-0.83 5.59198,-1.569m-16.513,-9.722l8.85004,0c0.01697,-0.338 0.02698,-0.625 0.02698,-0.871c0,-1.036 -0.164,-1.92798 -0.49298,-2.66698c-0.33704,-0.73802 -0.81201,-1.27101 -1.42303,-1.61a4.3,4.3 0 0 0 -2.07996,-0.513c-0.53802,0 -1.04901,0.09299 -1.54999,0.28798a4.1,4.1 0 0 0 -1.36005,0.84001c-0.401,0.37001 -0.73901,0.78999 -1.00299,1.27199a6.7,6.7 0 0 0 -0.59302,1.38501a20,20 0 0 0 -0.375,1.87599m21.59399,32.85701c0.328,-4.112 0.61005,-8.21399 0.83905,-12.29602c0.401,-7.004 0.67499,-12.87 0.82996,-17.60698c0.146,-4.748 0.21899,-9.43501 0.21899,-14.09001q5.44305,-0.92401 8.52002,-1.23099a62,62 0 0 1 6.16699,-0.30801c2.573,0 4.935,0.29701 7.09705,0.903c2.16296,0.59399 3.90497,1.66101 5.21796,3.179q1.97101,2.29199 2.95599,5.44499c0.66602,2.10202 0.995,4.30701 0.995,6.604c0,2.11301 -0.26495,4.14301 -0.80298,6.12199c-0.53802,1.97 -1.35999,3.74301 -2.47198,5.33301c-1.104,1.58 -2.38098,2.748 -3.823,3.517q-2.16199,1.14 -4.81604,1.13899q-1.31195,0.00201 -2.71899,-0.28699a13.3,13.3 0 0 1 -2.67297,-0.82001c-0.84003,-0.37001 -1.54102,-0.729 -2.10699,-1.09799s-1.26801,-0.91301 -2.10699,-1.61l-0.28302,8.388c-0.12799,3.84601 -0.18298,6.748 -0.18298,8.71701a272,272 0 0 0 -5.31,-0.06201c-1.276,0 -3.12799,0.01999 -5.54504,0.06201m12.315,-36.23001q-0.21899,1.33701 -0.30096,2.18401a65,65 0 0 0 -0.15503,2.286a43,43 0 0 0 -0.08197,2.308c0,1.62001 0.22797,2.98401 0.68402,4.08101c0.45599,1.108 1.09497,1.959 1.90698,2.56401s1.68701,0.90201 2.61798,0.90201c0.98499,0 1.888,-0.30701 2.71002,-0.93301c0.82996,-0.625 1.48596,-1.569 1.96997,-2.81c0.48303,-1.25 0.72003,-2.65599 0.72003,-4.224c0,-2.123 -0.50201,-3.826 -1.51404,-5.118c-1.013,-1.28201 -2.48999,-1.92799 -4.42499,-1.92799c-1.21301,0 -2.58997,0.226 -4.13202,0.687m40.349,-9.302q3.32202,0 6.38501,1.138c2.04401,0.77 3.76801,1.85699 5.17303,3.29199a13.3,13.3 0 0 1 3.12,5.02501c0.66595,1.907 1.00299,3.96899 1.00299,6.174c0,2.14302 -0.29999,4.173 -0.89398,6.112c-0.60205,1.92799 -1.61401,3.74301 -3.03802,5.43501c-1.43201,1.69199 -3.24701,2.963 -5.44598,3.804s-4.53302,1.26201 -6.99701,1.26201c-2.26202,0 -4.44202,-0.37001 -6.53101,-1.108c-2.08002,-0.748 -3.83203,-1.825 -5.22699,-3.25c-1.40601,-1.42601 -2.45502,-3.12802 -3.15704,-5.108a18.6,18.6 0 0 1 -1.05798,-6.245c0,-2.18402 0.34601,-4.276 1.03003,-6.255c0.685,-1.98 1.76996,-3.76401 3.26697,-5.343c1.487,-1.59 3.33002,-2.8 5.51904,-3.651a18.8,18.8 0 0 1 6.84998,-1.282m-0.18298,8.86c-1.14001,0 -2.16205,0.32899 -3.05603,0.985c-0.88501,0.66699 -1.56,1.63 -2.01599,2.892q-0.68402,1.907 -0.68402,4.153c0,2.19499 0.49304,3.87599 1.46899,5.045q1.47705,1.754 3.69403,1.754a4.95,4.95 0 0 0 3.02899,-1.00499c0.88501,-0.66701 1.56,-1.66101 2.01599,-2.964c0.45599,-1.312 0.68402,-2.70699 0.68402,-4.21402q-0.00201,-1.84598 -0.53802,-3.35399c-0.35596,-0.99399 -0.94,-1.79401 -1.75195,-2.39q-1.21704,-0.90401 -2.84601,-0.90201m49.69995,22.58202a260,260 0 0 0 -5.08197,-0.062c-1.67798,0 -3.35699,0.01999 -5.05402,0.062l-0.03601,-4.123c-0.64795,0.91299 -1.18597,1.59001 -1.633,2.041a8.5,8.5 0 0 1 -1.45996,1.19a8.7,8.7 0 0 1 -1.76001,0.892q-0.97198,0.384 -2.24402,0.584a15.4,15.4 0 0 1 -2.573,0.216q-2.12097,0 -3.99597,-0.554a8.3,8.3 0 0 1 -3.31104,-1.88701q-1.435,-1.32301 -1.95197,-3.015c-0.34705,-1.12802 -0.52002,-2.43002 -0.52002,-3.91702q0,-0.54198 0.08197,-1.68201l0.42004,-6.82999c0.12701,-2.502 0.24597,-5.28101 0.34601,-8.327q0.10999,-2.79999 0.10999,-5.291c2.20697,0.03999 4.08698,0.061 5.62799,0.061c1.57001,0 3.29303,-0.02 5.18103,-0.061l-0.83002,11.45399c-0.12701,1.744 -0.19098,2.933 -0.20001,3.569c-0.01001,0.625 -0.01801,1.056 -0.01801,1.27101q-0.00201,3.185 1.13,4.308a3.68,3.68 0 0 0 2.70099,1.11699c0.42004,0 0.84802,-0.071 1.26801,-0.215a4.5,4.5 0 0 0 1.22302,-0.605a4.5,4.5 0 0 0 0.92999,-0.90202c0.30103,-0.37999 0.56598,-0.84099 0.80298,-1.38498c0.28302,-0.666 0.492,-1.384 0.63904,-2.14302c0.19,-1.06699 0.33698,-2.42 0.44598,-4.04999c0.073,-1.18001 0.18298,-3.23001 0.31,-6.13301l0.229,-6.286c2.30798,0.03999 4.19598,0.061 5.68298,0.061q2.48999,0 5.008,-0.061c-0.401,5.09599 -0.71997,9.937 -0.948,14.52q-0.34296,6.892 -0.51996,16.183m5.82898,-0.554c-0.073,-0.882 -0.13702,-1.815 -0.21002,-2.79001a189,189 0 0 0 -0.34698,-4.01999l-0.21002,-2.173c1.724,0.769 3.20203,1.343 4.44305,1.71201c1.23999,0.37999 2.38995,0.56401 3.42999,0.56401c0.87598,0 1.578,-0.09201 2.11597,-0.26602c0.54803,-0.185 0.94,-0.44098 1.18604,-0.78c0.24695,-0.338 0.375,-0.687 0.375,-1.04599a1.8,1.8 0 0 0 -0.284,-0.95401c-0.18201,-0.30699 -0.60205,-0.72699 -1.25806,-1.271a137,137 0 0 1 -3.83197,-3.282q-1.65601,-1.46001 -2.48999,-2.61501a8.9,8.9 0 0 1 -1.27704,-2.45999a8.6,8.6 0 0 1 -0.43799,-2.72801c0,-1.672 0.42004,-3.21999 1.26801,-4.66699c0.83899,-1.435 2.08899,-2.481 3.73004,-3.138c1.64294,-0.646 3.64996,-0.974 6.01196,-0.974c2.47302,0 5.62,0.37 9.46002,1.108l0.43799,8.368q-3.21198,-1.416 -6.19403,-1.416c-1.39496,0 -2.41699,0.16501 -3.047,0.483c-0.63,0.328 -0.94,0.81999 -0.94,1.49699c0,0.21501 0.03705,0.43001 0.11005,0.625c0.06396,0.205 0.19995,0.40999 0.383,0.636c0.18298,0.215 0.41998,0.44101 0.69397,0.67699q0.40802,0.339 2.00702,1.60002a50,50 0 0 1 2.49902,2.082c0.995,0.881 1.75098,1.692 2.28094,2.44c0.52002,0.75899 0.92102,1.55899 1.19501,2.40999s0.41003,1.74301 0.41003,2.687c0,1.425 -0.31,2.72801 -0.92102,3.91701c-0.61102,1.2 -1.54199,2.19501 -2.78198,2.995a12.1,12.1 0 0 1 -4.02301,1.67102a21.3,21.3 0 0 1 -4.461,0.46201c-1.03101,0 -2.32599,-0.10301 -3.88599,-0.298c-1.56,-0.205 -3.36603,-0.554 -5.43701,-1.056m42.547,-30.888c2.21698,0 4.34198,0.38 6.38599,1.138c2.04303,0.77 3.76703,1.85699 5.172,3.29199a13.3,13.3 0 0 1 3.12,5.02501c0.66602,1.907 1.00305,3.96899 1.00305,6.174c0,2.14302 -0.30005,4.173 -0.89301,6.112c-0.60303,1.92799 -1.61505,3.74301 -3.03802,5.43501c-1.43298,1.69199 -3.24799,2.963 -5.44702,3.804s-4.53296,1.26201 -6.99597,1.26201c-2.263,0 -4.44299,-0.37001 -6.53198,-1.108c-2.08002,-0.748 -3.83203,-1.825 -5.22705,-3.25c-1.40497,-1.42601 -2.45398,-3.12802 -3.15698,-5.108a18.6,18.6 0 0 1 -1.05798,-6.245c0,-2.18402 0.34698,-4.276 1.03101,-6.255s1.76996,-3.76401 3.26599,-5.343c1.487,-1.59 3.33002,-2.8 5.51898,-3.651a18.8,18.8 0 0 1 6.85004,-1.282m-0.18201,8.86c-1.14001,0 -2.16199,0.32899 -3.05603,0.985q-1.33002,1 -2.01697,2.892q-0.68402,1.907 -0.68402,4.153c0,2.19499 0.49298,3.87599 1.46899,5.045q1.47699,1.754 3.69403,1.754a4.95,4.95 0 0 0 3.02997,-1.00499c0.88403,-0.66701 1.55902,-1.66101 2.01501,-2.964c0.45599,-1.312 0.68402,-2.70699 0.68402,-4.214c0,-1.23 -0.18201,-2.349 -0.53802,-3.354c-0.35498,-0.99399 -0.94,-1.79399 -1.75098,-2.39q-1.21802,-0.90399 -2.84601,-0.90198m-272.38004,22.582a228,228 0 0 0 -4.76199,-0.062q-2.14801,0 -5.20001,0.062l0.15601,-3.79401a31,31 0 0 1 -1.81598,1.845c-0.52002,0.472 -1.186,0.923 -1.99802,1.364a11.6,11.6 0 0 1 -2.61801,1.026c-0.92999,0.23601 -1.89697,0.35901 -2.89999,0.35901c-1.707,0 -3.31198,-0.349 -4.79999,-1.05701a10.7,10.7 0 0 1 -3.80301,-2.98399c-1.04999,-1.29201 -1.83398,-2.83 -2.354,-4.59401a19.6,19.6 0 0 1 -0.77499,-5.517q0,-4.06 1.423,-7.937c0.94,-2.58502 2.17999,-4.61502 3.70401,-6.09201c1.53198,-1.487 3.25598,-2.53299 5.172,-3.14801c1.91602,-0.605 3.996,-0.91298 6.22998,-0.91298c1.479,0 3.21204,0.144 5.19101,0.431c0.13699,-2.39 0.22,-5.73199 0.26501,-10.03001q3.284,0.063 5.36398,0.06201c1.797,0 3.603,-0.02 5.43701,-0.061c-0.50201,5.94701 -0.948,13.218 -1.332,21.802c-0.383,8.573 -0.58401,14.992 -0.58401,19.23801m-9.51398,-23.19701q-1.42401,-0.37 -2.68301,-0.37c-1.742,0 -3.22,0.37999 -4.43301,1.12999c-1.21295,0.748 -2.15295,1.91699 -2.81,3.51599c-0.647,1.59 -0.97598,3.159 -0.97598,4.69701q0,1.75401 0.54703,3.138c0.375,0.933 0.931,1.67201 1.69699,2.21501a4.25,4.25 0 0 0 2.53598,0.81c0.98599,0 1.88,-0.30699 2.69998,-0.933c0.81302,-0.61502 1.47,-1.528 1.98001,-2.72801c0.51105,-1.2 0.867,-2.63501 1.04999,-4.286q0.28406,-2.47801 0.39206,-7.18901" fill="url(#b)" fill-rule="evenodd" id="svg_1"/>
  <path d="m240.79201,339.15399c-0.39999,-7.48401 -0.882,-13.47 -1.412,-17.95999c3.53,1.74899 6.69,2.957 9.44902,3.62399c2.75899,0.685 5.181,1.02798 7.24998,1.02798c2.76001,0 4.94101,-0.45099 6.561,-1.353s2.439,-2.21799 2.439,-3.98502c0,-0.59497 -0.07999,-1.172 -0.23999,-1.71298c-0.16101,-0.55899 -0.45001,-1.17203 -0.90002,-1.85699c-0.44894,-0.686 -1.07394,-1.42499 -1.892,-2.23599l-8.91997,-8.67401c-2.084,-1.965 -3.54401,-3.38998 -4.362,-4.27399c-1.66901,-1.80301 -2.98401,-3.48001 -3.914,-5.03s-1.605,-3.12 -2.037,-4.72501c-0.43401,-1.60501 -0.642,-3.29999 -0.642,-5.10303c0,-2.146 0.33699,-4.25598 1.00999,-6.31198a19.7,19.7 0 0 1 3.048,-5.78799c1.34798,-1.785 3.12801,-3.336 5.37398,-4.63501a21.6,21.6 0 0 1 7.15399,-2.668a42,42 0 0 1 7.87701,-0.72198c5.31,0 11.08401,0.686 17.34,2.056c0.08002,2.43399 0.19299,4.65201 0.32101,6.672s0.43298,5.57199 0.89798,10.63998c-2.90298,-1.29999 -5.54999,-2.19998 -7.95599,-2.70599c-2.38998,-0.504 -4.45999,-0.75699 -6.19199,-0.75699c-2.45401,0 -4.508,0.505 -6.12802,1.53299s-2.43799,2.29001 -2.43799,3.80499q0,1.05402 0.38501,2.05502c0.23999,0.668 0.72198,1.461 1.41199,2.36298c0.69,0.88303 1.604,1.875 2.74301,2.957c1.13898,1.06403 2.91998,2.66901 5.35699,4.77802l3.401,3.01199c1.01001,0.92001 2.10199,2.02002 3.27298,3.31799c1.15503,1.31601 2.16501,2.59601 3.01501,3.85901c0.867,1.28 1.508,2.43399 1.97299,3.49802c0.45001,1.04599 0.802,2.10999 1.01102,3.19199a17,17 0 0 1 0.33701,3.46201c0,3.17398 -0.67401,6.185 -2.02103,9.052c-1.34799,2.88498 -3.27298,5.24799 -5.74298,7.08701a22.7,22.7 0 0 1 -8.181,3.87698c-2.96802,0.73999 -6.09601,1.11801 -9.384,1.11801c-5.08501,0 -11.51802,-0.83002 -19.26601,-2.48801m57.65199,-37.54401c0.59402,-3.46201 0.96301,-5.84201 1.12302,-7.159c0.16,-1.298 0.41699,-3.354 0.754,-6.14899c9.01498,-2.23602 16.763,-3.354 23.228,-3.354c3.69,0 7.07401,0.46899 10.138,1.40601c3.064,0.91998 5.45401,2.435 7.17001,4.50897c1.71698,2.07303 2.58298,5.04901 2.58298,8.92603c0,1.965 -0.23999,6.401 -0.70599,13.30798c-0.465,6.888 -0.81799,15.94 -1.05899,27.13901c-3.08002,-0.07199 -6.14301,-0.10901 -9.17502,-0.10901c-2.952,0 -6.09598,0.03702 -9.41599,0.10901c0.43298,-3.87701 0.89801,-11.884 1.427,-24.01999c-1.18701,0.64999 -2.117,1.11798 -2.79001,1.38898c-0.67499,0.28799 -1.84601,0.72101 -3.53,1.298c-1.70001,0.577 -3.01599,1.04602 -3.96201,1.44299s-1.78,0.90201 -2.487,1.51501c-0.70502,0.595 -1.203,1.22598 -1.49103,1.875c-0.30496,0.63101 -0.44998,1.35199 -0.44998,2.146c0,1.20801 0.43399,2.254 1.28403,3.12c0.84998,0.84702 2.19699,1.28 4.05795,1.28c0.65802,0 1.36401,-0.05399 2.134,-0.17999c0.754,-0.12701 1.79599,-0.41501 3.112,-0.90201q-1.37201,4.004 -3.27301,11.685q-4.04196,0.75702 -7.651,0.75702c-3.88199,0 -7.12299,-0.61301 -9.70499,-1.82101q-3.87399,-1.84 -5.96799,-5.897c-1.39502,-2.72299 -2.08502,-5.427 -2.08502,-8.14999q0,-2.48895 0.77002,-4.87c0.513,-1.586 1.315,-3.13699 2.422,-4.65201a17.2,17.2 0 0 1 3.83398,-3.87698c1.47601,-1.082 3.48102,-2.091 6.01501,-3.047c2.55099,-0.95602 5.77499,-1.84003 9.69,-2.68701q2.42999,-0.54102 4.47501,-1.13599c1.34698,-0.41501 2.32599,-0.75702 2.90298,-1.06403c0.578,-0.306 1.043,-0.64899 1.396,-1.04599c0.36902,-0.414 0.62601,-0.82999 0.77002,-1.26199c0.15997,-0.45001 0.23999,-0.90201 0.23999,-1.388c0,-1.353 -0.49701,-2.39902 -1.491,-3.12c-0.995,-0.74002 -2.47,-1.10001 -4.396,-1.10001c-5.37302,0 -11.99802,1.69501 -19.89001,5.08499m53.37,38.62601c0.914,-8.00699 1.604,-16.84302 2.08502,-26.526c0.48099,-9.66602 0.78598,-18.82599 0.866,-27.46301c3.76999,0.07202 7.026,0.108 9.75299,0.108q4.76401,0 9.14401,-0.108l-0.41702,7.194c1.026,-1.298 1.90802,-2.32599 2.66299,-3.065c0.75302,-0.75699 1.68402,-1.49698 2.79001,-2.19998a18.5,18.5 0 0 1 3.54599,-1.767a24,24 0 0 1 4.10602,-1.064a26,26 0 0 1 4.668,-0.397q3.37,0 6.59299,0.81198c2.134,0.54001 3.93002,1.31601 5.37402,2.32602a13.46,13.46 0 0 1 5.534,8.547c0.30499,1.71298 0.465,3.49799 0.465,5.32001c0,1.33398 -0.12796,4.23798 -0.38501,8.67297l-0.78601,19.13303c-0.15994,3.78699 -0.23996,7.267 -0.23996,10.47699a393,393 0 0 0 -8.88699,-0.10901q-5.60599,0 -10.20203,0.10901c0.289,-3.20999 0.61002,-7.97 0.92999,-14.29999s0.49805,-10.78302 0.49805,-13.362c0,-3.96701 -0.69,-6.72601 -2.05405,-8.29501s-3.09601,-2.34399 -5.16501,-2.34399c-1.82898,0 -3.54498,0.66699 -5.16498,2.00104c-1.62003,1.353 -2.85602,3.28195 -3.73801,5.84299s-1.508,6.76196 -1.86002,12.60397a427,427 0 0 0 -0.73798,17.85303a399,399 0 0 0 -9.17603,-0.10901q-4.69199,0 -10.202,0.10901m100.931,-15.47205a189,189 0 0 0 -1.45999,8.69205l-1.04199,6.45499c-3.112,0.74002 -5.535,1.22601 -7.267,1.42502a45,45 0 0 1 -5.07001,0.306c-2.66202,0 -5.03601,-0.25201 -7.10501,-0.77499c-2.06998,-0.505 -3.802,-1.44302 -5.18201,-2.79501c-1.37997,-1.353 -2.32602,-2.92099 -2.82303,-4.67001a20.7,20.7 0 0 1 -0.754,-5.60898c0,-0.36002 0.01602,-0.97302 0.048,-1.875s0.14502,-2.90302 0.32101,-6.005l1.02698,-18.30301l-7.36298,0c0.16,-2.43399 0.30499,-5.62601 0.41699,-9.59299l0.14401,-4.905l7.81198,0c0.19299,-1.62302 0.43301,-5.15701 0.70599,-10.603l8.05301,-1.87601c1.47601,-0.32401 4.62,-1.13602 9.43201,-2.452a446,446 0 0 0 -0.46503,14.92999l10.66702,0c-0.25601,7.30399 -0.36899,12.13696 -0.36899,14.49896l-10.78,0l-0.56003,13.23599c-0.06497,1.966 -0.09698,3.22803 -0.09698,3.80502c0,1.69498 0.16,3.10098 0.49701,4.23798c0.32098,1.11801 0.914,1.92905 1.74899,2.43402c0.83395,0.487 1.74799,0.73999 2.759,0.73999c0.754,0 1.54001,-0.05499 2.35797,-0.181s2.26199,-0.487 4.34698,-1.11801m10.379,-23.15399c0.59302,-3.46201 0.96204,-5.84201 1.12201,-7.159c0.16,-1.29797 0.418,-3.354 0.754,-6.14899c9.01599,-2.23602 16.763,-3.354 23.22803,-3.354c3.68997,0 7.07401,0.46899 10.138,1.40604c3.064,0.91995 5.45401,2.435 7.16998,4.50894c1.71698,2.07306 2.58301,5.04901 2.58301,8.92606c0,1.965 -0.23999,6.401 -0.70599,13.30795c-0.465,6.888 -0.81799,15.94 -1.05798,27.13904c-3.08002,-0.07199 -6.14401,-0.10901 -9.17599,-0.10901c-2.95102,0 -6.095,0.03702 -9.41602,0.10901c0.43301,-3.87701 0.89801,-11.884 1.42801,-24.01999c-1.18701,0.64996 -2.11801,1.11798 -2.79199,1.38898c-0.673,0.28796 -1.84402,0.72101 -3.52902,1.298c-1.69998,0.577 -3.01599,1.04599 -3.96201,1.44296s-1.78,0.90201 -2.48599,1.51501c-0.70599,0.595 -1.203,1.22598 -1.492,1.875c-0.30499,0.63101 -0.44998,1.35199 -0.44998,2.146c0,1.20801 0.43399,2.254 1.284,3.12003c0.85001,0.84702 2.198,1.28 4.05798,1.28c0.65802,0 1.36401,-0.05402 2.134,-0.17999c0.754,-0.12701 1.797,-0.41501 3.112,-0.90201q-1.371,4.004 -3.272,11.685q-4.04398,0.75702 -7.65198,0.75702c-3.88202,0 -7.12201,-0.61301 -9.70502,-1.82101q-3.875,-1.84 -5.96698,-5.897c-1.39603,-2.72299 -2.086,-5.427 -2.086,-8.14999q0,-2.48898 0.76999,-4.87c0.513,-1.586 1.31601,-3.13699 2.422,-4.65201a17.2,17.2 0 0 1 3.83401,-3.87698c1.47598,-1.082 3.48099,-2.091 6.01599,-3.047c2.54999,-0.95602 5.77499,-1.84003 9.689,-2.68701q2.42999,-0.54102 4.47501,-1.13599c1.34799,-0.41501 2.32599,-0.75702 2.90399,-1.06403c0.577,-0.306 1.04199,-0.64899 1.39499,-1.04599c0.37003,-0.414 0.62601,-0.82999 0.77002,-1.26199c0.16,-0.45001 0.23999,-0.90201 0.23999,-1.388c0,-1.353 -0.496,-2.39902 -1.491,-3.12c-0.99399,-0.74002 -2.47,-1.10001 -4.39499,-1.10001c-5.37402,0 -11.99902,1.69501 -19.89102,5.08496m70.02002,38.62604l3.89801,-7.61005l24.28601,-51.5l2.58295,-5.75299c0.75403,-1.69501 1.79602,-4.12997 3.14404,-7.30301q8.27698,0.108 12.07898,0.108q6.617,0 12.271,-0.108l6.84998,22.05301l13.97205,42.39499l2.72699,7.71805q-8.133,-0.108 -9.86499,-0.10901c-2.63104,0 -6.513,0.03702 -11.61401,0.10901c-1.38,-5.82501 -3.36902,-12.677 -5.98401,-20.55704l-23.65997,0q-4.06799,9.33005 -8.422,20.55704q-8.758,-0.108 -10.73199,-0.10901c-2.39001,0 -6.224,0.03702 -11.53302,0.10901m36.36499,-35.92001l14.59698,0c-3.64001,-12.42499 -5.63,-19.27798 -5.98297,-20.53998c-2.05304,5.17499 -3.802,9.41296 -5.245,12.72998l-3.36902,7.81zm49.776,35.92001l0.83398,-11.379l1.81299,-39.52704l0.513,-21.26001q6.521,0.108 9.81702,0.108c2.85602,0 6,-0.03598 9.44904,-0.108l-1.05902,16.229l-1.716,39.978l-0.37,15.95901a857,857 0 0 0 -9.07898,-0.05402l-10.20203,0.05402l0,0.00003zm32.58002,-60.698c0.19196,-4.18301 0.28796,-7.483 0.28796,-9.91803c0,-0.70297 -0.01599,-1.659 -0.04797,-2.849c3.78601,0.07199 6.94598,0.10901 9.513,0.10901q5.29401,0 9.28699,-0.10901a63,63 0 0 0 -0.19202,2.74103l-0.27197,6.54599a54,54 0 0 0 -0.09698,3.48001a384,384 0 0 0 -8.91901,-0.108c-2.935,0 -6.12701,0.03601 -9.56,0.108m-2.98401,60.698c0.43298,-4.31003 0.75397,-7.84399 0.96198,-10.621c0.22504,-2.79501 0.43402,-6.34799 0.62604,-10.694c0.20898,-4.327 0.38501,-9.12399 0.53003,-14.371c0.15997,-5.26599 0.28796,-11.36099 0.36902,-18.30301q6.11096,0.108 9.76801,0.108c2.22998,0 5.422,-0.03598 9.59296,-0.108c-0.513,6.65302 -0.88196,12.51401 -1.08997,17.56302a484,484 0 0 0 -0.43402,16.013c-0.112,10.008 -0.17596,16.82401 -0.17596,20.41299a511,511 0 0 0 -9.65704,-0.10901q-3.995,0 -10.49097,0.10901m70.35699,-16.879c-0.16003,1.40695 -0.53003,4.00296 -1.10699,7.77197l-1.203,8.45798c-4.92499,1.37006 -9.75299,2.05502 -14.453,2.05502c-3.41699,0 -6.41602,-0.397 -9,-1.15402c-3.03101,-0.91995 -5.77399,-2.54196 -8.17999,-4.86899c-2.487,-2.39801 -4.28302,-5.23001 -5.422,-8.51001c-1.34802,-3.84198 -2.021,-8.134 -2.021,-12.89398c0,-4.36398 0.65698,-8.56601 1.97296,-12.62302c1.315,-4.05698 3.27203,-7.39297 5.83905,-10.008c2.56598,-2.633 5.42096,-4.38199 8.56598,-5.28299q4.69202,-1.353 10.39398,-1.353c2.21399,0 4.46002,0.12601 6.72101,0.397c2.26202,0.26999 5.05402,0.86499 8.37402,1.767l0.09601,1.20798c0.07996,1.26202 0.15997,2.56003 0.20996,3.87701c0.03101,1.31601 0.14301,3.38998 0.28802,6.23999l0.27197,4.68802q-6.71301,-2.59702 -11.88605,-2.59702c-2.46997,0 -4.65198,0.54102 -6.513,1.60501s-3.23999,2.61499 -4.13898,4.634c-0.88202,2.01999 -1.33002,4.36398 -1.33002,7.03299c0,2.70502 0.39996,4.95901 1.20197,6.78c0.802,1.84 2.07007,3.20999 3.83411,4.112c1.74799,0.92001 3.67291,1.37 5.7749,1.37c1.0741,0 2.32605,-0.12598 3.78503,-0.379a39,39 0 0 0 3.81799,-0.811c1.07501,-0.30698 2.43896,-0.81097 4.10699,-1.51498m55.22998,0.974q-0.60101,3.16501 -2.31,15.25598c-3.64099,0.82901 -6.70496,1.37003 -9.19202,1.64001c-2.48596,0.271 -4.98798,0.41501 -7.53894,0.41501c-3.737,0 -7.18604,-0.28799 -10.31403,-0.86502c-3.14502,-0.577 -5.85602,-1.62299 -8.13403,-3.10199a20.3,20.3 0 0 1 -5.72595,-5.5q-2.31,-3.29999 -3.513,-7.84399a36.4,36.4 0 0 1 -1.203,-9.34c0,-4.509 0.802,-8.927 2.40601,-13.237c1.58795,-4.31 3.65698,-7.68201 6.17596,-10.09802c2.534,-2.43399 5.43799,-4.16498 8.72601,-5.17499a33.8,33.8 0 0 1 10.12201,-1.53299c3.56097,0 6.97797,0.46899 10.21899,1.40601c3.25598,0.91998 5.99902,2.56097 8.26001,4.87c2.263,2.32599 3.867,4.94 4.83002,7.86099c0.94598,2.922 1.42694,6.077 1.42694,9.45001c0,2.01999 -0.19299,4.237 -0.57697,6.70798l-33.06097,0.05402a27,27 0 0 0 -0.04901,1.53198c0,3.78702 1.21997,6.582 3.64197,8.38602c2.422,1.785 5.37299,2.68698 8.87,2.68698c2.07001,0 4.44403,-0.271 7.10699,-0.81198c2.64703,-0.54102 5.935,-1.45999 9.83301,-2.75897m-29.03497,-17.095l15.56,0c0.03198,-0.595 0.04797,-1.10004 0.04797,-1.53201c0,-1.82199 -0.28796,-3.38998 -0.86597,-4.689c-0.59302,-1.298 -1.427,-2.23599 -2.50201,-2.83099c-1.091,-0.595 -2.31,-0.90201 -3.65802,-0.90201a7.4,7.4 0 0 0 -2.72699,0.50497a7.2,7.2 0 0 0 -2.39001,1.479a8.7,8.7 0 0 0 -1.76398,2.23599c-0.466,0.83002 -0.81799,1.659 -1.04303,2.43402c-0.20795,0.79398 -0.43298,1.89398 -0.65796,3.29999" fill="url(#c)" fill-rule="evenodd" id="svg_2"/>
  <path d="m143.23,160.006l26.147,0l-4.76701,39.37001l-45.23299,0l-4.801,39.65598l-41.51799,0l2.23,-18.423c4.03699,-33.33199 34.61001,-60.60298 67.94199,-60.60298m62.90602,39.37001l-4.802,39.65598l-41.51802,0l4.802,-39.65598l41.51802,0zm-10.28001,84.89697l-2.23,18.42502c-4.03601,33.33099 -34.61,60.60199 -67.94101,60.60199l-26.156,0l4.767,-39.37l45.24,0l4.802,-39.65701l41.51801,0zm-133.074,39.62903l4.798,-39.62997l41.518,0l-4.799,39.62997l-41.51699,0l-0.00001,0z" fill="url(#f)" fill-rule="evenodd" id="svg_5"/>
 </g>
</svg>