<svg xmlns="http://www.w3.org/2000/svg" xmlns:xlink="http://www.w3.org/1999/xlink" width="1122.518" height="793.699" viewBox="0 0 841.89 595.276"><defs><linearGradient id="a"><stop offset="0" style="stop-color:#2c6b6f;stop-opacity:1"/></linearGradient><linearGradient xlink:href="#a" id="b" x1="239.819" x2="758.048" y1="225.967" y2="225.967" gradientUnits="userSpaceOnUse"/><linearGradient xlink:href="#a" id="c" x1="239.38" x2="778.703" y1="304.207" y2="304.207" gradientUnits="userSpaceOnUse"/><linearGradient xlink:href="#a" id="d" x1="241.916" x2="534.828" y1="379.532" y2="379.532" gradientUnits="userSpaceOnUse"/><linearGradient xlink:href="#a" id="e" x1="415.205" x2="774.819" y1="379.178" y2="379.178" gradientUnits="userSpaceOnUse"/><linearGradient xlink:href="#a" id="f" x1="62.782" x2="206.136" y1="297.653" y2="297.653" gradientUnits="userSpaceOnUse"/></defs><path d="M272.057 229.843c-.21 1.169-.465 2.81-.766 4.902-.292 2.102-.493 3.733-.602 4.881-3.813.656-7.207.985-10.199.985-2.883 0-5.574-.41-8.055-1.22s-4.762-2.144-6.833-3.99c-2.08-1.856-3.558-4.04-4.452-6.543-.884-2.502-1.331-5.301-1.331-8.409q0-5.444 1.806-9.783c1.195-2.892 2.928-5.312 5.181-7.24 2.254-1.938 4.726-3.312 7.408-4.143a28.1 28.1 0 0 1 8.338-1.25c2.636 0 5.893.39 9.78 1.168l.054 2.513c.027 1.097.082 2.297.146 3.62l.182 3.405c-2.08-.554-3.767-.923-5.063-1.118s-2.49-.298-3.594-.298c-2.4 0-4.57.544-6.495 1.62-1.916 1.087-3.43 2.656-4.534 4.718-1.104 2.06-1.66 4.348-1.66 6.85 0 2.277.465 4.235 1.386 5.876q1.395 2.445 3.75 3.784c1.578.892 3.52 1.333 5.838 1.333q1.891 0 4.123-.338c1.487-.226 3.348-.667 5.592-1.323m4.78 9.968.475-6.471 1.03-22.479.293-12.09q3.708.06 5.583.061c1.623 0 3.411-.02 5.373-.061l-.602 9.23-.976 22.734-.21 9.076c-1.916-.02-3.63-.031-5.164-.031zm16.832 0c.246-2.451.429-4.461.547-6.04.128-1.59.246-3.61.356-6.081a401 401 0 0 0 .3-8.174c.092-2.994.165-6.46.21-10.408q3.477.06 5.556.061c1.268 0 3.084-.02 5.456-.061-.292 3.783-.502 7.116-.62 9.988a274 274 0 0 0-.247 9.106c-.064 5.692-.1 9.568-.1 11.609-2.126-.041-3.95-.062-5.492-.062q-2.272 0-5.966.062m2.518-34.949.985-2.482c.246-.584.52-1.271.82-2.071l.822-2.092c1.815.041 3.594.061 5.327.061 1.442 0 3.239-.02 5.4-.061l-2.316 2.902c-.183.226-.584.749-1.205 1.59-.62.84-1.158 1.558-1.623 2.153-1.715-.041-3.12-.061-4.224-.061-.857 0-2.19.02-3.986.061m14.45 34.949c.52-4.554.912-9.578 1.185-15.085.274-5.497.447-10.706.493-15.618 2.144.04 3.996.061 5.547.061q2.709 0 5.2-.061l-.238 4.091c.584-.738 1.086-1.323 1.514-1.743.43-.43.958-.851 1.588-1.251.638-.41 1.304-.739 2.016-1.005a13.5 13.5 0 0 1 2.335-.605 15 15 0 0 1 2.655-.226q1.916 0 3.75.462c1.212.308 2.234.748 3.055 1.323a7.65 7.65 0 0 1 3.147 4.86c.174.975.265 1.99.265 3.025 0 .76-.073 2.41-.219 4.933l-.447 10.88a141 141 0 0 0-.137 5.959 223 223 0 0 0-5.054-.062q-3.188 0-5.801.062c.164-1.826.346-4.533.528-8.132.183-3.6.283-6.133.283-7.6 0-2.255-.392-3.824-1.167-4.716-.776-.893-1.761-1.334-2.938-1.334-1.04 0-2.016.38-2.937 1.139-.921.769-1.624 1.866-2.126 3.322s-.857 3.846-1.058 7.169c-.21 3.322-.347 6.706-.42 10.152a226 226 0 0 0-5.218-.062q-2.669 0-5.802.062m39.007-34.518c.11-2.38.165-4.256.165-5.64 0-.4-.01-.944-.028-1.62 2.153.04 3.95.06 5.41.06q3.01 0 5.282-.06a35 35 0 0 0-.11 1.558l-.155 3.723c-.036.553-.055 1.22-.055 1.979a219 219 0 0 0-5.072-.062c-1.669 0-3.485.02-5.437.062m-1.697 34.518c.247-2.451.43-4.461.548-6.04.128-1.59.246-3.61.356-6.081.118-2.462.219-5.19.3-8.174.092-2.994.165-6.46.21-10.408q3.477.06 5.556.061c1.268 0 3.083-.02 5.456-.061-.292 3.783-.502 7.116-.621 9.988a274 274 0 0 0-.246 9.106c-.064 5.692-.1 9.568-.1 11.609-2.126-.041-3.95-.062-5.493-.062q-2.271 0-5.966.062m40.011-9.599c-.09.8-.3 2.277-.629 4.42l-.684 4.81c-2.8.779-5.547 1.169-8.22 1.169-1.942 0-3.648-.226-5.117-.657-1.724-.523-3.284-1.446-4.653-2.768a12.16 12.16 0 0 1-3.083-4.84c-.766-2.185-1.15-4.626-1.15-7.333 0-2.482.375-4.871 1.123-7.178.748-2.308 1.86-4.205 3.32-5.692 1.46-1.497 3.084-2.492 4.872-3.005q2.668-.769 5.911-.769c1.259 0 2.536.072 3.822.226s2.874.492 4.762 1.005l.055.687c.046.718.091 1.456.119 2.205.018.748.082 1.928.164 3.548l.155 2.666q-3.818-1.476-6.76-1.477c-1.405 0-2.645.308-3.704.913-1.058.605-1.842 1.487-2.353 2.636q-.755 1.722-.757 4 0 2.304.684 3.855c.456 1.046 1.177 1.825 2.18 2.338.994.523 2.09.78 3.284.78.611 0 1.323-.072 2.153-.216.83-.133 1.551-.297 2.171-.461q.915-.262 2.335-.862m7.435-12.367c.338-1.97.548-3.323.639-4.071.091-.739.237-1.908.429-3.497 5.127-1.272 9.533-1.908 13.21-1.908 2.097 0 4.022.267 5.765.8 1.742.523 3.101 1.385 4.077 2.564s1.469 2.871 1.469 5.076c0 1.118-.137 3.64-.401 7.568-.265 3.917-.466 9.065-.602 15.434a223 223 0 0 0-5.219-.062c-1.678 0-3.466.02-5.355.062.247-2.205.511-6.758.812-13.66-.675.37-1.204.636-1.587.79q-.573.246-2.007.738c-.967.328-1.715.595-2.253.82a5.2 5.2 0 0 0-1.414.862c-.402.338-.684.697-.848 1.067a2.8 2.8 0 0 0-.256 1.22c0 .687.247 1.282.73 1.774.483.482 1.25.728 2.308.728.374 0 .775-.03 1.213-.102.43-.072 1.022-.236 1.77-.513q-.78 2.277-1.861 6.645-2.3.43-4.351.43c-2.208 0-4.05-.348-5.52-1.035q-2.203-1.046-3.393-3.353c-.794-1.55-1.186-3.087-1.186-4.636q0-1.415.438-2.769a9.4 9.4 0 0 1 1.377-2.645c.62-.862 1.35-1.6 2.18-2.205q1.26-.92 3.421-1.733c1.45-.544 3.285-1.046 5.51-1.528q1.382-.307 2.546-.646c.766-.236 1.323-.43 1.65-.605q.494-.26.795-.595a2.1 2.1 0 0 0 .437-.718c.092-.256.137-.513.137-.79 0-.769-.283-1.363-.848-1.773-.566-.421-1.405-.626-2.5-.626-3.056 0-6.823.964-11.312 2.892M502.3 230.766q-.342 1.8-1.314 8.676c-2.07.471-3.813.779-5.227.933a40 40 0 0 1-4.288.236c-2.125 0-4.087-.164-5.865-.493-1.788-.328-3.33-.923-4.626-1.763a11.6 11.6 0 0 1-3.256-3.128q-1.314-1.876-1.998-4.461a20.7 20.7 0 0 1-.684-5.312c0-2.564.456-5.076 1.368-7.527.903-2.451 2.08-4.369 3.512-5.743 1.442-1.384 3.093-2.369 4.963-2.943a19.2 19.2 0 0 1 5.756-.872c2.025 0 3.968.267 5.811.8 1.852.523 3.412 1.456 4.698 2.769 1.286 1.323 2.199 2.81 2.746 4.471.538 1.661.812 3.456.812 5.374 0 1.148-.11 2.41-.328 3.815l-18.802.03c-.018.318-.027.605-.027.872 0 2.153.693 3.743 2.07 4.768 1.378 1.016 3.057 1.528 5.045 1.528q1.768 0 4.042-.461c1.505-.308 3.375-.83 5.592-1.569m-16.512-9.722h8.849c.018-.338.027-.625.027-.871 0-1.036-.164-1.928-.492-2.667-.338-.738-.812-1.271-1.424-1.61a4.3 4.3 0 0 0-2.08-.513c-.538 0-1.048.093-1.55.288a4.1 4.1 0 0 0-1.36.84c-.4.37-.738.79-1.003 1.272a6.7 6.7 0 0 0-.593 1.385 20 20 0 0 0-.374 1.876m36.371 18.767c.347-3.528.62-6.707.822-9.527.2-2.83.373-6.112.52-9.834.154-3.733.264-7.66.337-11.804q.11-6.215.11-9.875 3.338.092 5.39.092c1.424 0 3.166-.051 5.21-.133 2.052-.093 4.04-.144 5.984-.144 2.28 0 4.306.102 6.094.308 1.332.133 2.545.43 3.64.871q1.642.662 2.764 1.6a9.4 9.4 0 0 1 1.87 2.123c.502.78.885 1.692 1.168 2.748.273 1.046.41 2.174.41 3.374 0 1.343-.155 2.605-.456 3.774a11.3 11.3 0 0 1-1.432 3.302 10 10 0 0 1-2.454 2.676q-1.492 1.126-4.16 2.298l1.387 3.825a126 126 0 0 0 1.258 3.25l3.577 8.82c.164.38.446 1.128.857 2.256a525 525 0 0 0-5.939-.062c-1.286 0-3.384.02-6.312.062-.283-1.046-.803-2.985-1.551-5.815-.301-1.18-.557-2.102-.776-2.738-.42-1.425-1.058-3.425-1.888-5.999l-2.755-8.522c.967.205 1.906.308 2.837.308q1.943.002 3.53-.656c1.059-.441 1.862-1.118 2.409-2.041.538-.913.811-1.877.811-2.902 0-.851-.2-1.61-.61-2.257-.41-.646-1.059-1.127-1.934-1.445-.885-.318-2.245-.482-4.078-.482-.62 0-1.268.01-1.934.04-.666.031-1.442.062-2.336.083-.237 4.102-.438 9.116-.62 15.023a819 819 0 0 0-.356 17.403 546 546 0 0 0-5.802-.062c-1.03 0-2.9.02-5.592.062m64.57-9.045q-.343 1.8-1.314 8.676c-2.071.471-3.813.779-5.227.933a40 40 0 0 1-4.288.236c-2.126 0-4.087-.164-5.866-.493-1.788-.328-3.33-.923-4.625-1.763a11.6 11.6 0 0 1-3.256-3.128q-1.314-1.876-1.998-4.461a20.7 20.7 0 0 1-.685-5.312c0-2.564.456-5.076 1.369-7.527.903-2.451 2.08-4.369 3.512-5.743 1.441-1.384 3.092-2.369 4.963-2.943a19.2 19.2 0 0 1 5.756-.872c2.025 0 3.968.267 5.81.8 1.853.523 3.413 1.456 4.699 2.769 1.286 1.323 2.198 2.81 2.746 4.471.538 1.661.812 3.456.812 5.374 0 1.148-.11 2.41-.329 3.815l-18.801.03c-.018.318-.027.605-.027.872 0 2.153.693 3.743 2.07 4.768 1.378 1.016 3.056 1.528 5.045 1.528 1.177 0 2.527-.154 4.041-.461 1.505-.308 3.376-.83 5.592-1.569m-16.513-9.722h8.85c.017-.338.027-.625.027-.871 0-1.036-.164-1.928-.493-2.667-.337-.738-.812-1.271-1.423-1.61a4.3 4.3 0 0 0-2.08-.513c-.538 0-1.049.093-1.55.288a4.1 4.1 0 0 0-1.36.84c-.401.37-.739.79-1.003 1.272a6.7 6.7 0 0 0-.593 1.385 20 20 0 0 0-.375 1.876m21.594 32.857c.328-4.112.61-8.214.839-12.296.401-7.004.675-12.87.83-17.607.146-4.748.219-9.435.219-14.09q5.443-.924 8.52-1.231a62 62 0 0 1 6.167-.308c2.573 0 4.935.297 7.097.903 2.163.594 3.905 1.661 5.218 3.179q1.971 2.292 2.956 5.445c.666 2.102.995 4.307.995 6.604 0 2.113-.265 4.143-.803 6.122-.538 1.97-1.36 3.743-2.472 5.333-1.104 1.58-2.381 2.748-3.823 3.517q-2.162 1.14-4.816 1.139-1.312.002-2.719-.287a13.3 13.3 0 0 1-2.673-.82c-.84-.37-1.541-.729-2.107-1.098s-1.268-.913-2.107-1.61l-.283 8.388c-.128 3.846-.183 6.748-.183 8.717a272 272 0 0 0-5.31-.062c-1.276 0-3.128.02-5.545.062m12.315-36.23q-.219 1.337-.301 2.184a65 65 0 0 0-.155 2.286 43 43 0 0 0-.082 2.308c0 1.62.228 2.984.684 4.081.456 1.108 1.095 1.959 1.907 2.564s1.687.902 2.618.902c.985 0 1.888-.307 2.71-.933.83-.625 1.486-1.569 1.97-2.81.483-1.25.72-2.656.72-4.224 0-2.123-.502-3.826-1.514-5.118-1.013-1.282-2.49-1.928-4.425-1.928-1.213 0-2.59.226-4.132.687m40.349-9.302q3.322 0 6.385 1.138c2.044.77 3.768 1.857 5.173 3.292a13.3 13.3 0 0 1 3.12 5.025c.666 1.907 1.003 3.969 1.003 6.174 0 2.143-.3 4.173-.894 6.112-.602 1.928-1.614 3.743-3.038 5.435-1.432 1.692-3.247 2.963-5.446 3.804s-4.533 1.262-6.997 1.262c-2.262 0-4.442-.37-6.531-1.108-2.08-.748-3.832-1.825-5.227-3.25-1.406-1.426-2.455-3.128-3.157-5.108a18.6 18.6 0 0 1-1.058-6.245c0-2.184.346-4.276 1.03-6.255.685-1.98 1.77-3.764 3.267-5.343 1.487-1.59 3.33-2.8 5.519-3.651a18.8 18.8 0 0 1 6.85-1.282m-.183 8.86c-1.14 0-2.162.329-3.056.985-.885.667-1.56 1.63-2.016 2.892q-.684 1.907-.684 4.153c0 2.195.493 3.876 1.469 5.045q1.477 1.754 3.694 1.754a4.95 4.95 0 0 0 3.029-1.005c.885-.667 1.56-1.661 2.016-2.964.456-1.312.684-2.707.684-4.214q-.002-1.846-.538-3.354c-.356-.994-.94-1.794-1.752-2.39q-1.217-.904-2.846-.902m49.7 22.582a260 260 0 0 0-5.082-.062c-1.678 0-3.357.02-5.054.062l-.036-4.123c-.648.913-1.186 1.59-1.633 2.041a8.5 8.5 0 0 1-1.46 1.19 8.7 8.7 0 0 1-1.76.892q-.972.384-2.244.584a15.4 15.4 0 0 1-2.573.216q-2.121 0-3.996-.554a8.3 8.3 0 0 1-3.311-1.887q-1.435-1.323-1.952-3.015c-.347-1.128-.52-2.43-.52-3.917q0-.542.082-1.682l.42-6.83c.127-2.502.246-5.281.346-8.327q.11-2.8.11-5.291c2.207.04 4.087.061 5.628.061 1.57 0 3.293-.02 5.181-.061l-.83 11.454c-.127 1.744-.191 2.933-.2 3.569-.01.625-.018 1.056-.018 1.271q-.002 3.185 1.13 4.308a3.68 3.68 0 0 0 2.701 1.117c.42 0 .848-.071 1.268-.215a4.5 4.5 0 0 0 1.223-.605 4.5 4.5 0 0 0 .93-.902c.301-.38.566-.841.803-1.385.283-.666.492-1.384.639-2.143.19-1.067.337-2.42.446-4.05.073-1.18.183-3.23.31-6.133l.229-6.286c2.308.04 4.196.061 5.683.061q2.49 0 5.008-.061c-.401 5.096-.72 9.937-.948 14.52q-.343 6.892-.52 16.183m5.829-.554c-.073-.882-.137-1.815-.21-2.79a189 189 0 0 0-.347-4.02l-.21-2.173c1.724.769 3.202 1.343 4.443 1.712 1.24.38 2.39.564 3.43.564.876 0 1.578-.092 2.116-.266.548-.185.94-.441 1.186-.78.247-.338.375-.687.375-1.046a1.8 1.8 0 0 0-.284-.954c-.182-.307-.602-.727-1.258-1.271a137 137 0 0 1-3.832-3.282q-1.656-1.46-2.49-2.615a8.9 8.9 0 0 1-1.277-2.46 8.6 8.6 0 0 1-.438-2.728c0-1.672.42-3.22 1.268-4.667.839-1.435 2.089-2.481 3.73-3.138 1.643-.646 3.65-.974 6.012-.974 2.473 0 5.62.37 9.46 1.108l.438 8.368q-3.212-1.416-6.194-1.416c-1.395 0-2.417.165-3.047.483-.63.328-.94.82-.94 1.497 0 .215.037.43.11.625.064.205.2.41.383.636.183.215.42.441.694.677q.408.339 2.007 1.6a50 50 0 0 1 2.499 2.082c.995.881 1.751 1.692 2.281 2.44.52.759.921 1.559 1.195 2.41s.41 1.743.41 2.687c0 1.425-.31 2.728-.921 3.917-.611 1.2-1.542 2.195-2.782 2.995a12.1 12.1 0 0 1-4.023 1.671 21.3 21.3 0 0 1-4.461.462c-1.031 0-2.326-.103-3.886-.298-1.56-.205-3.366-.554-5.437-1.056m42.547-30.888c2.217 0 4.342.38 6.386 1.138 2.043.77 3.767 1.857 5.172 3.292a13.3 13.3 0 0 1 3.12 5.025c.666 1.907 1.003 3.969 1.003 6.174 0 2.143-.3 4.173-.893 6.112-.603 1.928-1.615 3.743-3.038 5.435-1.433 1.692-3.248 2.963-5.447 3.804s-4.533 1.262-6.996 1.262c-2.263 0-4.443-.37-6.532-1.108-2.08-.748-3.832-1.825-5.227-3.25-1.405-1.426-2.454-3.128-3.157-5.108a18.6 18.6 0 0 1-1.058-6.245c0-2.184.347-4.276 1.031-6.255s1.77-3.764 3.266-5.343c1.487-1.59 3.33-2.8 5.519-3.651a18.8 18.8 0 0 1 6.85-1.282m-.182 8.86c-1.14 0-2.162.329-3.056.985q-1.33 1-2.017 2.892-.684 1.907-.684 4.153c0 2.195.493 3.876 1.469 5.045q1.477 1.754 3.694 1.754a4.95 4.95 0 0 0 3.03-1.005c.884-.667 1.559-1.661 2.015-2.964.456-1.312.684-2.707.684-4.214 0-1.23-.182-2.349-.538-3.354-.355-.994-.94-1.794-1.751-2.39q-1.218-.904-2.846-.902m-272.38 22.582a228 228 0 0 0-4.762-.062q-2.148 0-5.2.062l.156-3.794a31 31 0 0 1-1.816 1.845c-.52.472-1.186.923-1.998 1.364a11.6 11.6 0 0 1-2.618 1.026c-.93.236-1.897.359-2.9.359-1.707 0-3.312-.349-4.8-1.057a10.7 10.7 0 0 1-3.803-2.984c-1.05-1.292-1.834-2.83-2.354-4.594a19.6 19.6 0 0 1-.775-5.517q0-4.06 1.423-7.937c.94-2.585 2.18-4.615 3.704-6.092 1.532-1.487 3.256-2.533 5.172-3.148 1.916-.605 3.996-.913 6.23-.913 1.479 0 3.212.144 5.191.431.137-2.39.22-5.732.265-10.03q3.284.063 5.364.062c1.797 0 3.603-.02 5.437-.061-.502 5.947-.948 13.218-1.332 21.802-.383 8.573-.584 14.992-.584 19.238m-9.514-23.197q-1.424-.37-2.683-.37c-1.742 0-3.22.38-4.433 1.13-1.213.748-2.153 1.917-2.81 3.516-.647 1.59-.976 3.159-.976 4.697q0 1.754.547 3.138c.375.933.931 1.672 1.697 2.215a4.25 4.25 0 0 0 2.536.81c.986 0 1.88-.307 2.7-.933.813-.615 1.47-1.528 1.98-2.728.511-1.2.867-2.635 1.05-4.286q.284-2.478.392-7.189" style="fill:url(#b);fill-opacity:1;fill-rule:evenodd"/><path d="M240.792 339.154c-.4-7.484-.882-13.47-1.412-17.96 3.53 1.749 6.69 2.957 9.449 3.624 2.759.685 5.181 1.028 7.25 1.028 2.76 0 4.941-.451 6.561-1.353s2.439-2.218 2.439-3.985c0-.595-.08-1.172-.24-1.713-.161-.559-.45-1.172-.9-1.857-.449-.686-1.074-1.425-1.892-2.236l-8.92-8.674c-2.084-1.965-3.544-3.39-4.362-4.274-1.669-1.803-2.984-3.48-3.914-5.03s-1.605-3.12-2.037-4.725c-.434-1.605-.642-3.3-.642-5.103 0-2.146.337-4.256 1.01-6.312a19.7 19.7 0 0 1 3.048-5.788c1.348-1.785 3.128-3.336 5.374-4.635a21.6 21.6 0 0 1 7.154-2.668 42 42 0 0 1 7.877-.722c5.31 0 11.084.686 17.34 2.056.08 2.434.193 4.652.321 6.672s.433 5.572.898 10.64c-2.903-1.3-5.55-2.2-7.956-2.706-2.39-.504-4.46-.757-6.192-.757-2.454 0-4.508.505-6.128 1.533s-2.438 2.29-2.438 3.805q0 1.054.385 2.055c.24.668.722 1.461 1.412 2.363.69.883 1.604 1.875 2.743 2.957 1.139 1.064 2.92 2.669 5.357 4.778l3.401 3.012c1.01.92 2.102 2.02 3.273 3.318 1.155 1.316 2.165 2.596 3.015 3.859.867 1.28 1.508 2.434 1.973 3.498.45 1.046.802 2.11 1.011 3.192a17 17 0 0 1 .337 3.462c0 3.174-.674 6.185-2.021 9.052-1.348 2.885-3.273 5.248-5.743 7.087a22.7 22.7 0 0 1-8.181 3.877c-2.968.74-6.096 1.118-9.384 1.118-5.085 0-11.518-.83-19.266-2.488m57.652-37.544c.594-3.462.963-5.842 1.123-7.159.16-1.298.417-3.354.754-6.149 9.015-2.236 16.763-3.354 23.228-3.354 3.69 0 7.074.469 10.138 1.406 3.064.92 5.454 2.435 7.17 4.509 1.717 2.073 2.583 5.049 2.583 8.926 0 1.965-.24 6.401-.706 13.308-.465 6.888-.818 15.94-1.059 27.139-3.08-.072-6.143-.109-9.175-.109-2.952 0-6.096.037-9.416.109.433-3.877.898-11.884 1.427-24.02-1.187.65-2.117 1.118-2.79 1.389-.675.288-1.846.721-3.53 1.298-1.7.577-3.016 1.046-3.962 1.443s-1.78.902-2.487 1.515c-.705.595-1.203 1.226-1.491 1.875-.305.631-.45 1.352-.45 2.146 0 1.208.434 2.254 1.284 3.12.85.847 2.197 1.28 4.058 1.28.658 0 1.364-.054 2.134-.18.754-.127 1.796-.415 3.112-.902q-1.372 4.004-3.273 11.685-4.042.757-7.651.757c-3.882 0-7.123-.613-9.705-1.821q-3.874-1.84-5.968-5.897c-1.395-2.723-2.085-5.427-2.085-8.15q0-2.489.77-4.87c.513-1.586 1.315-3.137 2.422-4.652a17.2 17.2 0 0 1 3.834-3.877c1.476-1.082 3.481-2.091 6.015-3.047 2.551-.956 5.775-1.84 9.69-2.687q2.43-.541 4.475-1.136c1.347-.415 2.326-.757 2.903-1.064.578-.306 1.043-.649 1.396-1.046.369-.414.626-.83.77-1.262.16-.45.24-.902.24-1.388 0-1.353-.497-2.399-1.491-3.12-.995-.74-2.47-1.1-4.396-1.1-5.373 0-11.998 1.695-19.89 5.085m53.37 38.626c.914-8.007 1.604-16.843 2.085-26.526.481-9.666.786-18.826.866-27.463 3.77.072 7.026.108 9.753.108q4.764 0 9.144-.108l-.417 7.194c1.026-1.298 1.908-2.326 2.663-3.065.753-.757 1.684-1.497 2.79-2.2a18.5 18.5 0 0 1 3.546-1.767 24 24 0 0 1 4.106-1.064 26 26 0 0 1 4.668-.397q3.37 0 6.593.812c2.134.54 3.93 1.316 5.374 2.326a13.46 13.46 0 0 1 5.534 8.547c.305 1.713.465 3.498.465 5.32 0 1.334-.128 4.238-.385 8.673l-.786 19.133c-.16 3.787-.24 7.267-.24 10.477a393 393 0 0 0-8.887-.109q-5.606 0-10.202.109c.289-3.21.61-7.97.93-14.3s.498-10.783.498-13.362c0-3.967-.69-6.726-2.054-8.295s-3.096-2.344-5.165-2.344c-1.829 0-3.545.667-5.165 2.001-1.62 1.353-2.856 3.282-3.738 5.843s-1.508 6.762-1.86 12.604a427 427 0 0 0-.738 17.853 399 399 0 0 0-9.176-.109q-4.692 0-10.202.109m100.931-15.472a189 189 0 0 0-1.46 8.692l-1.042 6.455c-3.112.74-5.535 1.226-7.267 1.425a45 45 0 0 1-5.07.306c-2.662 0-5.036-.252-7.105-.775-2.07-.505-3.802-1.443-5.182-2.795-1.38-1.353-2.326-2.921-2.823-4.67a20.7 20.7 0 0 1-.754-5.609c0-.36.016-.973.048-1.875s.145-2.903.321-6.005l1.027-18.303h-7.363c.16-2.434.305-5.626.417-9.593l.144-4.905h7.812c.193-1.623.433-5.157.706-10.603l8.053-1.876c1.476-.324 4.62-1.136 9.432-2.452a446 446 0 0 0-.465 14.93h10.667c-.256 7.304-.369 12.137-.369 14.499h-10.78l-.56 13.236c-.065 1.966-.097 3.228-.097 3.805 0 1.695.16 3.101.497 4.238.321 1.118.914 1.929 1.749 2.434.834.487 1.748.74 2.759.74.754 0 1.54-.055 2.358-.181s2.262-.487 4.347-1.118m10.379-23.154c.593-3.462.962-5.842 1.122-7.159.16-1.298.418-3.354.754-6.149 9.016-2.236 16.763-3.354 23.228-3.354 3.69 0 7.074.469 10.138 1.406 3.064.92 5.454 2.435 7.17 4.509 1.717 2.073 2.583 5.049 2.583 8.926 0 1.965-.24 6.401-.706 13.308-.465 6.888-.818 15.94-1.058 27.139-3.08-.072-6.144-.109-9.176-.109-2.951 0-6.095.037-9.416.109.433-3.877.898-11.884 1.428-24.02-1.187.65-2.118 1.118-2.792 1.389-.673.288-1.844.721-3.529 1.298-1.7.577-3.016 1.046-3.962 1.443s-1.78.902-2.486 1.515c-.706.595-1.203 1.226-1.492 1.875-.305.631-.45 1.352-.45 2.146 0 1.208.434 2.254 1.284 3.12.85.847 2.198 1.28 4.058 1.28.658 0 1.364-.054 2.134-.18.754-.127 1.797-.415 3.112-.902q-1.371 4.004-3.272 11.685-4.044.757-7.652.757c-3.882 0-7.122-.613-9.705-1.821q-3.875-1.84-5.967-5.897c-1.396-2.723-2.086-5.427-2.086-8.15q0-2.489.77-4.87c.513-1.586 1.316-3.137 2.422-4.652a17.2 17.2 0 0 1 3.834-3.877c1.476-1.082 3.481-2.091 6.016-3.047 2.55-.956 5.775-1.84 9.689-2.687q2.43-.541 4.475-1.136c1.348-.415 2.326-.757 2.904-1.064.577-.306 1.042-.649 1.395-1.046.37-.414.626-.83.77-1.262.16-.45.24-.902.24-1.388 0-1.353-.496-2.399-1.491-3.12-.994-.74-2.47-1.1-4.395-1.1-5.374 0-11.999 1.695-19.891 5.085m70.02 38.626 3.898-7.61 24.286-51.5 2.583-5.753c.754-1.695 1.796-4.13 3.144-7.303q8.277.108 12.079.108 6.617 0 12.271-.108l6.85 22.053 13.972 42.395 2.727 7.718q-8.133-.108-9.865-.109c-2.631 0-6.513.037-11.614.109-1.38-5.825-3.369-12.677-5.984-20.557h-23.66q-4.068 9.33-8.422 20.557-8.758-.108-10.732-.109c-2.39 0-6.224.037-11.533.109m36.365-35.92h14.597c-3.64-12.425-5.63-19.278-5.983-20.54-2.053 5.175-3.802 9.413-5.245 12.73zm49.776 35.92.834-11.379 1.813-39.527.513-21.26q6.521.108 9.817.108c2.856 0 6-.036 9.449-.108l-1.059 16.229-1.716 39.978-.37 15.959a857 857 0 0 0-9.079-.054zm32.58-60.698c.192-4.183.288-7.483.288-9.918 0-.703-.016-1.659-.048-2.849 3.786.072 6.946.109 9.513.109q5.294 0 9.287-.109a63 63 0 0 0-.192 2.741l-.272 6.546a54 54 0 0 0-.097 3.48 384 384 0 0 0-8.919-.108c-2.935 0-6.127.036-9.56.108m-2.984 60.698c.433-4.31.754-7.844.962-10.621.225-2.795.434-6.348.626-10.694.209-4.327.385-9.124.53-14.371.16-5.266.288-11.361.369-18.303q6.111.108 9.768.108c2.23 0 5.422-.036 9.593-.108-.513 6.653-.882 12.514-1.09 17.563a484 484 0 0 0-.434 16.013c-.112 10.008-.176 16.824-.176 20.413a511 511 0 0 0-9.657-.109q-3.995 0-10.491.109m70.357-16.879c-.16 1.407-.53 4.003-1.107 7.772l-1.203 8.458c-4.925 1.37-9.753 2.055-14.453 2.055-3.417 0-6.416-.397-9-1.154-3.031-.92-5.774-2.542-8.18-4.869-2.487-2.398-4.283-5.23-5.422-8.51-1.348-3.842-2.021-8.134-2.021-12.894 0-4.364.657-8.566 1.973-12.623 1.315-4.057 3.272-7.393 5.839-10.008 2.566-2.633 5.421-4.382 8.566-5.283q4.692-1.353 10.394-1.353c2.214 0 4.46.126 6.721.397 2.262.27 5.054.865 8.374 1.767l.096 1.208c.08 1.262.16 2.56.21 3.877.031 1.316.143 3.39.288 6.24l.272 4.688q-6.713-2.597-11.886-2.597c-2.47 0-4.652.541-6.513 1.605s-3.24 2.615-4.139 4.634c-.882 2.02-1.33 4.364-1.33 7.033 0 2.705.4 4.959 1.202 6.78.802 1.84 2.07 3.21 3.834 4.112 1.748.92 3.673 1.37 5.775 1.37 1.074 0 2.326-.126 3.785-.379a39 39 0 0 0 3.818-.811c1.075-.307 2.439-.811 4.107-1.515m55.23.974q-.601 3.165-2.31 15.256c-3.641.829-6.705 1.37-9.192 1.64-2.486.271-4.988.415-7.539.415-3.737 0-7.186-.288-10.314-.865-3.145-.577-5.856-1.623-8.134-3.102a20.3 20.3 0 0 1-5.726-5.5q-2.31-3.3-3.513-7.844a36.4 36.4 0 0 1-1.203-9.34c0-4.509.802-8.927 2.406-13.237 1.588-4.31 3.657-7.682 6.176-10.098 2.534-2.434 5.438-4.165 8.726-5.175a33.8 33.8 0 0 1 10.122-1.533c3.561 0 6.978.469 10.219 1.406 3.256.92 5.999 2.561 8.26 4.87 2.263 2.326 3.867 4.94 4.83 7.861.946 2.922 1.427 6.077 1.427 9.45 0 2.02-.193 4.237-.577 6.708l-33.061.054a27 27 0 0 0-.049 1.532c0 3.787 1.22 6.582 3.642 8.386 2.422 1.785 5.373 2.687 8.87 2.687 2.07 0 4.444-.271 7.107-.812 2.647-.541 5.935-1.46 9.833-2.759m-29.035-17.095h15.56c.032-.595.048-1.1.048-1.532 0-1.822-.288-3.39-.866-4.689-.593-1.298-1.427-2.236-2.502-2.831-1.091-.595-2.31-.902-3.658-.902a7.4 7.4 0 0 0-2.727.505 7.2 7.2 0 0 0-2.39 1.479 8.7 8.7 0 0 0-1.764 2.236c-.466.83-.818 1.659-1.043 2.434-.208.794-.433 1.894-.658 3.3" style="opacity:1;fill:url(#c);fill-rule:evenodd"/><path d="m249.894 366.587-2.31 19.081c-.055.493-.083.889-.083 1.201 0 1.222.727 1.958 2.183 2.2q1.344.228 1.344.549c0 .298-.35.451-1.05.451-.189 0-.413-.014-.658-.035a24 24 0 0 0-3.023-.173c-.889 0-1.673.035-2.344.097l-.616.056c-.343.034-.567.055-.658.055q-.764.001-.763-.423-.001-.325.72-.535c1.093-.27 1.702-.91 1.841-1.909l.12-1.055 2.42-19.72q.105-.768.106-1.214 0-1.81-1.932-2.173-1.175-.227-1.175-.569c0-.284.21-.43.637-.43q.511 0 1.602.146 1.031.145 2.344.145c1.015 0 2.176-.048 3.492-.145q1.73-.146 2.59-.146c2.085 0 3.757.604 5.024 1.812q1.901 1.8 1.903 4.768.002 2.664-1.581 4.921c-1.057 1.5-2.414 2.54-4.073 3.11q-1.335.467-3.373.465-.863 0-1.148-.042l-.762-.104q-1.05-.125-1.029-.5c.014-.18.182-.27.518-.27h.329l1.602.041c1.708 0 3.191-.715 4.465-2.138 1.266-1.422 1.903-3.088 1.903-4.997q-.001-2.445-1.84-4.15c-1.232-1.14-2.722-1.708-4.493-1.708q-1.196-.002-1.581.569-.379.573-.651 2.77m17.033 12.057 2.904 3.116q1.372 1.488 1.371 3.547c0 1.368-.545 2.534-1.644 3.492-1.092.958-2.421 1.437-3.996 1.437-1.19 0-2.204-.243-3.051-.73q-1.26-.717-1.26-1.748.002-1.27 1.253-1.27c.483 0 .938.34 1.35 1.02l.427.75q.567.978 1.659.978a3.04 3.04 0 0 0 2.071-.77q.882-.771.882-1.812c0-1.11-.546-2.228-1.638-3.367l-2.288-2.36c-1.05-1.09-1.575-2.248-1.575-3.484 0-1.319.449-2.346 1.351-3.089q1.346-1.112 3.709-1.11c2.197 0 3.296.638 3.296 1.922 0 .854-.427 1.285-1.28 1.285q-.64.001-1.071-.632l-.448-.639c-.427-.624-.987-.937-1.7-.937q-1.756 0-1.757 1.895c0 .646.476 1.486 1.435 2.506m9.804 2.97.853-5.024c.07-.368.105-.695.105-.993q.001-.812-1.203-.812h-1.106q-.903.001-.882-.424.023-.49.875-.492 1.87.001 3.625-.34c.448-.077.79-.119 1.035-.119q.429-.001.427.486l-.02.222-1.113 5.609q-.84 4.162-.84 6.337-.002 1.217.637 1.256c.622.042 1.231-.527 1.84-1.693.147-.313.315-.472.49-.472q.327.001.308.43c-.056.882-.58 1.853-1.589 2.902-1 1.055-1.896 1.582-2.68 1.582-.413 0-.748-.298-1.007-.902q-.391-.904-.392-2.319c0-1.069.21-2.81.637-5.233m3.505-16.533c.126.014.238.139.35.368q.327.633.413.736l.448.673q.19.262.19.41c0 .117-.106.277-.309.465-.3.305-.665.715-1.092 1.249-.167.201-.314.305-.455.305q-.242-.002-.433-.388c-.287-.597-.54-1.042-.756-1.326-.126-.18-.189-.32-.189-.43q.002-.221.203-.451l.58-.59c.07-.07.245-.292.533-.674.21-.243.378-.36.517-.347m15.753 19.782c-1.197 1.812-2.393 3.117-3.57 3.922a6.87 6.87 0 0 1-3.925 1.2c-1.218 0-2.19-.409-2.932-1.228-.735-.819-1.106-1.916-1.106-3.283q0-4.227 3.401-8.225 3.41-4.007 6.998-4.005c.924 0 1.693.145 2.295.444q.345.166.532.187c.26.028.504-.208.735-.694l.903-1.742c.217-.41.434-.61.636-.61.245 0 .372.124.372.367 0 .16-.05.361-.14.604-.169.444-.302 1.125-.413 2.027l-.162 1.36-.202 1.437-2.128 17.249q-.063.487-.063.736c0 .5.098.832.287 1.013.19.173.574.285 1.162.34l.567.062c.476.042.713.209.713.493 0 .306-.195.465-.594.465q-.125-.001-.532-.034a30 30 0 0 0-2.911-.132c-.93 0-1.715.028-2.345.083l-.595.049-.307.02q-.201.013-.308.014-.47-.002-.469-.388c0-.216.371-.417 1.113-.611.671-.18 1.133-.423 1.4-.743q.385-.48.51-1.562zm.657-5.213.224-1.818.098-1.02q.042-.467.042-.632c0-.528-.265-.986-.804-1.368q-.81-.57-1.91-.569c-1.498 0-2.94.826-4.312 2.485-.804.986-1.476 2.2-2.022 3.651q-.819 2.186-.819 3.963-.002 1.77.805 2.79.81 1.021 2.218 1.021c1.484 0 2.933-.902 4.332-2.714 1.134-1.45 1.848-3.387 2.148-5.789m17.621 1.944c-1.735 2.651-3.093 4.484-4.08 5.511a12.8 12.8 0 0 1-2.49 1.985q-1.386.854-2.142.854c-.44 0-.79-.229-1.064-.68-.273-.458-.413-1.041-.413-1.763q.002-1.624.497-4.186l.833-4.206c.203-1.034.308-1.763.308-2.2q-.002-.771-.434-.792-.389-.018-.945.555c-.37.382-.671.847-.888 1.382-.203.458-.427.687-.658.687q-.39.002-.392-.486 0-1.603 1.407-3.248c.937-1.09 1.875-1.638 2.806-1.638q1.624.002 1.623 2.554-.002.654-.119 1.381l-1.155 7.004c-.02.229-.07.562-.14 1.013l-.097.889a5 5 0 0 0-.042.59q0 .853.609.853c.454 0 1.133-.45 2.05-1.353.917-.91 1.854-2.055 2.806-3.443a25.8 25.8 0 0 0 3.73-8.12c.14-.5.28-.827.434-.98.154-.145.413-.222.783-.222q1.092 0 1.092.833 0 .23-.063.514l-1.029 4.734c-.671 3.054-1.007 5.351-1.007 6.871q0 1 .819 1 1.206-.002 2.414-2.242.262-.509.567-.507.398-.001.399.444c0 .98-.63 2.034-1.883 3.18-1.252 1.138-2.428 1.707-3.52 1.707-.93 0-1.4-.708-1.4-2.124 0-1.069.134-2.353.392-3.845l.218-1.16c.042-.229.097-.68.174-1.346m10.378.02.854-5.024c.07-.368.105-.695.105-.993q.002-.812-1.204-.812h-1.105q-.903.001-.882-.424.023-.49.875-.492c1.245 0 2.456-.112 3.624-.34q.67-.117 1.036-.119.429-.001.427.486l-.02.222-1.114 5.609q-.84 4.162-.84 6.337-.002 1.217.637 1.256c.623.042 1.232-.527 1.841-1.693.147-.313.315-.472.49-.472q.327.001.308.43c-.056.882-.581 1.853-1.589 2.902-1 1.055-1.896 1.582-2.68 1.582-.413 0-.749-.298-1.008-.902q-.39-.904-.392-2.319c0-1.069.21-2.81.637-5.233m3.506-16.533c.126.014.238.139.35.368q.327.633.413.736l.448.673q.189.262.189.41c0 .117-.105.277-.308.465-.301.305-.665.715-1.092 1.249-.168.201-.315.305-.455.305-.16 0-.308-.132-.434-.388-.287-.597-.539-1.042-.755-1.326-.127-.18-.19-.32-.19-.43q.002-.221.204-.451l.58-.59c.07-.07.245-.292.532-.674.21-.243.378-.36.518-.347m14.843 20.532q-3.56 4.623-7.306 4.623c-1 0-1.812-.382-2.45-1.139-.636-.756-.951-1.742-.951-2.943 0-1.603.385-3.304 1.148-5.115q1.145-2.71 2.974-4.679c1.812-1.936 3.716-2.908 5.696-2.908.693 0 1.463.132 2.295.396q.452.146.735.146.598-.001 1.47-1.41c.3-.465.538-.687.706-.673q.261.023.26.389 0 .158-.064.347c-.028.09-.112.472-.266 1.138l-.475 2.221c-.288 1.27-.567 2.909-.84 4.908-.273 1.992-.413 3.36-.413 4.088q0 2.529.798 2.527c.28 0 .63-.223 1.063-.674.427-.444.763-.93.994-1.444.19-.45.399-.673.616-.673.23 0 .35.14.35.424q-.002 1.3-1.63 3.102c-1.093 1.201-2.016 1.805-2.779 1.805-.539 0-.93-.306-1.19-.916-.266-.611-.51-1.791-.741-3.54m-.868-11.286q-2.163 0-4.115 2.436-1.29 1.605-2.183 4.054-.894 2.445-.896 4.352c0 2.02.903 3.026 2.715 3.026 1.148 0 2.317-.61 3.506-1.84 1.19-1.228 1.876-2.526 2.05-3.894q.149-1.135.315-1.908l.379-1.826q.335-1.518.482-2.047c.098-.382.147-.715.147-1.014q0-.508-.756-.923a3.35 3.35 0 0 0-1.644-.416m14.877 1.645-1.07 8.225c-.042.375-.063.784-.063 1.215 0 .652.16 1.2.49 1.63.329.438.742.653 1.231.653q1.313.001 2.73-1.506c.258-.27.475-.41.664-.41.231 0 .343.112.343.327 0 .742-.637 1.582-1.903 2.533q-1.9 1.428-3.38 1.43-1.176-.002-1.89-1.076c-.483-.722-.72-1.652-.72-2.804q.001-.792.14-2.013l.958-7.76q.054-.466.12-.757.02-.158.02-.263-.02-.447-.7-.445h-1.154q-.474-.002-.476-.347c0-.27.287-.562.867-.86a9.5 9.5 0 0 0 3.584-3.305c.217-.353.448-.527.678-.527q.453.002.455.389c0 .132-.042.326-.119.569q-.044.146-.203.77l-.14.674-.119.534a1.3 1.3 0 0 0-.042.285q-.002.488.826.486h.182l2.82-.084q.702.001.7.535 0 .883-1.05.881l-2.442-.104h-.287q-.58 0-.77.208-.198.199-.28.916m11.477 1.61q2.247-4.173 4.745-4.172c.951 0 1.427.327 1.427.972q0 .248-.126.632a6 6 0 0 0-.168.562l-.252.979c-.098.444-.3.673-.615.687-.168.014-.308-.139-.434-.451-.308-.785-.79-1.173-1.442-1.173q-.953.002-1.644 2.075c-.462 1.388-.875 3.582-1.232 6.594l-.574 4.762-.02.229q-.085.79-1.302.791-1.092.002-1.092-.652c0-.098.007-.216.02-.368l.988-7.955c.056-.451.084-.992.084-1.631 0-2.006-.47-3.012-1.4-3.012q-.619.002-1.134.68c-.343.45-.56 1.006-.657 1.659-.07.52-.231.784-.49.784q-.474 0-.476-.979 0-2.072 1.05-3.415c.329-.416.727-.798 1.21-1.138q.716-.509 1.148-.507c.896 0 1.686 1.347 2.386 4.047m9.454 4.033.854-5.025c.07-.368.105-.695.105-.993q.002-.812-1.203-.812h-1.106q-.903.001-.882-.424.023-.49.875-.492a19 19 0 0 0 3.625-.34q.669-.117 1.035-.119.429-.001.427.486l-.02.222-1.114 5.609q-.84 4.162-.84 6.337-.002 1.217.637 1.256c.623.042 1.232-.527 1.841-1.693.147-.313.315-.472.49-.472q.327.001.308.43c-.056.882-.581 1.853-1.589 2.902-1 1.055-1.896 1.582-2.68 1.582q-.62.002-1.007-.902-.391-.905-.392-2.319c0-1.069.21-2.81.636-5.233m3.506-16.534c.126.014.238.139.35.368q.327.633.413.736l.448.673q.189.262.189.41c0 .117-.105.277-.308.465-.301.305-.665.715-1.092 1.249-.168.201-.315.305-.455.305-.16 0-.308-.132-.433-.388-.287-.597-.54-1.042-.756-1.326-.126-.18-.189-.32-.189-.43q.002-.221.203-.451l.58-.59q.103-.103.532-.674c.21-.243.378-.36.518-.347m14.843 20.532q-3.558 4.623-7.306 4.623c-1 0-1.812-.382-2.45-1.139-.636-.756-.95-1.742-.95-2.943 0-1.603.384-3.304 1.147-5.115q1.145-2.71 2.974-4.679c1.812-1.936 3.716-2.908 5.696-2.908.693 0 1.463.132 2.295.396q.451.146.735.146.599-.001 1.47-1.41.452-.696.707-.673.26.023.258.389 0 .158-.063.347c-.028.09-.112.472-.265 1.138l-.476 2.221c-.287 1.27-.567 2.909-.84 4.908-.273 1.992-.413 3.36-.413 4.088q0 2.529.798 2.527c.28 0 .63-.223 1.063-.674.427-.444.763-.93.994-1.443.19-.451.399-.674.616-.674.23 0 .35.14.35.424 0 .867-.546 1.902-1.63 3.102q-1.636 1.803-2.779 1.805c-.538 0-.93-.305-1.19-.916q-.396-.917-.741-3.54m-.868-11.286q-2.163 0-4.115 2.436-1.29 1.605-2.183 4.054-.894 2.445-.896 4.352-.001 3.028 2.715 3.026c1.148 0 2.317-.61 3.506-1.84q1.787-1.842 2.05-3.894.148-1.135.316-1.908l.378-1.826q.335-1.518.483-2.047c.097-.382.146-.715.146-1.014 0-.34-.251-.645-.755-.923a3.35 3.35 0 0 0-1.645-.416m48.447 11.862 2.42-19.754c.07-.514.105-.924.105-1.222 0-1.2-.643-1.93-1.93-2.173q-1.177-.227-1.177-.569-.002-.428.637-.43c.315 0 .854.055 1.617.173q.869.117 1.602.118c.532 0 1.568-.048 3.1-.152a75 75 0 0 1 4.41-.14q6.338-.001 9.663 3.194c2.106 2.027 3.156 4.609 3.156 7.76 0 2.874-.678 5.615-2.03 8.211q-2.027 3.896-5.534 6.324a14 14 0 0 1-4.41 1.978q-2.358.604-5.842.604a35 35 0 0 1-3.422-.167q-1.312-.125-1.743-.125-.557 0-1.294.125c-.63.111-1.043.167-1.253.167q-.756.001-.756-.424-.002-.324.721-.534c1.092-.27 1.7-.91 1.84-1.909zm5.423-20.212-2.464 20.344c-.062.514-.097.888-.097 1.117q.001.917.538 1.187.544.28 2.296.278c2.19 0 3.96-.195 5.318-.59 1.35-.396 2.624-1.09 3.807-2.075q2.382-1.981 3.947-5.74 1.562-3.77 1.56-7.539c0-3.373-1.26-5.99-3.786-7.836q-2.552-1.874-7.067-1.874-2.5.001-3.164.45c-.44.3-.741 1.063-.888 2.278m22.442 15.888a13 13 0 0 0-.105 1.416c0 1.388.462 2.575 1.386 3.54.93.971 2.057 1.457 3.394 1.457q2.527 0 4.038-1.561.481-.48.63-.48.293.001.293.39c0 .444-.483 1.054-1.456 1.81-1.56 1.202-3.296 1.799-5.206 1.799q-2.498 0-3.968-1.562c-.972-1.034-1.462-2.45-1.462-4.248 0-2.742.916-5.29 2.757-7.65 1.84-2.352 3.82-3.532 5.955-3.532 1.043 0 1.89.278 2.554.833.665.562.994 1.277.994 2.165q0 2.425-3.212 4.234-2.457 1.387-6.592 1.389m.105-.75q3.088 0 5.2-1.416 2.108-1.416 2.106-3.52-.002-1.893-1.925-1.894c-1.12 0-2.24.673-3.352 2.02-.972 1.18-1.644 2.783-2.03 4.81m18.257-7.378c1.295-.215 2.31-.327 3.044-.327 2.121 0 3.786.5 5.018 1.493 1.225.992 1.84 2.339 1.84 4.032 0 1.5-.37 3.048-1.112 4.63q-1.124 2.373-2.897 3.922-2.667 2.332-5.816 2.332c-.44 0-.762-.02-.986-.062a5 5 0 0 0-.595-.063c-.308 0-.49.174-.532.507l-.077.465-.37 3.054q-.043.24-.043.687c0 .528.126.882.371 1.07q.368.29 1.616.443l.63.104q.618.084.616.438.001.562-.804.562-.514-.001-.966-.055l-.35-.056q-.68-.096-1.897-.097-1.215 0-1.896.083l-.455.049a8 8 0 0 1-.595.034c-.566 0-.846-.18-.846-.548 0-.222.189-.375.56-.451q.964-.207 1.224-.59.252-.388.44-1.888l2.254-18.165c-.56.16-1.021.312-1.392.451l-.567.243-.266.084a.8.8 0 0 1-.308.083q-.201 0-.224-.208l.02-.16.106-.306c.049-.152.245-.27.567-.368l.903-.374c.202-.077.468-.174.79-.285l.49-.187.105-.812c.252-2.034.574-3.401.973-4.089.392-.694 1.05-1.041 1.966-1.041q.462.002.462.368 0 .22-.252.951c-.266.777-.448 1.52-.546 2.242zm-.147 1.09-1.518 12.223a6 6 0 0 0-.042.736q-.002 1.032 1.77 1.034 2.92.001 4.99-2.714c1.385-1.812 2.078-3.978 2.078-6.511 0-1.59-.483-2.818-1.441-3.679-.959-.867-2.324-1.298-4.087-1.298q-.723 0-1.75.208m14.773 7.038a13 13 0 0 0-.105 1.416c0 1.388.462 2.575 1.386 3.54.93.971 2.057 1.457 3.393 1.457 1.687 0 3.03-.52 4.038-1.561q.483-.48.63-.48.294.001.294.39c0 .444-.483 1.054-1.455 1.81-1.561 1.202-3.297 1.799-5.207 1.799q-2.498 0-3.968-1.562-1.46-1.551-1.462-4.248c0-2.742.916-5.29 2.757-7.65 1.84-2.352 3.82-3.532 5.955-3.532 1.042 0 1.89.278 2.554.833.665.562.994 1.277.994 2.165q0 2.425-3.212 4.234-2.457 1.387-6.592 1.389m.105-.75q3.088 0 5.2-1.416 2.108-1.416 2.106-3.52-.002-1.893-1.925-1.894-1.682 0-3.352 2.02c-.973 1.18-1.644 2.783-2.029 4.81m17.488-3.644c.93-1.256 1.98-2.249 3.156-2.97 1.168-.73 2.288-1.09 3.359-1.09.846 0 1.56.437 2.127 1.304.567.868.854 1.965.854 3.277q.001 1.145-.154 2.915l-.455 5.303a4 4 0 0 0-.021.382q-.002 1.062.595 1.061c.685 0 1.336-.45 1.966-1.353.273-.403.525-.604.742-.604q.37-.002.35.403-.061 1.09-1.729 2.547c-1.12.979-2.071 1.465-2.862 1.465q-1.458-.002-1.456-2.68 0-.605.085-1.658l.503-6.234a9 9 0 0 0 .042-.909c0-1.055-.202-1.902-.602-2.526-.405-.632-.937-.945-1.609-.945-1.162 0-2.162.702-3.016 2.097q-1.283 2.093-1.714 5.664l-.784 6.136q-.064.603-.35.812-.294.2-1.07.201c-.708 0-1.044-.215-1.016-.652l.042-.368.658-5.282c.098-.82.203-1.625.315-2.43q.286-2.094.287-3.179.001-2-.93-2-.348.001-.834.5a3.2 3.2 0 0 0-.713 1.118q-.263.759-.567.757-.399.002-.399-.57-.002-1.371 1.225-2.942c.812-1.049 1.582-1.569 2.309-1.569.49 0 .889.299 1.197.888.308.59.469 1.36.469 2.305z" style="fill:url(#d);fill-rule:evenodd"/><path d="M546.59 386.002c-1.518 2.825-3.464 4.233-5.83 4.233-1.308 0-2.343-.464-3.085-1.402q-1.122-1.407-1.12-3.866-.002-4.333 2.8-7.927 2.802-3.59 6.15-3.588 1.094-.002 2.576.715l1.26-9.947c.07-.541.104-.909.104-1.117q.002-.687-1.098-.687h-1.001q-.819 0-.798-.396.021-.437.798-.479c1.56-.09 2.673-.208 3.338-.34a5.3 5.3 0 0 1 .938-.118c.259 0 .384.153.384.465q0 .145-.02.25l-2.75 22.198q-.127 1.24-.127 2.012 0 1.812.987 1.812c.735 0 1.463-.576 2.17-1.728l.37-.611q.232-.324.441-.326.315.001.315.326.001.925-1.14 2.443-1.554 2.103-3.318 2.103-1.101-.002-1.553-.638c-.308-.424-.532-1.236-.686-2.437a36 36 0 0 1-.105-.95m.539-4.304.658-5.213c.028-.229.042-.416.042-.548q.002-1.654-2.463-1.652-1.941.002-3.66 2.034c-.784.937-1.435 2.152-1.967 3.637-.525 1.492-.79 2.901-.79 4.213q.002 1.853.832 2.957c.553.743 1.295 1.11 2.212 1.11q1.95 0 3.47-1.832 1.28-1.572 1.666-4.706m10.049.167q-.105.885-.105 1.416c0 1.388.462 2.575 1.386 3.54.93.971 2.057 1.457 3.394 1.457q2.528 0 4.037-1.562.483-.479.63-.479.294.002.294.39c0 .444-.483 1.054-1.455 1.81-1.561 1.202-3.297 1.798-5.207 1.798q-2.498 0-3.968-1.561c-.972-1.034-1.462-2.45-1.462-4.248 0-2.742.916-5.29 2.757-7.65 1.84-2.352 3.82-3.532 5.955-3.532 1.043 0 1.89.277 2.554.833.665.562.994 1.277.994 2.165q0 2.425-3.212 4.234-2.457 1.387-6.592 1.389m.105-.75q3.087 0 5.2-1.416 2.107-1.416 2.106-3.52-.002-1.893-1.925-1.894c-1.12 0-2.24.673-3.352 2.02-.973 1.18-1.644 2.783-2.03 4.81m8.194-15.992 2.688 5.24.16.389q.04.282-.328.284a.53.53 0 0 1-.35-.124l-2.68-2.79-4.43 2.769a.8.8 0 0 1-.448.145q-.432-.001-.413-.326.023-.164.35-.465zm9.294 12.348q1.394-1.887 3.156-2.97c1.168-.73 2.288-1.09 3.358-1.09.847 0 1.561.436 2.128 1.304.566.868.853 1.965.853 3.277 0 .763-.048 1.735-.153 2.915l-.455 5.303a4 4 0 0 0-.021.381q-.001 1.063.594 1.062c.686 0 1.337-.45 1.967-1.353.273-.403.525-.604.742-.604q.37-.002.35.403-.061 1.09-1.729 2.547c-1.12.979-2.071 1.465-2.862 1.465-.972 0-1.456-.896-1.456-2.68q0-.605.084-1.658l.504-6.234a9 9 0 0 0 .042-.909c0-1.055-.203-1.902-.601-2.526-.406-.632-.938-.945-1.61-.945-1.162 0-2.162.702-3.016 2.097q-1.283 2.093-1.715 5.663l-.783 6.137q-.065.603-.35.812-.294.2-1.07.201c-.708 0-1.044-.215-1.016-.653l.042-.367.658-5.283c.098-.819.203-1.624.315-2.429q.286-2.094.287-3.179.002-2-.93-2-.349.001-.833.5-.483.503-.714 1.118-.263.759-.567.757-.399.002-.399-.57-.002-1.371 1.225-2.942c.811-1.049 1.581-1.569 2.309-1.569.49 0 .889.299 1.196.888.309.59.47 1.36.47 2.305zm25.206-.785-1.197-1.235c-.65-.666-1.344-1-2.092-1q-2.17-.001-3.618 2.298-1.449 2.301-1.449 5.706-.001 2.74 1.204 4.24 1.207 1.5 3.401 1.5 2.181 0 3.786-1.395l.763-.653a.5.5 0 0 1 .342-.16q.243-.018.245.244c0 .326-.3.812-.902 1.478-1.547 1.687-3.513 2.526-5.906 2.526q-2.54-.002-3.954-1.637c-.945-1.097-1.414-2.624-1.414-4.596q0-4.196 2.624-7.475c1.757-2.187 3.744-3.283 5.977-3.283 1.105 0 2.078.243 2.91.728q1.252.73 1.253 1.687.002.564-.364.993c-.238.284-.531.423-.86.423-.26 0-.504-.132-.75-.389m6.081 4.929.854-5.026c.07-.368.105-.694.105-.992q.001-.812-1.204-.812h-1.106q-.902.001-.882-.424.024-.49.875-.492a19 19 0 0 0 3.625-.34q.67-.117 1.036-.119.429-.001.427.486l-.021.222-1.113 5.609q-.84 4.162-.84 6.337-.002 1.217.637 1.256c.623.042 1.232-.527 1.84-1.693.148-.313.315-.472.49-.472q.327.001.308.43c-.055.882-.58 1.853-1.588 2.902-1 1.055-1.897 1.582-2.68 1.582-.413 0-.749-.298-1.008-.902q-.39-.904-.392-2.319c0-1.069.21-2.81.637-5.233m3.506-16.534c.126.014.238.139.35.368q.327.633.412.736l.449.673q.188.262.189.41c0 .117-.106.277-.309.465-.3.305-.664.714-1.091 1.249-.168.201-.315.305-.455.305-.16 0-.308-.132-.434-.388-.287-.597-.539-1.042-.756-1.326-.126-.18-.189-.32-.189-.43q.002-.221.203-.451l.581-.59c.07-.07.245-.292.532-.674.21-.243.378-.36.518-.347m14.842 20.532q-3.558 4.623-7.305 4.623c-1.001 0-1.813-.382-2.45-1.139-.636-.756-.951-1.742-.951-2.943 0-1.603.385-3.304 1.147-5.115.763-1.805 1.757-3.367 2.974-4.679 1.813-1.936 3.716-2.908 5.697-2.908.692 0 1.462.132 2.295.395q.452.146.735.146.597-.002 1.47-1.409c.3-.465.538-.687.706-.673q.26.023.259.389 0 .158-.063.347c-.028.09-.112.472-.266 1.138l-.476 2.221c-.287 1.27-.567 2.909-.84 4.908-.272 1.992-.413 3.36-.413 4.088q0 2.529.798 2.527c.28 0 .63-.223 1.064-.674.427-.444.763-.93.994-1.444.189-.45.399-.673.616-.673.23 0 .35.14.35.424q-.002 1.3-1.631 3.102-1.636 1.803-2.778 1.805c-.539 0-.931-.306-1.19-.916-.266-.611-.51-1.791-.742-3.54m-.868-11.286q-2.161 0-4.114 2.436-1.29 1.605-2.184 4.054-.893 2.445-.895 4.352c0 2.02.902 3.026 2.715 3.026 1.148 0 2.316-.61 3.506-1.84q1.786-1.842 2.05-3.894c.098-.756.203-1.395.315-1.908l.378-1.826q.336-1.518.483-2.047c.098-.382.147-.715.147-1.014q0-.508-.756-.923a3.35 3.35 0 0 0-1.645-.416m34.675 15.992c2.148 1.409 4.22 2.561 6.207 3.457 1.988.888 3.492 1.332 4.52 1.332 1.037 0 1.876-.506 2.52-1.527.175-.284.322-.43.427-.43q.243.002.245.305-.002 1.21-1.652 2.513t-3.205 1.305c-1.287 0-2.91-.458-4.877-1.367q-2.952-1.374-8.034-4.63l-3.443-2.152c-.818-.507-1.532-.756-2.148-.756-.812 0-1.504.34-2.092 1.027q-.873 1.03-.875 2.478-.002 1.178.553 2.075.369.615.37.916-.001.284-.433.285c-.406 0-.805-.43-1.183-1.284a6.5 6.5 0 0 1-.566-2.645q0-3.52 3.232-4.74c-1.231-1.562-2.078-2.957-2.54-4.2-.462-1.235-.692-2.742-.692-4.498 0-5.234 1.742-9.37 5.227-12.417 2.736-2.381 5.892-3.575 9.46-3.575 3.773 0 6.88 1.263 9.322 3.797q3.662 3.8 3.66 9.676c0 3.36-.875 6.358-2.617 9.002-1.337 2-2.876 3.47-4.619 4.394q-2.612 1.397-6.767 1.659m.371-27.404c-3.044 0-5.605 1.291-7.67 3.867s-3.093 5.781-3.093 9.606q-.001 5.685 2.82 9.225c1.876 2.36 4.339 3.54 7.37 3.54a9.6 9.6 0 0 0 4.779-1.257 10 10 0 0 0 3.61-3.45c.722-1.165 1.323-2.678 1.792-4.539s.707-3.623.707-5.303c0-3.477-.952-6.295-2.848-8.454-1.903-2.159-4.388-3.235-7.467-3.235m28.005 18.679c-1.735 2.651-3.092 4.484-4.08 5.511a12.8 12.8 0 0 1-2.49 1.985q-1.386.854-2.142.854c-.44 0-.79-.229-1.064-.68-.273-.458-.413-1.041-.413-1.763q.002-1.624.497-4.186l.833-4.206c.203-1.034.308-1.763.308-2.2q-.002-.771-.434-.791-.388-.02-.945.555c-.37.381-.671.847-.888 1.38-.203.459-.427.688-.658.688q-.39.001-.392-.486 0-1.602 1.407-3.248 1.408-1.637 2.806-1.638 1.624.002 1.623 2.554-.002.654-.119 1.381l-1.154 7.004c-.021.229-.07.562-.14 1.013l-.098.889a5 5 0 0 0-.042.59q0 .853.608.853c.455 0 1.134-.45 2.05-1.353.918-.91 1.855-2.055 2.807-3.443a25.8 25.8 0 0 0 3.73-8.12c.14-.5.28-.827.434-.98.154-.145.413-.222.784-.222q1.09 0 1.091.833c0 .153-.02.327-.063.514l-1.028 4.734c-.672 3.054-1.008 5.351-1.008 6.872q0 .999.819.999 1.208-.002 2.414-2.242.262-.508.567-.507.399-.001.399.444c0 .98-.63 2.034-1.883 3.18-1.252 1.138-2.428 1.707-3.52 1.707-.93 0-1.399-.708-1.399-2.124q.002-1.605.392-3.845l.217-1.16c.041-.228.098-.68.174-1.346m10.378.02.854-5.024c.07-.368.105-.695.105-.993q.002-.812-1.204-.812h-1.105q-.903.001-.882-.424.023-.49.875-.492c1.252 0 2.47-.112 3.638-.34q.674-.117 1.043-.119.429-.001.427.486l-.02.222-1.127 5.609c-.568 2.776-.847 4.886-.847 6.337q-.002 1.217.637 1.256c.622.042 1.231-.527 1.84-1.693.147-.313.315-.472.49-.472q.327.001.308.43c-.056.882-.581 1.853-1.589 2.902-1 1.055-1.896 1.582-2.68 1.582-.413 0-.749-.298-1.008-.902-.258-.604-.392-1.375-.392-2.319 0-1.069.21-2.81.637-5.233m1.232-11.924 2.12-2.908q.915-1.2 1.721-1.201.621.002 1.064.41.45.407.448.971.001.914-1.182 1.631l-3.367 2.013c-.37.215-.65.334-.86.347-.26.014-.385-.118-.385-.389q0-.28.44-.874m11.903 7.885c.952-1.319 2.001-2.346 3.156-3.075s2.31-1.09 3.457-1.09c1.722 0 2.575 1.132 2.575 3.388v.777c.875-1.284 1.834-2.297 2.89-3.04q1.584-1.125 3.01-1.125 1.427 0 2.288 1.208c.567.812.854 1.888.854 3.249 0 .5-.021.999-.056 1.485l-.497 6.51-.077.855.084.388c.119.313.343.465.672.465q.997-.002 2.015-1.575c.161-.23.33-.34.518-.34q.408-.002.406.485 0 .699-1.239 2.097c-1.084 1.221-2.176 1.832-3.26 1.832-1.057 0-1.59-.944-1.59-2.839q0-.487.064-1.381l.483-6.49c.028-.396.042-.736.042-1.034q0-3.166-2.163-3.166c-1.008 0-1.91.709-2.701 2.118-.79 1.416-1.33 3.269-1.616 5.573l-.784 6.206q-.082.603-.364.812c-.182.132-.539.201-1.057.201-.679 0-1.014-.215-1.014-.652l.042-.361 1.112-9.03c.07-.528.105-1.139.105-1.847q0-1.395-.672-2.228c-.447-.555-1.042-.833-1.798-.833-1.064 0-2.03.68-2.918 2.048s-1.449 3.04-1.687 5.01l-.818 6.88c-.056.402-.175.673-.365.812-.181.132-.538.201-1.056.201q-1.017.002-1.015-.652 0-.103.042-.361l1.176-9.725a8 8 0 0 0 .084-1.034c0-1.333-.3-2.013-.889-2.055-.609-.041-1.176.57-1.714 1.84-.12.312-.252.465-.385.45-.217-.013-.33-.214-.33-.61 0-.902.386-1.867 1.163-2.908.77-1.041 1.497-1.562 2.169-1.562q1.658 0 1.658 4.123m25.515 4.04.853-5.025c.07-.368.105-.695.105-.993q.001-.812-1.203-.812h-1.106q-.903.001-.882-.424.023-.49.875-.492 1.87.001 3.625-.34c.448-.077.79-.119 1.036-.119q.428-.001.426.486l-.02.222-1.113 5.609q-.84 4.162-.84 6.337-.002 1.217.637 1.256c.623.042 1.232-.527 1.84-1.693.147-.313.315-.472.49-.472q.327.001.308.43c-.056.882-.58 1.853-1.588 2.902-1.001 1.055-1.897 1.582-2.68 1.582q-.621.002-1.008-.902-.391-.905-.392-2.319c0-1.069.21-2.81.637-5.233m3.505-16.534c.126.014.239.139.35.368q.327.633.413.736l.448.673q.19.262.19.41c0 .117-.106.277-.309.465-.3.305-.665.715-1.092 1.249-.167.201-.314.305-.454.305-.161 0-.308-.132-.434-.388-.287-.597-.539-1.042-.756-1.326-.126-.18-.189-.32-.189-.43q.002-.221.203-.451l.58-.59q.104-.103.533-.674c.21-.243.378-.36.517-.347m15.22 11.605-1.196-1.235c-.65-.666-1.343-1-2.092-1q-2.17-.001-3.618 2.298-1.449 2.301-1.449 5.706c0 1.825.4 3.241 1.204 4.24q1.207 1.5 3.401 1.5c1.456 0 2.715-.465 3.786-1.395l.763-.653a.5.5 0 0 1 .343-.16c.16-.013.244.07.244.244 0 .326-.3.812-.902 1.478-1.547 1.687-3.513 2.527-5.906 2.527-1.694 0-3.01-.549-3.954-1.638-.945-1.097-1.413-2.624-1.413-4.596q0-4.195 2.624-7.475c1.756-2.186 3.743-3.283 5.976-3.283 1.105 0 2.078.243 2.91.729q1.252.728 1.253 1.686.002.564-.364.993c-.237.284-.531.423-.86.423-.26 0-.504-.132-.75-.389m14.137 8.927q-3.56 4.623-7.306 4.623c-1.001 0-1.813-.382-2.45-1.139-.636-.756-.951-1.742-.951-2.943 0-1.603.385-3.304 1.147-5.115q1.147-2.71 2.974-4.679c1.813-1.936 3.716-2.908 5.697-2.908.692 0 1.462.132 2.295.396q.452.146.735.146.599-.001 1.47-1.41c.3-.465.538-.687.706-.673q.261.023.26.389 0 .158-.064.347c-.028.09-.112.472-.266 1.138l-.476 2.221c-.286 1.27-.566 2.909-.84 4.908-.272 1.992-.412 3.36-.412 4.088q0 2.529.797 2.527c.28 0 .63-.223 1.064-.674.427-.444.763-.93.994-1.443.189-.451.399-.674.616-.674.23 0 .35.14.35.424 0 .867-.546 1.902-1.63 3.102-1.093 1.201-2.016 1.805-2.78 1.805-.538 0-.93-.305-1.189-.916q-.396-.917-.741-3.54m-.868-11.286q-2.163 0-4.115 2.436-1.29 1.605-2.183 4.054-.894 2.445-.896 4.352-.001 3.028 2.715 3.026c1.148 0 2.316-.61 3.506-1.84q1.786-1.842 2.05-3.894.147-1.135.315-1.908l.378-1.826q.336-1.518.483-2.047a4 4 0 0 0 .147-1.014c0-.34-.252-.645-.756-.923a3.35 3.35 0 0 0-1.644-.416m-349.95 7.538a13 13 0 0 0-.105 1.416c0 1.388.462 2.575 1.386 3.54.93.971 2.057 1.457 3.394 1.457q2.527 0 4.038-1.561.482-.48.63-.48.293.002.294.39c0 .444-.483 1.054-1.456 1.81-1.56 1.202-3.296 1.799-5.207 1.799q-2.498 0-3.967-1.562-1.461-1.551-1.463-4.248-.001-4.112 2.757-7.65c1.84-2.352 3.821-3.532 5.956-3.532 1.042 0 1.889.278 2.554.833.665.562.993 1.277.993 2.165q0 2.425-3.212 4.234-2.456 1.387-6.592 1.389m.105-.75q3.088 0 5.2-1.416 2.108-1.416 2.106-3.52c0-1.262-.644-1.894-1.924-1.894-1.12 0-2.24.673-3.352 2.02-.973 1.18-1.645 2.783-2.03 4.81" style="fill:url(#e);fill-rule:evenodd"/><path d="M143.23 196.006h26.147l-4.767 39.37h-45.233l-4.801 39.656H73.058l2.23-18.423c4.037-33.332 34.61-60.603 67.942-60.603m62.906 39.37-4.802 39.656h-41.518l4.802-39.656zm-10.28 84.897-2.23 18.425c-4.036 33.331-34.61 60.602-67.941 60.602H99.529l4.767-39.37h45.24l4.802-39.657zM62.782 359.902l4.798-39.63h41.518l-4.799 39.63z" style="fill:url(#f);fill-opacity:1;fill-rule:evenodd"/></svg>